<svg xmlns="http://www.w3.org/2000/svg" viewBox="0 0 471.11 561.5"><defs><style>.cls-1{fill:#ed1e79;}</style></defs><title>geek</title><g id="Calque_2" data-name="Calque 2"><g id="Calque_1-2" data-name="Calque 1"><path class="cls-1" d="M356.2,179.33H290.49c0-13.41-10.46-25.17-26.14-31.73l40.38-62.19a17.52,17.52,0,0,0,2.83.25,17.25,17.25,0,1,0-14.35-7.72L250.64,143.5a80.28,80.28,0,0,0-30.17,0L143.91,25.6a16.63,16.63,0,1,0-14,7.68,15.66,15.66,0,0,0,2.48-.21L206.76,147.6c-15.69,6.56-26.14,18.32-26.14,31.73H114.9A114.91,114.91,0,0,0,0,294.24V420.63A115,115,0,0,0,86.15,531.91c-.52,9.36-.78,29.59,6.73,29.59,6.65,0,17.65-15.83,24-26H354.21c6.37,10.13,17.37,26,24,26,7.51,0,7.26-20.23,6.74-29.59a115,115,0,0,0,86.15-111.28V294.24A114.91,114.91,0,0,0,356.2,179.33ZM332.76,468.41H78.22a22.57,22.57,0,0,1-22.57-22.57V269.18A22.57,22.57,0,0,1,78.22,246.6H332.76a22.58,22.58,0,0,1,22.58,22.58V445.84A22.58,22.58,0,0,1,332.76,468.41Zm70.62-40.1a26.72,26.72,0,1,1,26.71-26.72A26.72,26.72,0,0,1,403.38,428.31Zm0-103.48a26.72,26.72,0,1,1,26.71-26.72A26.72,26.72,0,0,1,403.38,324.83Z"/><path class="cls-1" d="M303.36,362.13l-27.82-27.81-1.15-16.19L290,317a1.63,1.63,0,0,0,1.52-1.75l-.5-7.12a1.66,1.66,0,0,0-.56-1.12,1.64,1.64,0,0,0-1.2-.4l-15.62,1.11-.79-11.09a1.63,1.63,0,0,0-1.76-1.52l-7.11.5a1.63,1.63,0,0,0-1.52,1.76l.78,11.09-15.62,1.1a1.65,1.65,0,0,0-1.53,1.76l.51,7.11a1.64,1.64,0,0,0,.56,1.13,1.67,1.67,0,0,0,1.19.4L264,318.87l1.18,16.58-26.69,26.68a1.64,1.64,0,0,0,1.16,2.81h12.29v25.57h-16.1V315a1.64,1.64,0,0,0-.77-1.39,1.62,1.62,0,0,0-1.58-.09l-10.64,5.09,1.24-8.37a1.65,1.65,0,0,0-1.38-1.87L213.38,307a1.66,1.66,0,0,0-1.22.31,1.64,1.64,0,0,0-.65,1.08L209,325.27l-10.53,5.05V294.89h12.29a1.65,1.65,0,0,0,1.07-2.9l-31.18-31.18a1.65,1.65,0,0,0-2.33,0l-31.27,31.27a1.65,1.65,0,0,0,1.16,2.81h12V357l-7.78-1.15a1.66,1.66,0,0,0-1.22.3,1.7,1.7,0,0,0-.65,1.08l-2.2,14.89h-.83l-1.18-14.54a1.63,1.63,0,0,0-1.77-1.51l-9.4.76a1.63,1.63,0,0,0-1.12.57,1.65,1.65,0,0,0-.38,1.2L135,375.14l-22.08,24.47a1.66,1.66,0,0,0-.28,1.77,1.64,1.64,0,0,0,1.5,1h9.21v54.93a1.64,1.64,0,0,0,1.65,1.64h82.55a1.63,1.63,0,0,0,1.64-1.64V434.75a18.42,18.42,0,1,1,36.84,0v22.53a1.64,1.64,0,0,0,1.64,1.64h40.9a1.63,1.63,0,0,0,1.64-1.64V364.94h12a1.64,1.64,0,0,0,1.16-2.81Zm-98.14-7.7V342l8.22-3.93,0,0,8.22-4.25a.56.56,0,0,1,.29.5v20.14a.56.56,0,0,1-.55.56H205.78A.56.56,0,0,1,205.22,354.43Zm0,12a.56.56,0,0,1,.56-.56h15.66a.56.56,0,0,1,.55.56v15.65a.56.56,0,0,1-.55.56H205.78a.56.56,0,0,1-.56-.56Zm57.39,3.41a.56.56,0,0,1,.55-.56h15.66a.56.56,0,0,1,.56.56v15.65a.56.56,0,0,1-.56.56H263.16a.56.56,0,0,1-.55-.56ZM160.85,395.35V411a.56.56,0,0,1-.55.56H144.64a.56.56,0,0,1-.56-.56V395.35a.56.56,0,0,1,.56-.56H160.3A.56.56,0,0,1,160.85,395.35Z"/></g></g></svg>