<?xml version="1.0" encoding="utf-8"?>
<!-- Generator: Adobe Illustrator 23.0.2, SVG Export Plug-In . SVG Version: 6.00 Build 0)  -->
<svg version="1.1" id="Capa_1" xmlns="http://www.w3.org/2000/svg" xmlns:xlink="http://www.w3.org/1999/xlink" x="0px" y="0px"
	 viewBox="0 0 516.4 516.4" style="enable-background:new 0 0 516.4 516.4;" xml:space="preserve">
<style type="text/css">
	.st0{fill:#ED1E79;}
</style>
<g>
	<g>
		<polygon class="st0" points="487.7,310.8 487.7,272.5 449.4,272.5 363.8,272.5 325.1,310.8 428.8,310.8 345.8,393.8 368.9,416.9 
			449.4,336.4 449.4,435.1 487.7,396.5 		"/>
		<polygon class="st0" points="124.3,377.7 219.9,377.7 219.9,282.1 315.6,282.1 315.6,176.9 420.8,176.9 420.8,81.3 516.4,81.3 
			516.4,43 382.5,43 382.5,138.7 277.3,138.7 277.3,243.8 181.7,243.8 181.7,339.5 86.1,339.5 86.1,435.1 0,435.1 0,473.3 
			124.3,473.3 		"/>
	</g>
</g>
</svg>
