<?xml version="1.0" encoding="UTF-8" standalone="no"?>
<!-- Generator: Adobe Illustrator 23.0.2, SVG Export Plug-In . SVG Version: 6.00 Build 0)  -->

<svg
   xmlns:dc="http://purl.org/dc/elements/1.1/"
   xmlns:cc="http://creativecommons.org/ns#"
   xmlns:rdf="http://www.w3.org/1999/02/22-rdf-syntax-ns#"
   xmlns:svg="http://www.w3.org/2000/svg"
   xmlns="http://www.w3.org/2000/svg"
   xmlns:sodipodi="http://sodipodi.sourceforge.net/DTD/sodipodi-0.dtd"
   xmlns:inkscape="http://www.inkscape.org/namespaces/inkscape"
   version="1.1"
   id="Capa_1"
   x="0px"
   y="0px"
   viewBox="0 0 516.4 516.4"
   style="enable-background:new 0 0 516.4 516.4;"
   xml:space="preserve"
   sodipodi:docname="stairs-yellow.svg"
   inkscape:version="0.92.4 (5da689c313, 2019-01-14)"><metadata
   id="metadata17"><rdf:RDF><cc:Work
       rdf:about=""><dc:format>image/svg+xml</dc:format><dc:type
         rdf:resource="http://purl.org/dc/dcmitype/StillImage" /><dc:title /></cc:Work></rdf:RDF></metadata><defs
   id="defs15" /><sodipodi:namedview
   pagecolor="#212121"
   bordercolor="#666666"
   borderopacity="1"
   objecttolerance="10"
   gridtolerance="10"
   guidetolerance="10"
   inkscape:pageopacity="0"
   inkscape:pageshadow="2"
   inkscape:window-width="1366"
   inkscape:window-height="705"
   id="namedview13"
   showgrid="false"
   inkscape:zoom="0.85088276"
   inkscape:cx="246.42747"
   inkscape:cy="327.76594"
   inkscape:window-x="1272"
   inkscape:window-y="-8"
   inkscape:window-maximized="1"
   inkscape:current-layer="Capa_1" />
<style
   type="text/css"
   id="style2">
	.st0{fill:#ED1E79;}
</style>
<g
   id="g10"
   style="fill:#ea3259;fill-opacity:1">
	<g
   id="g8"
   style="fill:#ea3259;fill-opacity:1">
		<polygon
   class="st0"
   points="487.7,310.8 487.7,272.5 449.4,272.5 363.8,272.5 325.1,310.8 428.8,310.8 345.8,393.8 368.9,416.9     449.4,336.4 449.4,435.1 487.7,396.5   "
   id="polygon4"
   style="fill:#ea3259;fill-opacity:1" />
		<polygon
   class="st0"
   points="124.3,377.7 219.9,377.7 219.9,282.1 315.6,282.1 315.6,176.9 420.8,176.9 420.8,81.3 516.4,81.3     516.4,43 382.5,43 382.5,138.7 277.3,138.7 277.3,243.8 181.7,243.8 181.7,339.5 86.1,339.5 86.1,435.1 0,435.1 0,473.3     124.3,473.3   "
   id="polygon6"
   style="fill:#ea3259;fill-opacity:1" />
	</g>
</g>
</svg>