<?xml version="1.0" encoding="UTF-8" standalone="no"?>
<!-- Generator: Adobe Illustrator 23.0.2, SVG Export Plug-In . SVG Version: 6.00 Build 0)  -->

<svg
   xmlns:dc="http://purl.org/dc/elements/1.1/"
   xmlns:cc="http://creativecommons.org/ns#"
   xmlns:rdf="http://www.w3.org/1999/02/22-rdf-syntax-ns#"
   xmlns:svg="http://www.w3.org/2000/svg"
   xmlns="http://www.w3.org/2000/svg"
   xmlns:sodipodi="http://sodipodi.sourceforge.net/DTD/sodipodi-0.dtd"
   xmlns:inkscape="http://www.inkscape.org/namespaces/inkscape"
   version="1.1"
   id="Capa_1"
   x="0px"
   y="0px"
   viewBox="0 0 45.2 45.2"
   style="enable-background:new 0 0 45.2 45.2;"
   xml:space="preserve"
   sodipodi:docname="weight-red.svg"
   inkscape:version="0.92.4 (5da689c313, 2019-01-14)"><metadata
   id="metadata13"><rdf:RDF><cc:Work
       rdf:about=""><dc:format>image/svg+xml</dc:format><dc:type
         rdf:resource="http://purl.org/dc/dcmitype/StillImage" /><dc:title></dc:title></cc:Work></rdf:RDF></metadata><defs
   id="defs11" /><sodipodi:namedview
   pagecolor="#2e2a2a"
   bordercolor="#666666"
   borderopacity="1"
   objecttolerance="10"
   gridtolerance="10"
   guidetolerance="10"
   inkscape:pageopacity="0"
   inkscape:pageshadow="2"
   inkscape:window-width="1366"
   inkscape:window-height="705"
   id="namedview9"
   showgrid="false"
   inkscape:zoom="10.075359"
   inkscape:cx="22.6"
   inkscape:cy="22.6"
   inkscape:window-x="1272"
   inkscape:window-y="-8"
   inkscape:window-maximized="1"
   inkscape:current-layer="Capa_1" />
<style
   type="text/css"
   id="style2">
	.st0{fill:#ED1E79;}
</style>
<g
   id="g6"
   style="fill:#ea3259;fill-opacity:1">
	<path
   class="st0"
   d="M41.6,15.9v-1.7c0-1.9-1.6-3.5-3.5-3.5h-2.8c-1.9,0-3.5,1.6-3.5,3.5v4.7H13.3v-4.7c0-1.9-1.6-3.5-3.5-3.5H7.1   c-1.9,0-3.5,1.6-3.5,3.5v1.7c-2,0-3.6,1.6-3.6,3.6v6.2c0,2,1.7,3.6,3.6,3.6V31c0,1.9,1.6,3.5,3.5,3.5h2.8c1.9,0,3.5-1.6,3.5-3.5   v-4.7h18.5V31c0,1.9,1.6,3.5,3.5,3.5h2.8c1.9,0,3.5-1.6,3.5-3.5v-1.7c2,0,3.6-1.6,3.6-3.6v-6.2C45.2,17.5,43.5,15.9,41.6,15.9z"
   id="path4"
   style="fill:#ea3259;fill-opacity:1" />
</g>
</svg>