<?xml version="1.0" encoding="UTF-8" standalone="no"?>
<!-- Generator: Adobe Illustrator 23.0.2, SVG Export Plug-In . SVG Version: 6.00 Build 0)  -->

<svg
   xmlns="http://www.w3.org/2000/svg"
   version="1.1"
   id="Capa_1"
   x="0px"
   y="0px"
   viewBox="0 0 45.2 45.2"
   style="enable-background:new 0 0 45.2 45.2;">
<style
   type="text/css"
   id="style2">
	.st0{fill:#ED1E79;}
</style>
<g
   id="g6"
   style="fill:#ea3259;fill-opacity:1">
	<path
   class="st0"
   d="M41.6,15.9v-1.7c0-1.9-1.6-3.5-3.5-3.5h-2.8c-1.9,0-3.5,1.6-3.5,3.5v4.7H13.3v-4.7c0-1.9-1.6-3.5-3.5-3.5H7.1   c-1.9,0-3.5,1.6-3.5,3.5v1.7c-2,0-3.6,1.6-3.6,3.6v6.2c0,2,1.7,3.6,3.6,3.6V31c0,1.9,1.6,3.5,3.5,3.5h2.8c1.9,0,3.5-1.6,3.5-3.5   v-4.7h18.5V31c0,1.9,1.6,3.5,3.5,3.5h2.8c1.9,0,3.5-1.6,3.5-3.5v-1.7c2,0,3.6-1.6,3.6-3.6v-6.2C45.2,17.5,43.5,15.9,41.6,15.9z"
   id="path4"
   style="fill:#ea3259;fill-opacity:1" />
</g>
</svg>