<?xml version="1.0" encoding="UTF-8" standalone="no"?>
<!-- Created with Inkscape (http://www.inkscape.org/) -->

<svg
   xmlns:dc="http://purl.org/dc/elements/1.1/"
   xmlns:cc="http://creativecommons.org/ns#"
   xmlns:rdf="http://www.w3.org/1999/02/22-rdf-syntax-ns#"
   xmlns:svg="http://www.w3.org/2000/svg"
   xmlns="http://www.w3.org/2000/svg"
   xmlns:sodipodi="http://sodipodi.sourceforge.net/DTD/sodipodi-0.dtd"
   xmlns:inkscape="http://www.inkscape.org/namespaces/inkscape"
   width="297mm"
   height="210mm"
   viewBox="0 0 297 210"
   version="1.1"
   id="svg841"
   inkscape:version="0.92.4 (5da689c313, 2019-01-14)"
   sodipodi:docname="logo.fond.transparent.svg"
   inkscape:export-filename="C:\Users\Claire\electronic-tales\resources\img\logo\logo.fond.transparent.png"
   inkscape:export-xdpi="200"
   inkscape:export-ydpi="200">
  <defs
     id="defs835">
    <filter
       inkscape:collect="always"
       style="color-interpolation-filters:sRGB"
       id="filter2056"
       x="-0.021712415"
       width="1.0434248"
       y="-0.16592735"
       height="1.3318547">
      <feGaussianBlur
         inkscape:collect="always"
         stdDeviation="1.6225857"
         id="feGaussianBlur2058" />
    </filter>
    <filter
       inkscape:collect="always"
       style="color-interpolation-filters:sRGB"
       id="filter2368"
       x="-0.13502408"
       width="1.2700482"
       y="-1.0318609"
       height="3.0637217">
      <feGaussianBlur
         inkscape:collect="always"
         stdDeviation="10.090457"
         id="feGaussianBlur2370" />
    </filter>
    <filter
       inkscape:collect="always"
       style="color-interpolation-filters:sRGB"
       id="filter2400"
       x="-0.027140517"
       width="1.054281"
       y="-0.2074093"
       height="1.4148186">
      <feGaussianBlur
         inkscape:collect="always"
         stdDeviation="2.0282331"
         id="feGaussianBlur2402" />
    </filter>
  </defs>
  <sodipodi:namedview
     id="base"
     pagecolor="#858585"
     bordercolor="#666666"
     borderopacity="1.0"
     inkscape:pageopacity="0"
     inkscape:pageshadow="2"
     inkscape:zoom="0.5"
     inkscape:cx="197.60502"
     inkscape:cy="529.29861"
     inkscape:document-units="px"
     inkscape:current-layer="layer1"
     showgrid="false"
     inkscape:window-width="1366"
     inkscape:window-height="705"
     inkscape:window-x="1272"
     inkscape:window-y="-8"
     inkscape:window-maximized="1"
     inkscape:snap-global="false"
     inkscape:pagecheckerboard="false" />
  <metadata
     id="metadata838">
    <rdf:RDF>
      <cc:Work
         rdf:about="">
        <dc:format>image/svg+xml</dc:format>
        <dc:type
           rdf:resource="http://purl.org/dc/dcmitype/StillImage" />
        <dc:title></dc:title>
      </cc:Work>
    </rdf:RDF>
  </metadata>
  <g
     inkscape:label="Calque 1"
     inkscape:groupmode="layer"
     id="layer1"
     transform="translate(0,-87)">
    <text
       xml:space="preserve"
       style="font-style:normal;font-weight:normal;font-size:10.58333302px;line-height:1.25;font-family:sans-serif;letter-spacing:0px;word-spacing:0px;fill:#000000;fill-opacity:1;stroke:none;stroke-width:0.26458332"
       x="83.60833"
       y="128.46042"
       id="text1388"><tspan
         sodipodi:role="line"
         id="tspan1386"
         x="83.60833"
         y="128.46042"
         style="stroke-width:0.26458332"> </tspan></text>
    <g
       id="g1676"
       transform="translate(-192.84126,81.634708)"
       inkscape:export-xdpi="200"
       inkscape:export-ydpi="200">
      <path
         style="font-style:normal;font-variant:normal;font-weight:normal;font-stretch:normal;font-size:31.20926094px;line-height:1.25;font-family:'Monicas Salon NF';-inkscape-font-specification:'Monicas Salon NF, Normal';font-variant-ligatures:normal;font-variant-caps:normal;font-variant-numeric:normal;font-feature-settings:normal;text-align:start;letter-spacing:0px;word-spacing:0px;writing-mode:lr-tb;text-anchor:start;fill:#ff0167;fill-opacity:1;stroke:#ff0167;stroke-width:6.61458349;stroke-linejoin:round;stroke-miterlimit:4;stroke-dasharray:none;stroke-opacity:0.78039216;filter:url(#filter2368)"
         d="m 384.81165,87.875397 c -1.56045,0 -2.89186,0.55144 -3.99458,1.65416 -1.10274,1.10273 -1.65417,2.44484 -1.65417,4.02611 v 17.727093 h 1.40457 v -7.11585 h 8.51989 v 7.11585 h 1.40457 V 93.555667 c 0,-1.53965 -0.56164,-2.87105 -1.68517,-3.99458 -1.12353,-1.12354 -2.45544,-1.68569 -3.99511,-1.68569 z m -134.28999,0.0625 c -0.76983,0 -1.43553,0.28108 -1.99729,0.84284 -0.56177,0.56177 -0.84285,1.23767 -0.84285,2.0283 v 17.696083 c 0,0.79064 0.27088,1.46653 0.81184,2.0283 0.56177,0.54096 1.23767,0.81132 2.0283,0.81132 h 5.68027 v -1.43557 h -5.68027 c -0.3329,0 -0.65529,-0.11427 -0.96738,-0.34313 -0.29129,-0.24968 -0.43667,-0.54095 -0.43667,-0.87385 v -4.43177 h 8.5199 v -1.43557 h -8.5199 V 90.590967 c 0,-0.3121 0.15558,-0.59317 0.46767,-0.84284 0.3121,-0.24968 0.62429,-0.37466 0.93638,-0.37466 h 5.68027 v -1.43557 z m 8.86354,0 v 20.567223 c 0,0.79064 0.27036,1.46653 0.81132,2.0283 0.56177,0.54096 1.23818,0.81132 2.02882,0.81132 h 7.11584 v -1.43557 h -7.11584 c -0.39532,0 -0.72843,-0.13518 -0.99891,-0.40566 -0.27048,-0.27048 -0.40566,-0.60307 -0.40566,-0.99839 V 87.937897 Z m 14.5433,0 c -0.76983,0 -1.43553,0.28108 -1.9973,0.84284 -0.56176,0.56177 -0.84232,1.23767 -0.84232,2.0283 v 17.696083 c 0,0.79064 0.27036,1.46653 0.81132,2.0283 0.56177,0.54096 1.23767,0.81132 2.0283,0.81132 h 5.68027 v -1.43557 h -5.68027 c -0.3329,0 -0.65529,-0.11427 -0.96738,-0.34313 -0.29129,-0.24968 -0.43667,-0.54095 -0.43667,-0.87385 v -4.43177 h 8.51989 v -1.43557 h -8.51989 V 90.590967 c 0,-0.3121 0.1561,-0.59317 0.46819,-0.84284 0.31209,-0.24968 0.62377,-0.37466 0.93586,-0.37466 h 5.68027 v -1.43557 z m 14.54381,0 c -1.53965,0 -2.87105,0.56164 -3.99458,1.68517 -1.12354,1.10273 -1.68569,2.43464 -1.68569,3.9951 v 12.046813 c 0,1.56046 0.55144,2.90206 1.65416,4.0256 1.12354,1.10272 2.46565,1.65416 4.02611,1.65416 1.56047,0 2.89187,-0.55144 3.99459,-1.65416 1.12353,-1.12354 1.68569,-2.46514 1.68569,-4.0256 h -1.43609 c 0,1.16515 -0.41574,2.17416 -1.24799,3.02721 -0.83224,0.83225 -1.83105,1.2485 -2.9962,1.2485 -1.16514,0 -2.16395,-0.41625 -2.9962,-1.2485 -0.83224,-0.83225 -1.2485,-1.84125 -1.2485,-3.02721 V 93.618167 c 0,-1.16514 0.41626,-2.16395 1.2485,-2.9962 0.83225,-0.83224 1.83106,-1.2485 2.9962,-1.2485 0.91548,0 1.67504,0.17702 2.27842,0.53072 0.60338,0.35371 1.04003,0.87402 1.31051,1.56063 0.27048,0.66579 0.4475,1.32078 0.53072,1.96577 0.10403,0.62418 0.15606,1.38375 0.15606,2.27841 0,0.27048 -0.0107,0.65562 -0.0315,1.15497 v 1.02991 h 1.43609 v -4.27571 c 0,-1.53966 -0.56215,-2.87157 -1.68569,-3.9951 -1.12353,-1.12353 -2.45493,-1.68517 -3.99458,-1.68517 z m 7.42539,0 v 1.40457 h 3.90106 v 22.002273 h 1.40456 V 89.342467 h 3.90105 v -1.40457 z m 10.97194,0 v 23.406843 h 1.40457 v -7.08432 h 3.37034 c 2.28867,0 3.43286,1.12327 3.43286,3.37033 v 3.71399 h 1.43609 v -4.08812 c 0,-1.43563 -0.6555,-2.68388 -1.96629,-3.74499 1.28998,-0.87386 1.93477,-2.04968 1.93477,-3.526923 v -6.39806 c 0,-1.53966 -0.56164,-2.86085 -1.68517,-3.96358 -1.10273,-1.12353 -2.42393,-1.68517 -3.96359,-1.68517 z m 32.99282,0 v 4.89996 c -0.95708,-1.51885 -2.17422,-2.70487 -3.65146,-3.55792 -1.47723,-0.87386 -3.08971,-1.31052 -4.83743,-1.31052 v 23.375323 h 1.40457 V 89.467007 c 2.05981,0.43693 3.75543,1.43574 5.08703,2.9962 1.3316,1.53965 1.99729,3.33934 1.99729,5.39915 v 13.482383 h 1.40457 V 87.937897 Z m 3.15381,0 v 23.406843 h 1.43557 V 87.937897 Z m 8.84959,0 c -1.53965,0 -2.87105,0.56164 -3.99459,1.68517 -1.12353,1.10273 -1.68516,2.43464 -1.68516,3.9951 v 12.046813 c 0,1.56046 0.55143,2.90206 1.65416,4.0256 1.12353,1.10272 2.46513,1.65416 4.02559,1.65416 1.56047,0 2.89238,-0.55144 3.99511,-1.65416 1.12353,-1.12354 1.68517,-2.46514 1.68517,-4.0256 h -1.43557 c 0,1.16515 -0.41626,2.17416 -1.24851,3.02721 -0.83224,0.83225 -1.83105,1.2485 -2.9962,1.2485 -1.16515,0 -2.16343,-0.41625 -2.99568,-1.2485 -0.83225,-0.83225 -1.2485,-1.84125 -1.2485,-3.02721 V 93.618167 c 0,-1.16514 0.41625,-2.16395 1.2485,-2.9962 0.83225,-0.83224 1.83053,-1.2485 2.99568,-1.2485 0.91548,0 1.67504,0.17702 2.27842,0.53072 0.60338,0.35371 1.04055,0.87402 1.31103,1.56063 0.27048,0.66579 0.44697,1.32078 0.5302,1.96577 0.10402,0.62418 0.15606,1.38375 0.15606,2.27841 0,0.27048 -0.0102,0.65562 -0.031,1.15497 v 1.02991 h 1.43557 v -4.27571 c 0,-1.53966 -0.56164,-2.87157 -1.68517,-3.9951 -1.12354,-1.12353 -2.45545,-1.68517 -3.99511,-1.68517 z m 16.81293,0 v 1.40457 h 3.90105 v 22.002273 h 1.40457 V 89.342467 h 3.90105 v -1.40457 z m 23.58977,0 v 20.567223 c 0,0.79064 0.27036,1.46653 0.81132,2.0283 0.56177,0.54096 1.23819,0.81132 2.02882,0.81132 h 7.11533 v -1.43557 h -7.11533 c -0.39532,0 -0.72843,-0.13518 -0.9989,-0.40566 -0.27049,-0.27048 -0.40567,-0.60307 -0.40567,-0.99839 V 87.937897 Z m 14.5433,0 c -0.76983,0 -1.43552,0.28108 -1.99729,0.84284 -0.56177,0.56177 -0.84284,1.23767 -0.84284,2.0283 v 17.696083 c 0,0.79064 0.27087,1.46653 0.81183,2.0283 0.56177,0.54096 1.23766,0.81132 2.0283,0.81132 h 5.68028 v -1.43557 h -5.68028 c -0.3329,0 -0.65529,-0.11427 -0.96738,-0.34313 -0.29129,-0.24968 -0.43718,-0.54095 -0.43718,-0.87385 v -4.43177 h 8.52041 v -1.43557 H 405.4073 V 90.590967 c 0,-0.3121 0.15609,-0.59317 0.46819,-0.84284 0.31209,-0.24968 0.62428,-0.37466 0.93637,-0.37466 h 5.68028 v -1.43557 z m 14.54382,0 c -1.53966,0 -2.87157,0.56164 -3.99511,1.68517 -1.12353,1.10273 -1.68517,2.42392 -1.68517,3.96358 v 6.741193 c 0,0.97789 0.38463,1.60228 1.15445,1.87275 l 6.67918,2.2469 c 0.47855,0.16644 0.88408,0.50975 1.21698,1.02991 0.3329,0.52016 0.4992,1.03027 0.4992,1.52962 0,0.83225 -0.25965,1.52906 -0.7798,2.09083 -0.52015,0.54096 -1.19657,0.81132 -2.02881,0.81132 h -6.7412 v 1.43557 h 7.0218 c 1.06112,0 1.98749,-0.43666 2.77812,-1.31052 0.79063,-0.89466 1.18546,-1.87255 1.18546,-2.93367 0,-1.95578 -1.15439,-3.39175 -3.46387,-4.30723 l -4.7439,-1.56011 c -0.89466,-0.31209 -1.34204,-0.67631 -1.34204,-1.09244 v -6.554123 c 0,-1.16515 0.41626,-2.16344 1.24851,-2.99568 0.83224,-0.83225 1.83105,-1.2485 2.9962,-1.2485 1.39401,0 2.45505,0.44736 3.18327,1.34203 0.72821,0.87385 1.09192,1.86195 1.09192,2.96468 v 5.9924 h 1.40456 v -6.05493 c 0,-1.53966 -0.56163,-2.86085 -1.68516,-3.96358 -1.12354,-1.12353 -2.45494,-1.68517 -3.99459,-1.68517 z m -97.4385,0.0315 c -1.53966,0 -2.87105,0.55092 -3.99459,1.65365 -1.10272,1.10273 -1.65416,2.43464 -1.65416,3.9951 v 12.046813 c 0,1.56046 0.55144,2.90206 1.65416,4.0256 1.12354,1.10272 2.46513,1.65416 4.0256,1.65416 1.53965,0 2.86085,-0.55144 3.96358,-1.65416 1.12353,-1.12354 1.68569,-2.46514 1.68569,-4.0256 V 93.618147 c 0,-1.53966 -0.56216,-2.86085 -1.68569,-3.96358 -1.12353,-1.12353 -2.45493,-1.68517 -3.99459,-1.68517 z m 60.89447,1.31052 c 1.14434,0 2.14315,0.42645 2.9962,1.2795 0.85306,0.83225 1.27951,1.83106 1.27951,2.9962 v 9.206683 h -8.51989 v -9.206683 c 0,-1.16514 0.41626,-2.16395 1.2485,-2.9962 0.83225,-0.85305 1.83054,-1.2795 2.99568,-1.2795 z m -76.53744,0.0625 h 2.55901 c 1.14435,0 2.13244,0.42645 2.96468,1.2795 0.85306,0.83225 1.27951,1.82034 1.27951,2.96468 v 6.39806 c 0,1.144343 -0.38462,1.914103 -1.15445,2.309423 -0.76983,0.37451 -1.80995,0.56172 -3.12074,0.56172 h -2.52801 z m 15.64297,0.031 c 1.16515,0 2.16396,0.42646 2.9962,1.27951 0.83225,0.83225 1.2485,1.82085 1.2485,2.96519 v 12.046813 c 0,1.16515 -0.41625,2.17416 -1.2485,3.02721 -0.81144,0.83225 -1.80005,1.2485 -2.96519,1.2485 -1.18596,0 -2.19496,-0.41625 -3.02721,-1.2485 -0.81144,-0.83225 -1.21698,-1.84125 -1.21698,-3.02721 V 93.618117 c 0,-1.16514 0.41626,-2.16395 1.24851,-2.9962 0.83224,-0.83224 1.82033,-1.2485 2.96467,-1.2485 z"
         id="path1447"
         inkscape:connector-curvature="0" />
      <path
         id="path1461"
         style="font-style:normal;font-variant:normal;font-weight:normal;font-stretch:normal;font-size:31.20926094px;line-height:1.25;font-family:'Monicas Salon NF';-inkscape-font-specification:'Monicas Salon NF, Normal';font-variant-ligatures:normal;font-variant-caps:normal;font-variant-numeric:normal;font-feature-settings:normal;text-align:start;letter-spacing:0px;word-spacing:0px;writing-mode:lr-tb;text-anchor:start;opacity:1;fill:#ff5599;fill-opacity:1;stroke:#ff5599;stroke-width:3.17499995;stroke-miterlimit:4;stroke-dasharray:none;stroke-opacity:1;filter:url(#filter2400)"
         d="m 384.81162,87.8754 c -1.56045,0 -2.89186,0.55144 -3.99458,1.65416 -4e-5,4e-5 -9e-5,9e-5 -1.3e-4,1.3e-4 -1.10265,1.10271 -1.65404,2.44477 -1.65404,4.02598 0,0 0,9e-5 0,2.7e-4 0,0.0458 0,17.72682 0,17.72682 0,0 6e-5,0 1.7e-4,0 0.0144,0 1.4044,0 1.4044,0 0,0 0,-7e-5 0,-2.2e-4 0,-0.0368 0,-7.11563 0,-7.11563 0,0 9e-5,0 2.6e-4,0 0.044,0 8.51963,0 8.51963,0 0,0 0,4e-5 0,1.1e-4 0,0.0184 0,7.11574 0,7.11574 0,0 3e-5,0 9e-5,0 0.007,0 1.40448,0 1.40448,0 0,0 0,-9e-5 0,-2.7e-4 0,-0.0458 0,-17.72682 0,-17.72682 0,-1.3e-4 0,-2.5e-4 0,-3.8e-4 -9e-5,-1.53949 -0.56173,-2.87076 -1.68517,-3.9942 -4e-5,-5e-5 -9e-5,-9e-5 -1.3e-4,-1.4e-4 -1.12351,-1.12345 -2.45537,-1.68555 -3.99498,-1.68555 0,0 0,0 0,0 m -44.76333,0.0208 c -6e-5,0 -1.2e-4,0 -1.8e-4,0 m -89.52666,0.0417 c -0.51329,0 -0.95715,0.18739 -1.33172,0.56189 -0.25645,9e-5 -0.47822,0.0938 -0.66539,0.28095 -0.37456,0.37456 -0.56199,0.8252 -0.56203,1.35234 -0.18717,0.18723 -0.28082,0.41248 -0.28082,0.67596 0,0 0,11.79748 0,11.79765 0,0.0459 0,5.89869 0,5.89882 9e-5,0.52692 0.18068,0.97739 0.54123,1.35181 9e-5,0.26363 0.0905,0.48902 0.27089,0.67636 0.37446,0.36047 0.82497,0.54062 1.35192,0.54062 0.18726,0.18032 0.41262,0.27044 0.67628,0.27044 0.0293,0 3.78667,0 3.78667,0 0,0 1.89342,0 1.89342,0 0,0 0,-0.95708 0,-0.95713 0,-0.007 0,-0.47844 0,-0.47844 0,0 -3.78687,0 -3.78693,0 -0.0147,0 -1.89334,0 -1.89334,0 -0.22204,0 -0.43707,-0.0762 -0.64524,-0.22875 -0.11085,-8e-5 -0.21821,-0.0382 -0.32214,-0.11438 -0.19424,-0.16649 -0.2912,-0.36071 -0.29125,-0.58269 -0.097,-0.0832 -0.14542,-0.18025 -0.14542,-0.29116 0,0 0,-2.9546 0,-2.95478 0,-0.0227 0,-1.47699 0,-1.47699 0,0 5.67998,0 5.68007,0 0.022,0 2.83983,0 2.83983,0 0,0 0,-0.95708 0,-0.95713 0,-0.007 0,-0.47844 0,-0.47844 0,0 -5.67997,0 -5.68006,0 -0.022,0 -2.83984,0 -2.83984,0 0,0 0,-8.15598 0,-8.15611 0,-0.0316 0,-4.07777 0,-4.07777 0,-0.20817 0.10372,-0.39565 0.31178,-0.5622 1e-4,-0.10391 0.052,-0.1975 0.15589,-0.28064 0.20812,-0.16649 0.4163,-0.24986 0.62441,-0.2499 0.10398,-0.0831 0.20799,-0.12476 0.31197,-0.12476 0,0 3.78688,0 3.78694,0 0.0147,0 1.89333,0 1.89333,0 0,0 0,-0.95708 0,-0.95713 0,-0.007 0,-0.47844 0,-0.47844 0,0 -3.78687,0 -3.78693,0 -0.0147,0 -1.89334,0 -1.89334,0 m 2.95452,0 m 5.90902,0 c 0,0 0,13.71158 0,13.71179 0,0.0531 0,6.85543 0,6.85543 0,0.52716 0.18024,0.97782 0.54088,1.35239 5e-5,0.26347 0.0902,0.4887 0.27044,0.67591 0.37456,0.36068 0.82555,0.54097 1.35269,0.54101 0.18723,0.18023 0.41265,0.27031 0.67613,0.27031 0,0 4.74393,0 4.744,0 0.0184,0 2.37184,0 2.37184,0 0,0 0,-0.95708 0,-0.95713 0,-0.007 0,-0.47844 0,-0.47844 0,0 -4.74393,0 -4.744,0 -0.0184,0 -2.37184,0 -2.37184,0 -0.26361,0 -0.48575,-0.0901 -0.66613,-0.27044 -0.13169,-4e-5 -0.24266,-0.0451 -0.33278,-0.13522 -0.18036,-0.18036 -0.27052,-0.40213 -0.27057,-0.66573 -0.0901,-0.0901 -0.13509,-0.20095 -0.13509,-0.33266 0,0 0,-13.71158 0,-13.71179 0,-0.0531 0,-6.85543 0,-6.85543 0,0 -0.95707,0 -0.95713,0 -0.007,0 -0.47844,0 -0.47844,0 m 4.84777,0 m 9.69553,0 c -0.51328,0 -0.95714,0.18739 -1.33172,0.56189 -0.25653,5e-5 -0.47837,0.0937 -0.66558,0.28095 -0.37455,0.37456 -0.56163,0.8252 -0.56168,1.35234 -0.18716,0.18723 -0.28064,0.41248 -0.28064,0.67596 0,0 0,11.79748 0,11.79765 0,0.0457 0,5.89843 0,5.89843 0,0.52716 0.18024,0.97782 0.54088,1.35239 5e-5,0.26347 0.0902,0.4887 0.27044,0.67591 0.37456,0.36068 0.82521,0.54097 1.35234,0.54101 0.18723,0.18023 0.41248,0.27031 0.67596,0.27031 0,0 3.78688,0 3.78694,0 0.0147,0 1.89333,0 1.89333,0 0,0 0,-0.95708 0,-0.95713 0,-0.007 0,-0.47844 0,-0.47844 0,0 -3.78687,0 -3.78693,0 -0.0147,0 -1.89334,0 -1.89334,0 -0.22204,0 -0.43707,-0.0762 -0.64524,-0.22875 -0.11085,-8e-5 -0.21821,-0.0382 -0.32214,-0.11438 -0.19424,-0.16649 -0.2912,-0.36071 -0.29125,-0.58269 -0.097,-0.0832 -0.14542,-0.18025 -0.14542,-0.29116 0,0 0,-2.9546 0,-2.95478 0,-0.0227 0,-1.47699 0,-1.47699 0,0 5.67997,0 5.68006,0 0.022,0 2.83983,0 2.83983,0 0,0 0,-0.95708 0,-0.95713 0,-0.007 0,-0.47844 0,-0.47844 0,0 -5.67997,0 -5.68005,0 -0.022,0 -2.83984,0 -2.83984,0 0,0 0,-8.15598 0,-8.15611 0,-0.0316 0,-4.07777 0,-4.07777 0,-0.20817 0.10407,-0.39565 0.31213,-0.5622 1e-4,-0.10391 0.0521,-0.1975 0.15606,-0.28064 0.20811,-0.16649 0.41595,-0.24986 0.62406,-0.2499 0.10398,-0.0831 0.20782,-0.12476 0.3118,-0.12476 0,0 3.78688,0 3.78694,0 0.0147,0 1.89333,0 1.89333,0 0,0 0,-0.95708 0,-0.95713 0,-0.007 0,-0.47844 0,-0.47844 0,0 -3.78687,0 -3.78693,0 -0.0147,0 -1.89334,0 -1.89334,0 m 4.84794,0 m 9.69587,0 c -1.02649,0 -1.91416,0.37443 -2.66324,1.12345 -0.51314,4e-5 -0.95687,0.18725 -1.33134,0.56172 -0.74907,0.7352 -1.12388,1.62318 -1.12393,2.66353 -0.37442,0.36755 -0.56176,0.81148 -0.56176,1.33157 0,0 0,8.03127 0,8.03139 0,0.0311 0,4.01542 0,4.01542 0,1.04037 0.36763,1.93483 1.10278,2.68392 4e-5,0.52008 0.18385,0.96721 0.55138,1.34168 0.74908,0.73519 1.64386,1.10286 2.68421,1.10291 0.37449,0.36748 0.82181,0.55125 1.3419,0.55125 1.04038,0 1.92804,-0.36763 2.66325,-1.10277 0.52008,-5e-5 0.96381,-0.18386 1.33134,-0.55139 0.74907,-0.74907 1.12389,-1.64352 1.12393,-2.68387 0.37442,-0.37449 0.56176,-0.82164 0.56176,-1.34173 0,0 -0.95742,0 -0.95748,0 -0.007,0 -0.47861,0 -0.47861,0 0,0.77686 -0.27716,1.44963 -0.83199,2.01842 -7e-5,0.38827 -0.13865,0.72451 -0.416,1.00879 -0.55489,0.5549 -1.22083,0.83247 -1.99767,0.83254 -0.27737,0.27728 -0.61024,0.41596 -0.99853,0.41596 -0.77685,0 -1.44282,-0.2775 -1.99775,-0.83233 -0.38826,-7e-5 -0.7211,-0.13882 -0.99845,-0.41617 -0.55489,-0.5549 -0.83247,-1.22764 -0.83253,-2.01834 -0.27728,-0.27738 -0.41597,-0.61365 -0.41597,-1.00887 0,0 0,-8.03127 0,-8.03139 0,-0.0311 0,-4.01542 0,-4.01542 0,-0.77686 0.27751,-1.44282 0.83234,-1.99775 6e-5,-0.38826 0.13882,-0.7211 0.41616,-0.99845 0.5549,-0.5549 1.22085,-0.83247 1.99767,-0.83254 0.27738,-0.27728 0.61025,-0.41596 0.99853,-0.41596 0.6104,0 1.11685,0.11801 1.51917,0.35381 0.30506,3e-5 0.55818,0.059 0.75925,0.17691 0.40231,0.23583 0.69345,0.58274 0.87382,1.04051 0.20105,0.1179 0.34656,0.2913 0.43669,0.52012 0.18035,0.44391 0.29838,0.88063 0.35388,1.31067 0.0901,0.22188 0.14911,0.44015 0.17684,0.6551 0.0694,0.41622 0.10408,0.9227 0.10409,1.51924 0.0346,0.20801 0.052,0.46109 0.052,0.75917 0,0.18041 -0.007,0.43726 -0.021,0.77024 0,0.0901 -0.004,0.21844 -0.0105,0.38473 0,0 0,0.68669 0,0.68685 0,0.0104 0,0.34306 0,0.34306 0,0 0.95743,0 0.95748,0 0.007,0 0.47861,0 0.47861,0 0,0 0,-2.85056 0,-2.85073 0,-0.0219 0,-1.42498 0,-1.42498 0,-1.0265 -0.37476,-1.91451 -1.12379,-2.66359 -5e-5,-0.51314 -0.18743,-0.95705 -0.5619,-1.33151 -0.74906,-0.74907 -1.63671,-1.12354 -2.66319,-1.12358 -0.37448,-0.37442 -0.81823,-0.56159 -1.33139,-0.56159 0,0 -3e-5,0 -3e-5,0 0,0 0,0 0,0 m 2.47513,0 m 4.95026,0 c 0,0 0,0.93641 0,0.93646 0,0.007 0,0.46811 0,0.46811 0,0 2.60079,0 2.60095,0 0.02,0 1.30011,0 1.30011,0 0,0 0,14.66829 0,14.66851 0,0.0568 0,7.33376 0,7.33376 0,0 0.93641,0 0.93646,0 0.007,0 0.4681,0 0.4681,0 0,0 0,-14.66829 0,-14.66851 0,-0.0569 0,-7.33376 0,-7.33376 0,0 2.60078,0 2.60094,0 0.02,0 1.30011,0 1.30011,0 0,0 0,-0.93641 0,-0.93647 0,-0.007 0,-0.4681 0,-0.4681 0,0 -6.13782,0 -6.13792,0 -0.0238,0 -3.06875,0 -3.06875,0 m 3.65732,0 m 7.31462,0 c 0,0 0,15.60459 0,15.60465 0,0.0304 0,7.80219 0,7.80219 0,0 0.93641,0 0.93647,0 0.007,0 0.4681,0 0.4681,0 0,0 0,-4.72292 0,-4.72299 0,-0.0183 0,-2.36133 0,-2.36133 0,0 2.24697,0 2.2471,0 0.0173,0 1.12324,0 1.12324,0 1.52588,0 2.28876,0.74885 2.28886,2.24689 0.7627,9e-5 1.144,0.37451 1.144,1.12344 0,0 0,2.47607 0,2.47622 0,0.019 0,1.23777 0,1.23777 0,0 0.95743,0 0.95748,0 0.007,0 0.47861,0 0.47861,0 0,0 0,-2.7255 0,-2.72566 0,-0.021 0,-1.36246 0,-1.36246 0,-0.95715 -0.437,-1.78937 -1.31086,-2.49684 -5e-5,-0.47846 -0.21855,-0.89449 -0.65543,-1.24815 0.86004,-0.58261 1.28995,-1.36652 1.29001,-2.35139 0.42989,-0.29127 0.64476,-0.68318 0.64476,-1.17553 0,0 0,-4.26541 0,-4.26547 0,-0.0165 0,-2.13259 0,-2.13259 0,-1.0265 -0.37442,-1.90736 -1.12344,-2.64258 -5e-5,-0.51314 -0.18726,-0.95347 -0.56173,-1.321 -0.73519,-0.74907 -1.61604,-1.12354 -2.64252,-1.12358 -0.36755,-0.37442 -0.80791,-0.56159 -1.32107,-0.56159 0,0 -2.64246,0 -2.64262,0 -0.0203,0 -1.32096,0 -1.32096,0 m 10.99761,0 m 21.99521,0 c 0,0 0,3.26674 0,3.26694 0,0.0251 0,1.63302 0,1.63302 -0.63809,-1.01263 -1.44955,-1.80337 -2.43442,-2.37213 -0.31901,-0.5062 -0.72468,-0.90148 -1.21704,-1.18579 -0.98488,-0.58261 -2.05992,-0.87375 -3.22513,-0.87379 -0.49236,-0.29121 -1.02979,-0.43673 -1.6123,-0.43673 0,0 0,15.58358 0,15.58363 0,0.0303 0,7.79169 0,7.79169 0,0 0.93641,0 0.93647,0 0.007,0 0.4681,0 0.4681,0 0,0 0,-14.58526 0,-14.58549 0,-0.0565 0,-7.29224 0,-7.29224 1.37329,0.2913 2.50379,0.95719 3.39161,1.99752 0.68649,0.14567 1.25161,0.47859 1.69542,0.99868 0.88779,1.02649 1.33164,2.22635 1.33169,3.59962 0.44376,0.51318 0.6656,1.11301 0.6656,1.79953 0,0 0,8.98832 0,8.98846 0,0.0348 0,4.49392 0,4.49392 0,0 0.93641,0 0.93647,0 0.007,0 0.4681,0 0.4681,0 0,0 0,-15.60459 0,-15.60465 0,-0.0304 0,-7.80219 0,-7.80219 0,0 -0.93641,0 -0.93646,0 -0.007,0 -0.46811,0 -0.46811,0 m 1.05127,0 m 2.10254,0 c 0,0 0,15.60459 0,15.60465 0,0.0304 0,7.80219 0,7.80219 0,0 0.95708,0 0.95714,0 0.007,0 0.47843,0 0.47843,0 0,0 0,-15.60459 0,-15.60465 0,-0.0304 0,-7.80219 0,-7.80219 0,0 -0.95707,0 -0.95713,0 -0.007,0 -0.47844,0 -0.47844,0 m 2.94987,0 m 5.89972,0 c -1.02649,0 -1.91416,0.37443 -2.66324,1.12345 -0.51314,4e-5 -0.95688,0.18725 -1.33135,0.56172 -0.74906,0.7352 -1.12353,1.62318 -1.12357,2.66353 -0.37442,0.36755 -0.56159,0.81148 -0.56159,1.33157 0,0 0,8.03127 0,8.03139 0,0.0311 0,4.01542 0,4.01542 0,1.04037 0.36762,1.93483 1.10278,2.68392 4e-5,0.52008 0.18385,0.96721 0.55138,1.34168 0.74907,0.73519 1.64351,1.10286 2.68387,1.10291 0.37448,0.36748 0.82163,0.55125 1.34172,0.55125 1.04038,0 1.92838,-0.36763 2.6636,-1.10277 0.52008,-5e-5 0.96398,-0.18386 1.33151,-0.55139 0.74907,-0.74907 1.12354,-1.64352 1.12359,-2.68387 0.37442,-0.37449 0.56158,-0.82164 0.56158,-1.34173 0,0 -0.95707,0 -0.95713,0 -0.007,0 -0.47844,0 -0.47844,0 0,0.77686 -0.2775,1.44963 -0.83234,2.01842 -6e-5,0.38827 -0.13882,0.72451 -0.41617,1.00879 -0.55489,0.5549 -1.22083,0.83247 -1.99767,0.83254 -0.27737,0.27728 -0.61024,0.41596 -0.99853,0.41596 -0.77686,0 -1.44247,-0.2775 -1.9974,-0.83233 -0.38826,-7e-5 -0.72093,-0.13882 -0.99828,-0.41617 -0.5549,-0.5549 -0.83247,-1.22764 -0.83253,-2.01834 -0.27728,-0.27738 -0.41597,-0.61365 -0.41597,-1.00887 0,0 0,-8.03127 0,-8.03139 0,-0.0311 0,-4.01542 0,-4.01542 0,-0.77686 0.2775,-1.44282 0.83234,-1.99775 6e-5,-0.38826 0.13881,-0.7211 0.41616,-0.99845 0.5549,-0.5549 1.22049,-0.83247 1.99733,-0.83254 0.27737,-0.27728 0.61006,-0.41596 0.99835,-0.41596 0.6104,0 1.11685,0.11801 1.51917,0.35381 0.30506,3e-5 0.55818,0.059 0.75925,0.17691 0.40231,0.23583 0.6938,0.58274 0.87417,1.04051 0.20105,0.1179 0.34673,0.2913 0.43686,0.52012 0.18035,0.44391 0.29803,0.88063 0.35354,1.31067 0.0901,0.22188 0.14893,0.44015 0.17666,0.6551 0.0694,0.41622 0.10408,0.9227 0.10409,1.51924 0.0346,0.20801 0.052,0.46109 0.052,0.75917 0,0.18041 -0.007,0.43726 -0.0207,0.77024 -1e-5,0.0901 -0.003,0.21844 -0.0103,0.38473 0,0 0,0.68669 0,0.68685 0,0.0104 0,0.34306 0,0.34306 0,0 0.95708,0 0.95714,0 0.007,0 0.47843,0 0.47843,0 0,0 0,-2.85056 0,-2.85073 0,-0.0219 0,-1.42498 0,-1.42498 0,-1.0265 -0.37442,-1.91451 -1.12344,-2.66359 -5e-5,-0.51314 -0.18726,-0.95705 -0.56173,-1.33151 -0.74907,-0.74907 -1.63705,-1.12354 -2.66354,-1.12358 -0.37449,-0.37442 -0.81841,-0.56159 -1.33157,-0.56159 0,0 0,0 0,0 m 5.60431,0 m 11.20862,0 c 0,0 0,0.93641 0,0.93646 0,0.007 0,0.46811 0,0.46811 0,0 2.60078,0 2.60094,0 0.02,0 1.30011,0 1.30011,0 0,0 0,14.66821 0,14.66826 0,0.0285 0,7.33401 0,7.33401 0,0 0.93641,0 0.93647,0 0.007,0 0.4681,0 0.4681,0 0,0 0,-14.66821 0,-14.66826 0,-0.0285 0,-7.33401 0,-7.33401 0,0 2.60078,0 2.60094,0 0.02,0 1.30011,0 1.30011,0 0,0 0,-0.93641 0,-0.93647 0,-0.007 0,-0.4681 0,-0.4681 0,0 -6.13782,0 -6.13792,0 -0.0238,0 -3.06875,0 -3.06875,0 m 7.86326,0 m 15.72651,0 c 0,0 0,13.71158 0,13.71179 0,0.0531 0,6.85543 0,6.85543 0,0.52716 0.18024,0.97782 0.54088,1.35239 5e-5,0.26347 0.0902,0.4887 0.27044,0.67591 0.37456,0.36068 0.82555,0.54097 1.35269,0.54101 0.18723,0.18023 0.41265,0.27031 0.67613,0.27031 0,0 4.74359,0 4.74366,0 0.0184,0 2.37167,0 2.37167,0 0,0 0,-0.95708 0,-0.95713 0,-0.007 0,-0.47844 0,-0.47844 0,0 -4.74359,0 -4.74366,0 -0.0184,0 -2.37167,0 -2.37167,0 -0.26361,0 -0.48575,-0.0901 -0.66612,-0.27044 -0.13169,-4e-5 -0.24266,-0.0451 -0.33278,-0.13522 -0.18037,-0.18036 -0.27053,-0.40213 -0.27058,-0.66573 -0.0901,-0.0901 -0.13509,-0.20095 -0.13509,-0.33266 0,0 0,-13.71158 0,-13.71179 0,-0.0531 0,-6.85543 0,-6.85543 0,0 -0.95707,0 -0.95713,0 -0.007,0 -0.47844,0 -0.47844,0 m 4.84777,0 m 9.69553,0 c -0.51328,0 -0.95714,0.18739 -1.33171,0.56189 -0.25653,5e-5 -0.47837,0.0937 -0.66558,0.28095 -0.37456,0.37456 -0.56198,0.8252 -0.56203,1.35234 -0.18716,0.18723 -0.28081,0.41248 -0.28081,0.67596 0,0 0,11.79748 0,11.79765 0,0.0457 0,5.89843 0,5.89843 0,0.52716 0.18058,0.97782 0.54122,1.35239 5e-5,0.26347 0.0903,0.4887 0.27061,0.67591 0.37456,0.36068 0.8252,0.54097 1.35234,0.54101 0.18723,0.18023 0.41248,0.27031 0.67596,0.27031 0,0 3.78689,0 3.78694,0 0.0147,0 1.89334,0 1.89334,0 0,0 0,-0.95708 0,-0.95713 0,-0.007 0,-0.47844 0,-0.47844 0,0 -3.78688,0 -3.78694,0 -0.0147,0 -1.89334,0 -1.89334,0 -0.22204,0 -0.43707,-0.0762 -0.64524,-0.22875 -0.11085,-8e-5 -0.21821,-0.0382 -0.32214,-0.11438 -0.19424,-0.16649 -0.29154,-0.36071 -0.29159,-0.58269 -0.097,-0.0832 -0.14559,-0.18025 -0.14559,-0.29116 0,0 0,-2.9546 0,-2.95478 0,-0.0227 0,-1.47699 0,-1.47699 0,0 5.68032,0 5.68041,0 0.022,0 2.84,0 2.84,0 0,0 0,-0.95708 0,-0.95713 0,-0.007 0,-0.47844 0,-0.47844 0,0 -5.68031,0 -5.6804,0 -0.022,0 -2.84001,0 -2.84001,0 0,0 0,-8.15598 0,-8.15611 0,-0.0316 0,-4.07777 0,-4.07777 0,-0.20817 0.10406,-0.39565 0.31213,-0.5622 10e-5,-0.10391 0.0521,-0.1975 0.15606,-0.28064 0.20811,-0.16649 0.41629,-0.24986 0.6244,-0.2499 0.10398,-0.0831 0.20799,-0.12476 0.31197,-0.12476 0,0 3.78689,0 3.78694,0 0.0147,0 1.89334,0 1.89334,0 0,0 0,-0.95708 0,-0.95713 0,-0.007 0,-0.47844 0,-0.47844 0,0 -3.78688,0 -3.78694,0 -0.0147,0 -1.89334,0 -1.89334,0 m 4.84794,0 m 9.69588,0 c -1.0265,0 -1.9145,0.37443 -2.66359,1.12345 -0.51314,4e-5 -0.95705,0.18725 -1.33152,0.56172 -0.74906,0.7352 -1.12353,1.61604 -1.12358,2.64252 -0.37442,0.36755 -0.56159,0.8079 -0.56159,1.32106 0,0 0,4.49416 0,4.49423 0,0.0174 0,2.24696 0,2.24696 0,0.65201 0.25642,1.06835 0.76964,1.24874 6e-5,0.32582 0.12827,0.53388 0.38481,0.62401 0,0 4.45282,1.49794 4.45289,1.49797 0.0173,0.006 2.22629,0.74893 2.22629,0.74893 0.31911,0.11099 0.58955,0.33989 0.81156,0.68669 0.15941,0.0555 0.29451,0.16992 0.40542,0.34322 0.22199,0.34686 0.33291,0.68702 0.33297,1.02 0.11085,0.1733 0.16623,0.34325 0.16623,0.50962 0,0.5549 -0.1731,1.01951 -0.51986,1.39409 -5e-5,0.27733 -0.0866,0.50953 -0.25994,0.69674 -0.34681,0.36068 -0.79779,0.54097 -1.35266,0.54101 -0.17337,0.18023 -0.3988,0.27031 -0.67615,0.27031 0,0 -4.49416,0 -4.49423,0 -0.0174,0 -2.24697,0 -2.24697,0 0,0 0,0.95708 0,0.95713 0,0.007 0,0.47844 0,0.47844 0,0 4.68124,0 4.68131,0 0.0181,0 2.34049,0 2.34049,0 0.7075,0 1.32517,-0.29111 1.85234,-0.87368 0.3536,-7e-5 0.6623,-0.14562 0.92578,-0.43684 0.52715,-0.59651 0.79044,-1.24851 0.7905,-1.956 0.26342,-0.29816 0.39496,-0.62405 0.39496,-0.97767 0,-1.30393 -0.76959,-2.26133 -2.30924,-2.87173 -10e-5,-0.6518 -0.38489,-1.13038 -1.15463,-1.4355 0,0 -3.16269,-1.04011 -3.16288,-1.04017 -0.0243,-0.008 -1.58102,-0.51994 -1.58102,-0.51994 -0.59651,-0.20809 -0.89484,-0.45092 -0.89491,-0.72837 -0.29807,-0.10401 -0.44713,-0.22539 -0.44713,-0.36407 0,0 0,-4.36945 0,-4.36951 0,-0.0169 0,-2.18461 0,-2.18461 0,-0.77686 0.27751,-1.44248 0.83234,-1.99741 7e-5,-0.38826 0.13882,-0.72093 0.41617,-0.99827 0.5549,-0.5549 1.22084,-0.83247 1.99767,-0.83254 0.27738,-0.27728 0.61024,-0.41596 0.99853,-0.41596 0.9294,0 1.63682,0.29824 2.12235,0.89469 0.46459,3e-5 0.81821,0.14915 1.06092,0.44734 0.48554,0.58264 0.72807,1.24144 0.72813,1.97667 0.24262,0.29123 0.36379,0.62052 0.36379,0.98801 0,0 0,3.99496 0,3.99502 0,0.0155 0,1.99738 0,1.99738 0,0 0.93641,0 0.93646,0 0.007,0 0.4681,0 0.4681,0 0,0 0,-4.03665 0,-4.03671 0,-0.0156 0,-2.01822 0,-2.01822 0,-1.0265 -0.37442,-1.90736 -1.12344,-2.64258 -4e-5,-0.51314 -0.18725,-0.95347 -0.56172,-1.321 -0.74907,-0.74907 -1.63671,-1.12354 -2.66319,-1.12358 -0.37449,-0.37442 -0.81824,-0.56159 -1.3314,-0.56159 0,0 0,0 0,0 m -32.4795,0.0105 c -6e-5,0 -1.2e-4,0 -1.8e-4,0 m -64.959,0.021 c -1.02651,0 -1.91416,0.36728 -2.66325,1.10243 -0.51306,9e-5 -0.95673,0.18373 -1.33116,0.55122 -0.73519,0.7352 -1.10286,1.62318 -1.1029,2.66353 -0.36749,0.36755 -0.55126,0.81148 -0.55126,1.33157 0,0 0,8.03127 0,8.03139 0,0.0311 0,4.01542 0,4.01542 0,1.04037 0.36763,1.93483 1.10278,2.68392 4e-5,0.52008 0.18385,0.96721 0.55138,1.34168 0.74908,0.73519 1.64351,1.10286 2.68387,1.10291 0.37449,0.36748 0.82164,0.55125 1.34173,0.55125 1.0265,0 1.90736,-0.36763 2.64258,-1.10277 0.51313,-5e-5 0.95347,-0.18386 1.321,-0.55139 0.74907,-0.74907 1.12389,-1.64352 1.12393,-2.68387 0.37442,-0.37449 0.56176,-0.82164 0.56176,-1.34173 0,0 0,-8.03127 0,-8.03139 0,-0.0311 0,-4.01542 0,-4.01542 0,-1.0265 -0.37477,-1.90736 -1.12379,-2.64258 -5e-5,-0.51314 -0.18743,-0.95347 -0.5619,-1.321 -0.74906,-0.74907 -1.63671,-1.12354 -2.66319,-1.12358 -0.37449,-0.37442 -0.81824,-0.56159 -1.3314,-0.56159 0,0 0,0 0,0 m 20.29816,0.43684 m 40.59631,0.87368 c 0.76299,0 1.42896,0.2843 1.99775,0.853 0.38133,7e-5 0.71417,0.14222 0.99845,0.4265 0.56878,0.5549 0.85315,1.22084 0.85322,1.99767 0.28421,0.27737 0.42629,0.61024 0.42629,0.99853 0,0 0,6.13783 0,6.13793 0,0.0238 0,3.06875 0,3.06875 0,0 -5.67997,0 -5.68005,0 -0.022,0 -2.83984,0 -2.83984,0 0,0 0,-6.13783 0,-6.13793 0,-0.0238 0,-3.06875 0,-3.06875 0,-0.77686 0.27751,-1.44282 0.83234,-1.99775 6e-5,-0.38826 0.13882,-0.7211 0.41616,-0.99845 0.5549,-0.56877 1.2205,-0.85314 1.99733,-0.85321 0.27737,-0.28421 0.61007,-0.42629 0.99835,-0.42629 0,0 0,0 0,0 m -25.51248,0.0208 m -51.02496,0.0417 c 0,0 1.70606,0 1.70617,0 0.0131,0 0.85284,0 0.85284,0 0.763,0 1.42182,0.2843 1.97674,0.853 0.38133,7e-5 0.7106,0.14222 0.98794,0.4265 0.56878,0.5549 0.85315,1.21369 0.85322,1.97666 0.28421,0.27737 0.42629,0.60667 0.42629,0.98802 0,0 0,4.2654 0,4.26547 0,0.0165 0,2.13259 0,2.13259 0,0.76299 -0.25641,1.27625 -0.76963,1.53989 -6e-5,0.3813 -0.12827,0.63779 -0.38482,0.76953 -0.51328,0.2497 -1.20676,0.37454 -2.08068,0.37457 -0.25659,0.12478 -0.60323,0.18715 -1.04006,0.18715 0,0 -1.68539,0 -1.68549,0 -0.013,0 -0.84252,0 -0.84252,0 0,0 0,-9.00899 0,-9.00913 0,-0.0349 0,-4.50425 0,-4.50425 m 5.21433,0.0103 m 10.42864,0.0207 c 0.77686,0 1.44283,0.28431 1.99775,0.85301 0.38827,7e-5 0.72111,0.14222 0.99845,0.4265 0.5549,0.5549 0.83247,1.21403 0.83254,1.977 0.27728,0.27737 0.41596,0.60684 0.41596,0.98819 0,0 0,8.03127 0,8.03139 0,0.0311 0,4.01542 0,4.01542 0,0.77686 -0.2775,1.44963 -0.83233,2.01842 -7e-5,0.38827 -0.13882,0.72451 -0.41617,1.00879 -0.54102,0.5549 -1.20016,0.83247 -1.97699,0.83254 -0.27044,0.27728 -0.59991,0.41596 -0.9882,0.41596 -0.79073,0 -1.4635,-0.2775 -2.01843,-0.83233 -0.39519,-7e-5 -0.73143,-0.13882 -1.00878,-0.41617 -0.54102,-0.5549 -0.81145,-1.22764 -0.81151,-2.01834 -0.27035,-0.27738 -0.40547,-0.61365 -0.40547,-1.00887 0,0 0,-8.03127 0,-8.03139 0,-0.0313 0,-4.0158 0,-4.01599 1.4e-4,-0.77652 0.27765,-1.4422 0.83234,-1.9969 1.4e-4,-0.38851 0.13903,-0.72159 0.41658,-0.99914 0.55474,-0.55455 1.21333,-0.83192 1.97604,-0.83192 0.27741,-0.27742 0.60678,-0.41617 0.98822,-0.41617 0,0 0,0 0,0"
         inkscape:connector-curvature="0" />
      <path
         id="path1459"
         style="font-style:normal;font-variant:normal;font-weight:normal;font-stretch:normal;font-size:31.20926094px;line-height:1.25;font-family:'Monicas Salon NF';-inkscape-font-specification:'Monicas Salon NF, Normal';font-variant-ligatures:normal;font-variant-caps:normal;font-variant-numeric:normal;font-feature-settings:normal;text-align:start;letter-spacing:0px;word-spacing:0px;writing-mode:lr-tb;text-anchor:start;opacity:1;fill:#ffaacc;fill-opacity:1;stroke:#ffaacc;stroke-width:0;stroke-miterlimit:4;stroke-dasharray:none;stroke-opacity:1;filter:url(#filter2056)"
         d="m 384.81166,87.875399 c -1.56045,0 -2.89186,0.55144 -3.99458,1.65416 -9e-5,9e-5 -1.8e-4,1.8e-4 -2.7e-4,2.7e-4 -1.10256,1.10268 -1.6539,2.4447 -1.6539,4.02584 0,0 0,1.8e-4 0,5.4e-4 0,0.0916 0,17.726551 0,17.726551 0,0 3e-5,0 8e-5,0 0.007,0 1.40449,0 1.40449,0 0,0 0,-4e-5 0,-1.1e-4 0,-0.0184 0,-7.11574 0,-7.11574 0,0 4e-5,0 1.3e-4,0 0.022,0 8.51976,0 8.51976,0 0,0 0,7e-5 0,2.2e-4 0,0.0368 0,7.11563 0,7.11563 0,0 5e-5,0 1.7e-4,0 0.0144,0 1.4044,0 1.4044,0 0,0 0,-1.8e-4 0,-5.4e-4 0,-0.0916 0,-17.726551 0,-17.726551 0,-6e-5 0,-1.3e-4 0,-1.9e-4 -5e-5,-1.53957 -0.56169,-2.87091 -1.68517,-3.99439 -9e-5,-9e-5 -1.9e-4,-1.8e-4 -2.8e-4,-2.8e-4 -1.12347,-1.12335 -2.45529,-1.68541 -3.99483,-1.68541 0,0 0,0 0,0 m -89.52666,0.0417 c -1.3e-4,0 -2.5e-4,0 -3.8e-4,0 m -44.76333,0.0208 c -0.25673,0 -0.47876,0.0937 -0.66614,0.28094 -0.5129,1.9e-4 -0.95645,0.18757 -1.33077,0.5619 -0.18735,0.18735 -0.28114,0.41274 -0.28123,0.67637 -0.37433,0.37446 -0.56162,0.82497 -0.56162,1.35193 0,0 0,5.89887 0,5.89923 0,0.0915 0,11.796981 0,11.797041 4e-5,0.26347 0.0903,0.4887 0.27061,0.67591 5e-5,0.52714 0.18068,0.97777 0.54136,1.35233 0.18723,0.18023 0.41249,0.27031 0.67597,0.27031 0.37451,0.36064 0.82514,0.54088 1.35228,0.54088 0.0147,0 1.89334,0 1.89334,0 0,0 3.78685,0 3.78685,0 0,0 0,-0.47858 0,-0.4787 0,-0.0147 0,-0.95687 0,-0.95687 0,0 -1.89348,0 -1.8936,0 -0.0293,0 -3.78667,0 -3.78667,0 -0.11119,0 -0.21887,-0.0381 -0.32311,-0.11438 -0.22171,-1.5e-4 -0.43642,-0.0763 -0.64427,-0.22875 -0.0972,-0.0833 -0.14575,-0.18048 -0.14584,-0.29153 -0.19401,-0.1664 -0.29083,-0.3605 -0.29083,-0.58232 0,0 0,-1.47744 0,-1.47779 0,-0.0455 0,-2.95398 0,-2.95398 0,0 2.84005,0 2.84022,0 0.044,0 5.67968,0 5.67968,0 0,0 0,-0.47858 0,-0.4787 0,-0.0147 0,-0.95687 0,-0.95687 0,0 -2.84006,0 -2.84023,0 -0.044,0 -5.67967,0 -5.67967,0 0,0 0,-4.078082 0,-4.078332 0,-0.0632 0,-8.15555 0,-8.15555 0,-0.10424 0.0519,-0.19813 0.15589,-0.28156 2e-4,-0.20782 0.10392,-0.395 0.31178,-0.56128 0.10413,-0.0833 0.2083,-0.12505 0.31243,-0.12513 0.20796,-0.16629 0.41599,-0.249529 0.62395,-0.249529 0,0 1.89348,0 1.89359,0 0.0294,0 3.78668,0 3.78668,0 0,0 0,-0.47858 0,-0.478701 0,-0.0147 0,-0.956869 0,-0.956869 0,0 -1.89348,0 -1.8936,0 -0.0293,0 -3.78667,0 -3.78667,0 m 5.90902,0 m 2.95452,0 c 0,0 0,6.855949 0,6.856359 0,0.10629 0,13.710862 0,13.710862 0,0.26368 0.0901,0.4891 0.27044,0.67649 8e-5,0.52692 0.18032,0.97739 0.54088,1.35181 0.18734,0.18041 0.41291,0.27062 0.67654,0.2707 0.37446,0.36047 0.82531,0.54062 1.35228,0.54062 0,0 2.37202,0 2.37216,0 0.0368,0 4.74368,0 4.74368,0 0,0 0,-0.47858 0,-0.4787 0,-0.0147 0,-0.95687 0,-0.95687 0,0 -2.37202,0 -2.37217,0 -0.0368,0 -4.74367,0 -4.74367,0 -0.13191,0 -0.24307,-0.0451 -0.33336,-0.13522 -0.26338,-9e-5 -0.48532,-0.0902 -0.66555,-0.27044 -0.0902,-0.0902 -0.1354,-0.2012 -0.13549,-0.33306 -0.18014,-0.18027 -0.27017,-0.40191 -0.27017,-0.66533 0,0 0,-6.85595 0,-6.85637 0,-0.10628 0,-13.710852 0,-13.710852 0,0 -0.47859,0 -0.4787,0 -0.0147,0 -0.95687,0 -0.95687,0 m 9.69553,0 m 4.84777,0 c -0.25674,0 -0.47876,0.0937 -0.66615,0.28094 -0.51306,10e-5 -0.95673,0.18748 -1.33115,0.5619 -0.18735,0.18735 -0.28096,0.41274 -0.28105,0.67637 -0.37432,0.37446 -0.56127,0.82497 -0.56127,1.35193 0,0 0,5.89887 0,5.89923 0,0.0915 0,11.796852 0,11.796852 0,0.26368 0.0901,0.4891 0.27044,0.67649 8e-5,0.52692 0.18032,0.97739 0.54088,1.35181 0.18734,0.18041 0.41274,0.27062 0.67637,0.2707 0.37446,0.36047 0.82497,0.54062 1.35193,0.54062 0,0 1.89348,0 1.89359,0 0.0294,0 3.78668,0 3.78668,0 0,0 0,-0.47858 0,-0.4787 0,-0.0147 0,-0.95687 0,-0.95687 0,0 -1.89348,0 -1.8936,0 -0.0294,0 -3.78667,0 -3.78667,0 -0.11119,0 -0.21887,-0.0381 -0.32311,-0.11438 -0.22171,-1.5e-4 -0.43642,-0.0763 -0.64427,-0.22875 -0.0972,-0.0833 -0.14575,-0.18048 -0.14584,-0.29153 -0.19401,-0.1664 -0.29083,-0.3605 -0.29083,-0.58232 0,0 0,-1.47744 0,-1.47779 0,-0.0455 0,-2.95398 0,-2.95398 0,0 2.84005,0 2.84022,0 0.044,0 5.67967,0 5.67967,0 0,0 0,-0.47858 0,-0.4787 0,-0.0147 0,-0.95687 0,-0.95687 0,0 -2.84005,0 -2.84023,0 -0.044,0 -5.67966,0 -5.67966,0 0,0 0,-4.078082 0,-4.078332 0,-0.0632 0,-8.15555 0,-8.15555 0,-0.10424 0.052,-0.19813 0.15606,-0.28156 2e-4,-0.20782 0.10427,-0.395 0.31213,-0.56128 0.10413,-0.0833 0.20812,-0.12505 0.31225,-0.12513 0.20796,-0.16629 0.41565,-0.24953 0.62361,-0.24953 0,0 1.89348,0 1.89359,0 0.0294,0 3.78668,0 3.78668,0 0,0 0,-0.47858 0,-0.4787 0,-0.0147 0,-0.95687 0,-0.95687 0,0 -1.89348,0 -1.8936,0 -0.0294,0 -3.78667,0 -3.78667,0 m 9.69587,0 m 4.84794,0 c -0.51335,0 -0.95727,0.18721 -1.33191,0.56172 -1.02627,9e-5 -1.91374,0.37452 -2.66267,1.12345 -0.37461,0.36766 -0.56208,0.81172 -0.56217,1.33197 -0.74885,0.7351 -1.12352,1.62295 -1.12352,2.66313 0,0 0,4.01572 0,4.01597 0,0.0623 0,8.030842 0,8.030842 0,0.52028 0.18381,0.96761 0.55138,1.34225 9e-5,1.04014 0.36772,1.93441 1.10278,2.68335 0.3746,0.36766 0.82206,0.55157 1.34231,0.55166 0.74897,0.73496 1.64362,1.1025 2.6838,1.1025 0.52028,0 0.96421,-0.18381 1.33191,-0.55139 1.04015,-9e-5 1.92762,-0.36771 2.66268,-1.10277 0.3746,-0.3746 0.56208,-0.8219 0.56217,-1.34214 0.74883,-0.74897 1.12352,-1.64328 1.12352,-2.68346 0,0 -0.47876,0 -0.47887,0 -0.0147,0 -0.95722,0 -0.95722,0 0,0.38857 -0.13858,0.7251 -0.416,1.00964 -1.4e-4,0.77653 -0.2773,1.44901 -0.83199,2.01757 -0.27755,0.27755 -0.61062,0.41644 -0.99914,0.41657 -0.55475,0.55457 -1.22049,0.83193 -1.99706,0.83193 -0.38857,0 -0.7217,-0.13875 -0.99931,-0.41617 -0.77651,-1.3e-4 -1.4422,-0.27763 -1.99689,-0.83233 -0.27755,-0.27755 -0.41644,-0.61402 -0.41658,-1.00948 -0.55455,-0.55475 -0.83192,-1.22728 -0.83192,-2.01773 0,0 0,-4.01573 0,-4.01597 0,-0.0623 0,-8.030842 0,-8.030842 0,-0.38857 0.13875,-0.7217 0.41616,-0.9993 1.4e-4,-0.77652 0.27765,-1.4422 0.83234,-1.9969 0.27755,-0.27755 0.61062,-0.41644 0.99914,-0.41657 0.55475,-0.55456 1.22049,-0.83193 1.99706,-0.83193 0.30531,0 0.55864,0.059 0.75992,0.1769 0.61012,6e-5 1.11634,0.11808 1.5185,0.35382 0.20122,0.11796 0.34687,0.29145 0.43713,0.52038 0.4021,0.2358 0.6931,0.58262 0.87338,1.04025 0.0902,0.22204 0.14925,0.44047 0.17704,0.65558 0.18024,0.44375 0.29821,0.8803 0.35368,1.31019 0.0347,0.20826 0.0521,0.46165 0.0521,0.76008 0.0693,0.416 0.10394,0.92218 0.10394,1.51833 0,0.0903 -0.004,0.21889 -0.0105,0.38552 -2e-5,0.18029 -0.007,0.43687 -0.021,0.76945 0,0 0,0.34347 0,0.3438 0,0.0208 0,0.68611 0,0.68611 0,0 0.47875,0 0.47887,0 0.0147,0 0.95722,0 0.95722,0 0,0 0,-1.42541 0,-1.42576 0,-0.0438 0,-2.84995 0,-2.84995 0,-0.51335 -0.18739,-0.95744 -0.5619,-1.33208 -9e-5,-1.02628 -0.37486,-1.91409 -1.12379,-2.66302 -0.3746,-0.3746 -0.8185,-0.56191 -1.3318,-0.562 -0.74897,-0.74884 -1.63648,-1.12317 -2.66278,-1.12317 0,0 -3e-5,0 -3e-5,0 0,0 0,0 0,0 m 4.95026,0 m 2.47513,0 c 0,0 0,0.46825 0,0.46836 0,0.0144 0,0.93621 0,0.93621 0,0 1.30051,0 1.30082,0 0.04,0 2.60024,0 2.60024,0 0,0 0,7.33431 0,7.33476 0,0.1137 0,14.667512 0,14.667512 0,0 0.46824,0 0.46835,0 0.0144,0 0.93621,0 0.93621,0 0,0 0,-7.33431 0,-7.33476 0,-0.1137 0,-14.667512 0,-14.667512 0,0 1.30051,0 1.30082,0 0.04,0 2.60023,0 2.60023,0 0,0 0,-0.46825 0,-0.46836 0,-0.0144 0,-0.93621 0,-0.93621 0,0 -3.06899,0 -3.06917,0 -0.0476,0 -6.1375,0 -6.1375,0 m 7.31462,0 m 3.65732,0 c 0,0 0,7.80234 0,7.80246 0,0.0607 0,15.604382 0,15.604382 0,0 0.46824,0 0.46836,0 0.0144,0 0.93621,0 0.93621,0 0,0 0,-2.36151 0,-2.36166 0,-0.0366 0,-4.72266 0,-4.72266 0,0 1.12358,0 1.12385,0 0.0346,0 2.24649,0 2.24649,0 0.76307,0 1.14466,0.37442 1.14484,1.12344 1.52541,1.9e-4 2.28802,0.74903 2.28802,2.24689 0,0 0,1.23815 0,1.23845 0,0.0381 0,2.47554 0,2.47554 0,0 0.47875,0 0.47887,0 0.0147,0 0.95722,0 0.95722,0 0,0 0,-1.36287 0,-1.3632 0,-0.0419 0,-2.72492 0,-2.72492 0,-0.47866 -0.2185,-0.89486 -0.65543,-1.24868 -1.1e-4,-0.95694 -0.43711,-1.78899 -1.31086,-2.49631 0.43009,-0.29136 0.64513,-0.68337 0.64523,-1.17585 0.85978,-0.58255 1.28954,-1.36636 1.28954,-2.351072 0,0 0,-2.13275 0,-2.13288 0,-0.0331 0,-4.26518 0,-4.26518 0,-0.51335 -0.18722,-0.95387 -0.56173,-1.32157 -9e-5,-1.02628 -0.37451,-1.90695 -1.12344,-2.64201 -0.36767,-0.3746 -0.80816,-0.56191 -1.32147,-0.562 -0.7351,-0.74884 -1.61581,-1.12317 -2.64212,-1.12317 0,0 -1.32136,0 -1.32168,0 -0.0406,0 -2.6419,0 -2.6419,0 m 21.99521,0 m 10.99761,0 c 0,0 0,1.63352 0,1.63391 0,0.0503 0,3.26605 0,3.26605 -0.31911,-0.50641 -0.7249,-0.90187 -1.21739,-1.18635 -0.63802,-1.01239 -1.44937,-1.80294 -2.43407,-2.37157 -0.49253,-0.29136 -1.03015,-0.43698 -1.61284,-0.43706 -0.98472,-0.58243 -2.05959,-0.87346 -3.22459,-0.87346 0,0 0,7.79183 0,7.79195 0,0.0606 0,15.583372 0,15.583372 0,0 0.46824,0 0.46836,0 0.0144,0 0.93621,0 0.93621,0 0,0 0,-7.2928 0,-7.29324 0,-0.11306 0,-14.584492 0,-14.584492 0.68677,0.14568 1.25214,0.47865 1.69618,0.99884 1.37298,0.29134 2.50322,0.95718 3.39085,1.99736 0.44397,0.51334 0.66598,1.11336 0.66609,1.80009 0.88751,1.02635 1.3312,2.22602 1.3312,3.59906 0,0 0,4.494262 0,4.494542 0,0.0697 0,8.98784 0,8.98784 0,0 0.46824,0 0.46836,0 0.0144,0 0.93621,0 0.93621,0 0,0 0,-7.80234 0,-7.80246 0,-0.0607 0,-15.604382 0,-15.604382 0,0 -0.46825,0 -0.46836,0 -0.0144,0 -0.93621,0 -0.93621,0 m 2.10254,0 m 1.05127,0 c 0,0 0,7.80234 0,7.80246 0,0.0607 0,15.604382 0,15.604382 0,0 0.47858,0 0.47869,0 0.0147,0 0.95688,0 0.95688,0 0,0 0,-7.80234 0,-7.80246 0,-0.0607 0,-15.604382 0,-15.604382 0,0 -0.47859,0 -0.4787,0 -0.0147,0 -0.95687,0 -0.95687,0 m 5.89972,0 m 2.94987,0 c -0.51335,0 -0.95727,0.18721 -1.33191,0.56172 -1.02627,9e-5 -1.91375,0.37452 -2.66268,1.12345 -0.3746,0.36766 -0.56191,0.81172 -0.562,1.33197 -0.74883,0.7351 -1.12316,1.62295 -1.12316,2.66313 0,0 0,4.01572 0,4.01597 0,0.0623 0,8.030842 0,8.030842 0,0.52028 0.18381,0.96761 0.55138,1.34225 9e-5,1.04014 0.36771,1.93441 1.10278,2.68335 0.3746,0.36766 0.82189,0.55157 1.34213,0.55166 0.74897,0.73496 1.64328,1.1025 2.68346,1.1025 0.52028,0 0.96438,-0.18381 1.33208,-0.55139 1.04015,-9e-5 1.92796,-0.36771 2.66303,-1.10277 0.3746,-0.3746 0.5619,-0.8219 0.56199,-1.34214 0.74884,-0.74897 1.12318,-1.64328 1.12318,-2.68346 0,0 -0.47859,0 -0.4787,0 -0.0147,0 -0.95687,0 -0.95687,0 0,0.38857 -0.13876,0.7251 -0.41617,1.00964 -1.4e-4,0.77653 -0.27765,1.44901 -0.83234,2.01757 -0.27755,0.27755 -0.61062,0.41644 -0.99914,0.41657 -0.55475,0.55457 -1.22049,0.83193 -1.99706,0.83193 -0.38858,0 -0.72153,-0.13875 -0.99913,-0.41617 -0.77652,-1.3e-4 -1.44186,-0.27763 -1.99655,-0.83233 -0.27756,-0.27755 -0.41644,-0.61402 -0.41658,-1.00948 -0.55456,-0.55475 -0.83192,-1.22728 -0.83192,-2.01773 0,0 0,-4.01573 0,-4.01597 0,-0.0623 0,-8.030842 0,-8.030842 0,-0.38857 0.13875,-0.7217 0.41616,-0.9993 1.4e-4,-0.77652 0.27764,-1.4422 0.83234,-1.9969 0.27755,-0.27755 0.61044,-0.41644 0.99896,-0.41657 0.55475,-0.55456 1.22014,-0.83193 1.99672,-0.83193 0.30531,0 0.55864,0.059 0.75992,0.1769 0.61012,6e-5 1.11634,0.11808 1.5185,0.35382 0.20122,0.11796 0.34704,0.29145 0.4373,0.52038 0.4021,0.2358 0.69345,0.58262 0.87373,1.04025 0.0902,0.22204 0.14907,0.44047 0.17686,0.65558 0.18025,0.44375 0.29786,0.8803 0.35334,1.31019 0.0347,0.20826 0.0521,0.46165 0.0521,0.76008 0.0693,0.416 0.10394,0.92218 0.10394,1.51833 0,0.0903 -0.003,0.21889 -0.0103,0.38552 -10e-6,0.18029 -0.007,0.43687 -0.0207,0.76945 0,0 0,0.34347 0,0.3438 0,0.0208 0,0.68611 0,0.68611 0,0 0.47858,0 0.47869,0 0.0147,0 0.95688,0 0.95688,0 0,0 0,-1.42541 0,-1.42576 0,-0.0438 0,-2.84995 0,-2.84995 0,-0.51335 -0.18722,-0.95744 -0.56173,-1.33208 -9e-5,-1.02628 -0.37451,-1.91409 -1.12344,-2.66302 -0.37461,-0.3746 -0.81867,-0.56191 -1.33198,-0.562 -0.74897,-0.74884 -1.63682,-1.12317 -2.66313,-1.12317 0,0 0,0 0,0 m 11.20862,0 m 5.60431,0 c 0,0 0,0.46825 0,0.46836 0,0.0144 0,0.93621 0,0.93621 0,0 1.30051,0 1.30082,0 0.04,0 2.60023,0 2.60023,0 0,0 0,7.33414 0,7.33426 0,0.0571 0,14.668012 0,14.668012 0,0 0.46824,0 0.46836,0 0.0144,0 0.93621,0 0.93621,0 0,0 0,-7.33415 0,-7.33426 0,-0.0571 0,-14.668012 0,-14.668012 0,0 1.30051,0 1.30082,0 0.04,0 2.60023,0 2.60023,0 0,0 0,-0.46825 0,-0.46836 0,-0.0144 0,-0.93621 0,-0.93621 0,0 -3.06899,0 -3.06917,0 -0.0476,0 -6.1375,0 -6.1375,0 m 15.72651,0 m 7.86326,0 c 0,0 0,6.85595 0,6.85636 0,0.10629 0,13.710862 0,13.710862 0,0.26368 0.0901,0.4891 0.27044,0.67649 8e-5,0.52692 0.18032,0.97739 0.54088,1.35181 0.18734,0.18041 0.41291,0.27062 0.67654,0.2707 0.37446,0.36047 0.82532,0.54062 1.35228,0.54062 0,0 2.37185,0 2.37199,0 0.0368,0 4.74334,0 4.74334,0 0,0 0,-0.47858 0,-0.4787 0,-0.0147 0,-0.95687 0,-0.95687 0,0 -2.37185,0 -2.372,0 -0.0368,0 -4.74333,0 -4.74333,0 -0.13191,0 -0.24307,-0.0451 -0.33336,-0.13522 -0.26337,-9e-5 -0.48532,-0.0902 -0.66554,-0.27044 -0.0903,-0.0902 -0.1354,-0.2012 -0.13549,-0.33306 -0.18015,-0.18027 -0.27018,-0.40191 -0.27018,-0.66533 0,0 0,-6.85595 0,-6.85637 0,-0.10628 0,-13.710852 0,-13.710852 0,0 -0.47859,0 -0.4787,0 -0.0147,0 -0.95687,0 -0.95687,0 m 9.69553,0 m 4.84777,0 c -0.25674,0 -0.47876,0.0937 -0.66614,0.28094 -0.51306,10e-5 -0.95673,0.18748 -1.33115,0.5619 -0.18735,0.18735 -0.28113,0.41274 -0.28122,0.67637 -0.37433,0.37446 -0.56162,0.82497 -0.56162,1.35193 0,0 0,5.89887 0,5.89923 0,0.0915 0,11.796852 0,11.796852 0,0.26368 0.0903,0.4891 0.27061,0.67649 8e-5,0.52692 0.18066,0.97739 0.54122,1.35181 0.18734,0.18041 0.41273,0.27062 0.67637,0.2707 0.37446,0.36047 0.82496,0.54062 1.35193,0.54062 0,0 1.89348,0 1.8936,0 0.0293,0 3.78668,0 3.78668,0 0,0 0,-0.47858 0,-0.4787 0,-0.0147 0,-0.95687 0,-0.95687 0,0 -1.89349,0 -1.8936,0 -0.0294,0 -3.78668,0 -3.78668,0 -0.11119,0 -0.21887,-0.0381 -0.32311,-0.11438 -0.22171,-1.5e-4 -0.43642,-0.0763 -0.64427,-0.22875 -0.0972,-0.0833 -0.14592,-0.18048 -0.14601,-0.29153 -0.19401,-0.1664 -0.29117,-0.3605 -0.29117,-0.58232 0,0 0,-1.47744 0,-1.47779 0,-0.0455 0,-2.95398 0,-2.95398 0,0 2.84022,0 2.84039,0 0.044,0 5.68002,0 5.68002,0 0,0 0,-0.47858 0,-0.4787 0,-0.0147 0,-0.95687 0,-0.95687 0,0 -2.84023,0 -2.8404,0 -0.044,0 -5.68001,0 -5.68001,0 0,0 0,-4.078082 0,-4.078332 0,-0.0632 0,-8.15555 0,-8.15555 0,-0.10424 0.052,-0.19813 0.15606,-0.28156 2e-4,-0.20782 0.10426,-0.395 0.31213,-0.56128 0.10413,-0.0833 0.20829,-0.12505 0.31242,-0.12513 0.20796,-0.16629 0.41599,-0.24953 0.62395,-0.24953 0,0 1.89348,0 1.8936,0 0.0293,0 3.78668,0 3.78668,0 0,0 0,-0.47858 0,-0.4787 0,-0.0147 0,-0.95687 0,-0.95687 0,0 -1.89349,0 -1.8936,0 -0.0294,0 -3.78668,0 -3.78668,0 m 9.69588,0 m 4.84794,0 c -0.51335,0 -0.95744,0.18721 -1.33208,0.56172 -1.02628,9e-5 -1.9141,0.37452 -2.66303,1.12345 -0.3746,0.36766 -0.56191,0.80815 -0.562,1.32146 -0.74884,0.7351 -1.12317,1.6158 -1.12317,2.64212 0,0 0,2.24713 0,2.24727 0,0.0348 0,4.493922 0,4.493922 0,0.32612 0.12821,0.53441 0.38481,0.62473 1.3e-4,0.65165 0.25655,1.06775 0.76964,1.24802 0,0 2.22646,0.74899 2.22659,0.74904 0.0345,0.0116 4.45259,1.49786 4.45259,1.49786 0.15967,0.0555 0.295,0.17003 0.40612,0.34347 0.31883,0.11102 0.58903,0.33984 0.81086,0.68644 0.11107,0.17356 0.16661,0.34376 0.16672,0.51038 0.22172,0.3466 0.33248,0.6865 0.33248,1.01924 0,0.27755 -0.0865,0.50996 -0.25994,0.69735 -8e-5,0.55465 -0.17318,1.01906 -0.51986,1.39348 -0.17347,0.18041 -0.39903,0.27062 -0.67653,0.2707 -0.34673,0.36047 -0.79759,0.54062 -1.35228,0.54062 0,0 -2.24714,0 -2.24728,0 -0.0348,0 -4.49392,0 -4.49392,0 0,0 0,0.47858 0,0.4787 0,0.0147 0,0.95687 0,0.95687 0,0 2.34067,0 2.34081,0 0.0363,0 4.68099,0 4.68099,0 0.35388,0 0.66284,-0.14555 0.92655,-0.43684 0.7072,-1.4e-4 1.32461,-0.29125 1.85157,-0.87368 0.26367,-0.29837 0.39541,-0.62447 0.39554,-0.97833 0.52683,-0.59632 0.78992,-1.2481 0.78992,-1.95534 0,-0.65209 -0.3848,-1.1309 -1.15463,-1.43622 -1.8e-4,-1.30361 -0.76978,-2.26076 -2.30924,-2.87101 0,0 -1.5815,-0.5201 -1.58188,-0.52023 -0.0487,-0.016 -3.16202,-1.03988 -3.16202,-1.03988 -0.29837,-0.10408 -0.44764,-0.22554 -0.44779,-0.3643 -0.59615,-0.20803 -0.89425,-0.45079 -0.89425,-0.72814 0,0 0,-2.184772 0,-2.184912 0,-0.0339 0,-4.36921 0,-4.36921 0,-0.38857 0.13875,-0.72153 0.41617,-0.99913 1.3e-4,-0.77652 0.27764,-1.44186 0.83234,-1.99655 0.27755,-0.27755 0.61062,-0.41644 0.99914,-0.41657 0.55474,-0.55457 1.22048,-0.83193 1.99706,-0.83193 0.46478,0 0.81857,0.14912 1.06143,0.44734 0.92917,7e-5 1.63642,0.29831 2.12184,0.89469 0.24285,0.29142 0.36421,0.62093 0.36433,0.98865 0.48523,0.58246 0.72759,1.24105 0.72759,1.97603 0,0 0,1.99753 0,1.99765 0,0.031 0,3.99475 0,3.99475 0,0 0.46824,0 0.46835,0 0.0144,0 0.93621,0 0.93621,0 0,0 0,-2.01837 0,-2.0185 0,-0.0313 0,-4.036429 0,-4.036429 0,-0.51335 -0.18721,-0.95387 -0.56172,-1.32157 -9e-5,-1.02628 -0.37451,-1.90695 -1.12344,-2.64201 -0.37461,-0.3746 -0.8185,-0.56191 -1.33181,-0.562 -0.74897,-0.74884 -1.63648,-1.12317 -2.66278,-1.12317 0,0 0,0 0,0 m -64.959,0.021 c -1.3e-4,0 -2.5e-4,0 -3.8e-4,0 m -32.4795,0.0105 c -0.51334,0 -0.95727,0.18364 -1.33191,0.55121 -1.02612,1.8e-4 -1.91346,0.36746 -2.6623,1.10244 -0.36767,0.36766 -0.55157,0.81172 -0.55166,1.33197 -0.73497,0.7351 -1.1025,1.62295 -1.1025,2.66313 0,0 0,4.015719 0,4.015969 0,0.0623 0,8.030842 0,8.030842 0,0.52028 0.18381,0.96761 0.55138,1.34225 9e-5,1.04014 0.36772,1.93441 1.10278,2.68335 0.3746,0.36766 0.82189,0.55157 1.34214,0.55166 0.74897,0.73496 1.64327,1.1025 2.68346,1.1025 0.51334,0 0.95386,-0.18381 1.32157,-0.55139 1.02627,-9e-5 1.90694,-0.36771 2.64201,-1.10277 0.3746,-0.3746 0.56208,-0.8219 0.56217,-1.34214 0.74883,-0.74897 1.12352,-1.64328 1.12352,-2.68346 0,0 0,-4.01573 0,-4.01597 0,-0.0623 0,-8.030841 0,-8.030841 0,-0.51335 -0.18739,-0.95387 -0.5619,-1.32157 -9e-5,-1.02628 -0.37486,-1.90695 -1.12379,-2.64201 -0.3746,-0.3746 -0.8185,-0.56191 -1.33181,-0.562 -0.74896,-0.74884 -1.63647,-1.12317 -2.66278,-1.12317 0,0 0,0 0,0 m 40.59631,0.87368 m 20.29816,0.43684 c 0.38163,0 0.71475,0.14215 0.99929,0.4265 0.76266,1.4e-4 1.42835,0.28444 1.99691,0.853 0.28449,0.27755 0.42678,0.61062 0.42692,0.99914 0.56843,0.55475 0.85259,1.22049 0.85259,1.99706 0,0 0,3.06898 0,3.06917 0,0.0476 0,6.137511 0,6.137511 0,0 -2.84005,0 -2.84023,0 -0.044,0 -5.67966,0 -5.67966,0 0,0 0,-3.068992 0,-3.069172 0,-0.0476 0,-6.137509 0,-6.137509 0,-0.38857 0.13875,-0.7217 0.41616,-0.9993 1.4e-4,-0.776521 0.27765,-1.4422 0.83234,-1.9969 0.27755,-0.28449 0.61045,-0.42678 0.99896,-0.42692 0.55475,-0.56842 1.22015,-0.85258 1.99672,-0.85258 0,0 0,0 0,0 m -51.02496,0.0417 m -25.51248,0.0208 c 0,0 0.8531,0 0.85331,0 0.0262,0 1.7057,0 1.7057,0 0.38163,0 0.71118,0.14215 0.98878,0.4265 0.76266,1.4e-4 1.42121,0.28444 1.9759,0.853 0.28449,0.27755 0.42678,0.60705 0.42692,0.98863 0.56843,0.55475 0.85259,1.21334 0.85259,1.97605 0,0 0,2.132749 0,2.13288 0,0.0331 0,4.265179 0,4.265179 0,0.381632 -0.12821,0.638402 -0.38482,0.770362 -1.3e-4,0.76259 -0.25654,1.27558 -0.76963,1.53906 -0.25674,0.1249 -0.60357,0.18736 -1.04063,0.18742 -0.51318,0.24955 -1.20647,0.3743 -2.08011,0.3743 0,0 -0.84278,0 -0.84298,0 -0.0259,0 -1.68503,0 -1.68503,0 0,0 0,-4.504601 0,-4.504871 0,-0.0698 0,-9.00851 0,-9.00851 m 10.42864,0.0207 m 5.21433,0.0103 c 0.38857,0 0.7217,0.14215 0.9993,0.4265 0.77652,1.4e-4 1.44221,0.28445 1.9969,0.85301 0.27755,0.27755 0.41643,0.60722 0.41657,0.9888 0.55456,0.55475 0.83193,1.21368 0.83193,1.97639 0,0 0,4.015719 0,4.01597 0,0.0622 0,8.030841 0,8.030841 0,0.38857 -0.13875,0.7251 -0.41617,1.00964 -1.4e-4,0.77653 -0.27764,1.44901 -0.83233,2.01757 -0.27062,0.27755 -0.60028,0.41644 -0.9888,0.41657 -0.54088,0.55457 -1.19982,0.83193 -1.97639,0.83193 -0.39552,0 -0.73204,-0.13875 -1.00965,-0.41617 -0.79039,-1.3e-4 -1.46287,-0.27763 -2.01756,-0.83233 -0.27062,-0.27755 -0.40593,-0.61402 -0.40606,-1.00948 -0.5407,-0.55475 -0.81092,-1.22728 -0.81092,-2.01773 0,0 0,-4.01573 0,-4.01597 0,-0.0624 0,-8.031031 0,-8.031131 6e-5,-0.38825 0.13882,-0.7211 0.41617,-0.99845 6e-5,-0.77682 0.27764,-1.44276 0.83254,-1.99767 0.27737,-0.27727 0.60667,-0.41596 0.98802,-0.41596 0.55483,-0.55483 1.21355,-0.83233 1.97645,-0.83233 0,0 0,0 0,0"
         inkscape:connector-curvature="0" />
      <g
         aria-label="ELECTRONIC"
         style="font-style:normal;font-variant:normal;font-weight:normal;font-stretch:normal;font-size:31.04444504px;line-height:1.25;font-family:'Monicas Salon NF';-inkscape-font-specification:'Monicas Salon NF, Normal';font-variant-ligatures:normal;font-variant-caps:normal;font-variant-numeric:normal;font-feature-settings:normal;text-align:start;letter-spacing:0px;word-spacing:0px;writing-mode:lr-tb;text-anchor:start;fill:#000000;fill-opacity:0.28048784;stroke:none;stroke-width:0.77611107"
         id="text1702"
         transform="matrix(0.94318183,0,0,0.94318183,13.821621,-41.165995)">
        <path
           d="m 261.60215,155.93068 h -8.47513 v 4.40831 q 0,0.49671 0.43462,0.86924 0.46567,0.34149 0.96238,0.34149 h 5.65009 v 1.42805 h -5.65009 q -1.17969,0 -2.01789,-0.80716 -0.80716,-0.8382 -0.80716,-2.01789 v -17.6022 q 0,-1.17969 0.8382,-2.01789 0.8382,-0.8382 1.98685,-0.8382 h 5.65009 v 1.42805 h -5.65009 q -0.46567,0 -0.93134,0.37253 -0.46566,0.37254 -0.46566,0.8382 v 12.16942 h 8.47513 z"
           style="font-style:normal;font-variant:normal;font-weight:normal;font-stretch:normal;font-size:31.04444504px;font-family:'Monicas Salon NF';-inkscape-font-specification:'Monicas Salon NF, Normal';font-variant-ligatures:normal;font-variant-caps:normal;font-variant-numeric:normal;font-feature-settings:normal;text-align:start;writing-mode:lr-tb;text-anchor:start;fill:#000000;fill-opacity:0.28048784;stroke-width:0.77611107"
           id="path1719"
           inkscape:connector-curvature="0" />
        <path
           d="m 273.24382,162.97777 h -7.07814 q -1.17969,0 -2.01789,-0.80716 -0.80715,-0.8382 -0.80715,-2.01789 v -20.45829 h 1.42804 v 20.45829 q 0,0.58985 0.40358,0.99343 0.40358,0.40357 0.99342,0.40357 h 7.07814 z"
           style="font-style:normal;font-variant:normal;font-weight:normal;font-stretch:normal;font-size:31.04444504px;font-family:'Monicas Salon NF';-inkscape-font-specification:'Monicas Salon NF, Normal';font-variant-ligatures:normal;font-variant-caps:normal;font-variant-numeric:normal;font-feature-settings:normal;text-align:start;writing-mode:lr-tb;text-anchor:start;fill:#000000;fill-opacity:0.28048784;stroke-width:0.77611107"
           id="path1721"
           inkscape:connector-curvature="0" />
        <path
           d="m 284.88548,155.93068 h -8.47513 v 4.40831 q 0,0.49671 0.43462,0.86924 0.46567,0.34149 0.96238,0.34149 h 5.65009 v 1.42805 h -5.65009 q -1.17969,0 -2.01789,-0.80716 -0.80716,-0.8382 -0.80716,-2.01789 v -17.6022 q 0,-1.17969 0.8382,-2.01789 0.8382,-0.8382 1.98685,-0.8382 h 5.65009 v 1.42805 h -5.65009 q -0.46567,0 -0.93133,0.37253 -0.46567,0.37254 -0.46567,0.8382 v 12.16942 h 8.47513 z"
           style="font-style:normal;font-variant:normal;font-weight:normal;font-stretch:normal;font-size:31.04444504px;font-family:'Monicas Salon NF';-inkscape-font-specification:'Monicas Salon NF, Normal';font-variant-ligatures:normal;font-variant-caps:normal;font-variant-numeric:normal;font-feature-settings:normal;text-align:start;writing-mode:lr-tb;text-anchor:start;fill:#000000;fill-opacity:0.28048784;stroke-width:0.77611107"
           id="path1723"
           inkscape:connector-curvature="0" />
        <path
           d="m 297.92415,157.32768 q 0,2.32833 -1.6764,4.00473 -1.64536,1.64536 -3.97369,1.64536 -2.32833,0 -4.00473,-1.64536 -1.64536,-1.6764 -1.64536,-4.00473 v -11.98316 q 0,-2.32833 1.6764,-3.97369 1.6764,-1.6764 3.97369,-1.6764 2.29729,0 3.97369,1.6764 1.6764,1.6764 1.6764,3.97369 v 4.25309 h -1.42805 q 0,-0.31044 0,-1.02446 0.031,-0.74507 0.031,-1.14865 0,-1.33491 -0.15522,-2.26624 -0.12418,-0.96238 -0.52776,-1.9558 -0.40358,-1.02447 -1.30387,-1.55223 -0.90028,-0.52775 -2.26624,-0.52775 -1.73849,0 -2.98027,1.24178 -1.24177,1.24177 -1.24177,2.98026 v 11.98316 q 0,1.76953 1.24177,3.01131 1.24178,1.24178 2.98027,1.24178 1.73849,0 2.98027,-1.24178 1.24177,-1.27282 1.24177,-3.01131 z"
           style="font-style:normal;font-variant:normal;font-weight:normal;font-stretch:normal;font-size:31.04444504px;font-family:'Monicas Salon NF';-inkscape-font-specification:'Monicas Salon NF, Normal';font-variant-ligatures:normal;font-variant-caps:normal;font-variant-numeric:normal;font-feature-settings:normal;text-align:start;writing-mode:lr-tb;text-anchor:start;fill:#000000;fill-opacity:0.28048784;stroke-width:0.77611107"
           id="path1725"
           inkscape:connector-curvature="0" />
        <path
           d="m 308.81833,141.09143 h -3.88056 v 21.88634 h -1.397 v -21.88634 h -3.88056 v -1.397 h 9.15812 z"
           style="font-style:normal;font-variant:normal;font-weight:normal;font-stretch:normal;font-size:31.04444504px;font-family:'Monicas Salon NF';-inkscape-font-specification:'Monicas Salon NF, Normal';font-variant-ligatures:normal;font-variant-caps:normal;font-variant-numeric:normal;font-feature-settings:normal;text-align:start;writing-mode:lr-tb;text-anchor:start;fill:#000000;fill-opacity:0.28048784;stroke-width:0.77611107"
           id="path1727"
           inkscape:connector-curvature="0" />
        <path
           d="m 318.73897,151.67759 v -6.36411 q 0,-1.70745 -1.27283,-2.94922 -1.24177,-1.27283 -2.94922,-1.27283 h -2.54564 v 13.44225 h 2.5146 q 1.9558,0 3.10444,-0.5588 1.14865,-0.58985 1.14865,-2.29729 z m 1.42804,11.30018 h -1.42804 v -3.69429 q 0,-3.3528 -3.41489,-3.3528 h -3.3528 v 7.04709 h -1.397 v -23.28334 h 3.94264 q 2.29729,0 3.94265,1.6764 1.6764,1.64536 1.6764,3.94265 v 6.36411 q 0,2.20416 -1.92476,3.50802 1.9558,1.58327 1.9558,3.72534 z"
           style="font-style:normal;font-variant:normal;font-weight:normal;font-stretch:normal;font-size:31.04444504px;font-family:'Monicas Salon NF';-inkscape-font-specification:'Monicas Salon NF, Normal';font-variant-ligatures:normal;font-variant-caps:normal;font-variant-numeric:normal;font-feature-settings:normal;text-align:start;writing-mode:lr-tb;text-anchor:start;fill:#000000;fill-opacity:0.28048784;stroke-width:0.77611107"
           id="path1729"
           inkscape:connector-curvature="0" />
        <path
           d="m 331.75386,157.32768 v -11.98316 q 0,-1.70744 -1.24178,-2.94922 -1.24178,-1.27282 -2.98027,-1.27282 -1.70744,0 -2.94922,1.24178 -1.24178,1.24177 -1.24178,2.98026 v 11.98316 q 0,1.76953 1.21074,3.01131 1.24178,1.24178 3.01131,1.24178 1.73849,0 2.94922,-1.24178 1.24178,-1.27282 1.24178,-3.01131 z m 1.42804,0 q 0,2.32833 -1.6764,4.00473 -1.64535,1.64536 -3.94264,1.64536 -2.32833,0 -4.00473,-1.64536 -1.64536,-1.6764 -1.64536,-4.00473 v -11.98316 q 0,-2.32833 1.64536,-3.97369 1.6764,-1.64535 3.97368,-1.64535 2.29729,0 3.97369,1.6764 1.6764,1.64535 1.6764,3.94264 z"
           style="font-style:normal;font-variant:normal;font-weight:normal;font-stretch:normal;font-size:31.04444504px;font-family:'Monicas Salon NF';-inkscape-font-specification:'Monicas Salon NF, Normal';font-variant-ligatures:normal;font-variant-caps:normal;font-variant-numeric:normal;font-feature-settings:normal;text-align:start;writing-mode:lr-tb;text-anchor:start;fill:#000000;fill-opacity:0.28048784;stroke-width:0.77611107"
           id="path1731"
           inkscape:connector-curvature="0" />
        <path
           d="m 344.79011,162.97777 h -1.397 v -13.4112 q 0,-3.0734 -1.98685,-5.37069 -1.98684,-2.32833 -5.06024,-2.98027 v 21.76216 h -1.397 v -23.25229 q 2.60773,0 4.81189,1.30387 2.20415,1.27282 3.6322,3.53906 v -4.87398 h 1.397 z"
           style="font-style:normal;font-variant:normal;font-weight:normal;font-stretch:normal;font-size:31.04444504px;font-family:'Monicas Salon NF';-inkscape-font-specification:'Monicas Salon NF, Normal';font-variant-ligatures:normal;font-variant-caps:normal;font-variant-numeric:normal;font-feature-settings:normal;text-align:start;writing-mode:lr-tb;text-anchor:start;fill:#000000;fill-opacity:0.28048784;stroke-width:0.77611107"
           id="path1733"
           inkscape:connector-curvature="0" />
        <path
           d="m 347.95809,162.97777 h -1.42804 v -23.28334 h 1.42804 z"
           style="font-style:normal;font-variant:normal;font-weight:normal;font-stretch:normal;font-size:31.04444504px;font-family:'Monicas Salon NF';-inkscape-font-specification:'Monicas Salon NF, Normal';font-variant-ligatures:normal;font-variant-caps:normal;font-variant-numeric:normal;font-feature-settings:normal;text-align:start;writing-mode:lr-tb;text-anchor:start;fill:#000000;fill-opacity:0.28048784;stroke-width:0.77611107"
           id="path1735"
           inkscape:connector-curvature="0" />
        <path
           d="m 360.98317,157.32768 q 0,2.32833 -1.6764,4.00473 -1.64535,1.64536 -3.97369,1.64536 -2.32833,0 -4.00473,-1.64536 -1.64535,-1.6764 -1.64535,-4.00473 v -11.98316 q 0,-2.32833 1.6764,-3.97369 1.6764,-1.6764 3.97368,-1.6764 2.29729,0 3.97369,1.6764 1.6764,1.6764 1.6764,3.97369 v 4.25309 h -1.42804 q 0,-0.31044 0,-1.02446 0.031,-0.74507 0.031,-1.14865 0,-1.33491 -0.15522,-2.26624 -0.12418,-0.96238 -0.52775,-1.9558 -0.40358,-1.02447 -1.30387,-1.55223 -0.90029,-0.52775 -2.26625,-0.52775 -1.73848,0 -2.98026,1.24178 -1.24178,1.24177 -1.24178,2.98026 v 11.98316 q 0,1.76953 1.24178,3.01131 1.24178,1.24178 2.98026,1.24178 1.73849,0 2.98027,-1.24178 1.24178,-1.27282 1.24178,-3.01131 z"
           style="font-style:normal;font-variant:normal;font-weight:normal;font-stretch:normal;font-size:31.04444504px;font-family:'Monicas Salon NF';-inkscape-font-specification:'Monicas Salon NF, Normal';font-variant-ligatures:normal;font-variant-caps:normal;font-variant-numeric:normal;font-feature-settings:normal;text-align:start;writing-mode:lr-tb;text-anchor:start;fill:#000000;fill-opacity:0.28048784;stroke-width:0.77611107"
           id="path1737"
           inkscape:connector-curvature="0" />
      </g>
      <g
         aria-label="TALES"
         style="font-style:normal;font-variant:normal;font-weight:normal;font-stretch:normal;font-size:30.95919609px;line-height:1.25;font-family:'Monicas Salon NF';-inkscape-font-specification:'Monicas Salon NF, Normal';font-variant-ligatures:normal;font-variant-caps:normal;font-variant-numeric:normal;font-feature-settings:normal;text-align:start;letter-spacing:0px;word-spacing:0px;writing-mode:lr-tb;text-anchor:start;fill:#000000;fill-opacity:0.23170734;stroke:none;stroke-width:0.7739799"
         id="text1706"
         transform="matrix(0.90908305,0,0,0.90908305,33.834376,-35.563696)">
        <path
           d="m 381.92264,140.86378 h -3.8699 v 21.82624 h -1.39316 v -21.82624 h -3.8699 v -1.39316 h 9.13296 z"
           style="font-style:normal;font-variant:normal;font-weight:normal;font-stretch:normal;font-size:30.95919609px;font-family:'Monicas Salon NF';-inkscape-font-specification:'Monicas Salon NF, Normal';font-variant-ligatures:normal;font-variant-caps:normal;font-variant-numeric:normal;font-feature-settings:normal;text-align:start;writing-mode:lr-tb;text-anchor:start;fill:#000000;fill-opacity:0.23170734;stroke-width:0.7739799"
           id="path1708"
           inkscape:connector-curvature="0" />
        <path
           d="m 393.03506,154.17624 v -9.13296 q 0,-1.73372 -1.26933,-2.97209 -1.26933,-1.26932 -2.97208,-1.26932 -1.73372,0 -2.97208,1.26932 -1.23837,1.23837 -1.23837,2.97209 v 9.13296 z m 1.39316,8.45186 h -1.39316 v -7.0587 h -8.45186 v 7.0587 h -1.39317 v -17.58482 q 0,-2.3529 1.64084,-3.99374 1.64084,-1.64084 3.96278,-1.64084 2.29098,0 3.96278,1.6718 1.67179,1.6718 1.67179,3.96278 z"
           style="font-style:normal;font-variant:normal;font-weight:normal;font-stretch:normal;font-size:30.95919609px;font-family:'Monicas Salon NF';-inkscape-font-specification:'Monicas Salon NF, Normal';font-variant-ligatures:normal;font-variant-caps:normal;font-variant-numeric:normal;font-feature-settings:normal;text-align:start;writing-mode:lr-tb;text-anchor:start;fill:#000000;fill-opacity:0.23170734;stroke-width:0.7739799"
           id="path1710"
           inkscape:connector-curvature="0" />
        <path
           d="m 406.06646,162.69002 h -7.0587 q -1.17645,0 -2.01234,-0.80494 -0.80494,-0.8359 -0.80494,-2.01235 v -20.40211 h 1.42412 v 20.40211 q 0,0.58823 0.40247,0.9907 0.40247,0.40246 0.99069,0.40246 h 7.0587 z"
           style="font-style:normal;font-variant:normal;font-weight:normal;font-stretch:normal;font-size:30.95919609px;font-family:'Monicas Salon NF';-inkscape-font-specification:'Monicas Salon NF, Normal';font-variant-ligatures:normal;font-variant-caps:normal;font-variant-numeric:normal;font-feature-settings:normal;text-align:start;writing-mode:lr-tb;text-anchor:start;fill:#000000;fill-opacity:0.23170734;stroke-width:0.7739799"
           id="path1712"
           inkscape:connector-curvature="0" />
        <path
           d="m 417.67616,155.66228 h -8.45186 v 4.39621 q 0,0.49534 0.43343,0.86685 0.46439,0.34055 0.95973,0.34055 h 5.63458 v 1.42413 h -5.63458 q -1.17645,0 -2.01234,-0.80494 -0.80494,-0.8359 -0.80494,-2.01235 v -17.55386 q 0,-1.17645 0.83589,-2.01235 0.8359,-0.8359 1.98139,-0.8359 h 5.63458 v 1.42412 h -5.63458 q -0.46438,0 -0.92877,0.37151 -0.46439,0.37151 -0.46439,0.8359 v 12.13601 h 8.45186 z"
           style="font-style:normal;font-variant:normal;font-weight:normal;font-stretch:normal;font-size:30.95919609px;font-family:'Monicas Salon NF';-inkscape-font-specification:'Monicas Salon NF, Normal';font-variant-ligatures:normal;font-variant-caps:normal;font-variant-numeric:normal;font-feature-settings:normal;text-align:start;writing-mode:lr-tb;text-anchor:start;fill:#000000;fill-opacity:0.23170734;stroke-width:0.7739799"
           id="path1714"
           inkscape:connector-curvature="0" />
        <path
           d="m 430.67902,151.08032 h -1.39316 v -5.94417 q 0,-1.64083 -1.08358,-2.94112 -1.08357,-1.33125 -3.15783,-1.33125 -1.73372,0 -2.97209,1.23837 -1.23836,1.23837 -1.23836,2.97209 v 6.50143 q 0,0.61918 1.33124,1.08357 l 4.7058,1.54796 q 3.43647,1.3622 3.43647,4.27237 0,1.57892 -1.17645,2.91016 -1.17645,1.30029 -2.75537,1.30029 h -6.96582 v -1.42413 h 6.68719 q 1.23837,0 2.01235,-0.80493 0.77398,-0.8359 0.77398,-2.07427 0,-0.74302 -0.49535,-1.517 -0.49535,-0.77398 -1.20741,-1.02165 l -6.62527,-2.22907 q -1.14549,-0.40247 -1.14549,-1.85755 v -6.68718 q 0,-2.29099 1.6718,-3.93182 1.6718,-1.6718 3.96278,-1.6718 2.29098,0 3.96277,1.6718 1.6718,1.64083 1.6718,3.93182 z"
           style="font-style:normal;font-variant:normal;font-weight:normal;font-stretch:normal;font-size:30.95919609px;font-family:'Monicas Salon NF';-inkscape-font-specification:'Monicas Salon NF, Normal';font-variant-ligatures:normal;font-variant-caps:normal;font-variant-numeric:normal;font-feature-settings:normal;text-align:start;writing-mode:lr-tb;text-anchor:start;fill:#000000;fill-opacity:0.23170734;stroke-width:0.7739799"
           id="path1716"
           inkscape:connector-curvature="0" />
      </g>
      <path
         inkscape:connector-curvature="0"
         id="path1398"
         d="m 384.81165,87.875397 c -1.56045,0 -2.89186,0.55144 -3.99458,1.65416 -1.10274,1.10273 -1.65417,2.44484 -1.65417,4.02611 v 17.727093 h 1.40457 v -7.11585 h 8.51989 v 7.11585 h 1.40457 V 93.555667 c 0,-1.53965 -0.56164,-2.87105 -1.68517,-3.99458 -1.12353,-1.12354 -2.45544,-1.68569 -3.99511,-1.68569 z m -134.28999,0.0625 c -0.76983,0 -1.43553,0.28108 -1.99729,0.84284 -0.56177,0.56177 -0.84285,1.23767 -0.84285,2.0283 v 17.696083 c 0,0.79064 0.27088,1.46653 0.81184,2.0283 0.56177,0.54096 1.23767,0.81132 2.0283,0.81132 h 5.68027 v -1.43557 h -5.68027 c -0.3329,0 -0.65529,-0.11427 -0.96738,-0.34313 -0.29129,-0.24968 -0.43667,-0.54095 -0.43667,-0.87385 v -4.43177 h 8.5199 v -1.43557 h -8.5199 V 90.590967 c 0,-0.3121 0.15558,-0.59317 0.46767,-0.84284 0.3121,-0.24968 0.62429,-0.37466 0.93638,-0.37466 h 5.68027 v -1.43557 z m 8.86354,0 v 20.567223 c 0,0.79064 0.27036,1.46653 0.81132,2.0283 0.56177,0.54096 1.23818,0.81132 2.02882,0.81132 0,0 5.43862,1.67722 7.11584,0 0.33837,-0.33837 0,-1.43557 0,-1.43557 h -7.11584 c -0.39532,0 -0.72843,-0.13518 -0.99891,-0.40566 -0.27048,-0.27048 -0.40566,-0.60307 -0.40566,-0.99839 V 87.937897 Z m 14.5433,0 c -0.76983,0 -1.43553,0.28108 -1.9973,0.84284 -0.56176,0.56177 -0.84232,1.23767 -0.84232,2.0283 v 17.696083 c 0,0.79064 0.27036,1.46653 0.81132,2.0283 0.56177,0.54096 1.23767,0.81132 2.0283,0.81132 h 5.68027 v -1.43557 h -5.68027 c -0.3329,0 -0.65529,-0.11427 -0.96738,-0.34313 -0.29129,-0.24968 -0.43667,-0.54095 -0.43667,-0.87385 v -4.43177 h 8.51989 v -1.43557 h -8.51989 V 90.590967 c 0,-0.3121 0.1561,-0.59317 0.46819,-0.84284 0.31209,-0.24968 0.62377,-0.37466 0.93586,-0.37466 h 5.68027 v -1.43557 z m 14.54381,0 c -1.53965,0 -2.87105,0.56164 -3.99458,1.68517 -1.12354,1.10273 -1.68569,2.43464 -1.68569,3.9951 v 12.046813 c 0,1.56046 0.55144,2.90206 1.65416,4.0256 1.12354,1.10272 2.46565,1.65416 4.02611,1.65416 1.56047,0 2.89187,-0.55144 3.99459,-1.65416 1.12353,-1.12354 1.68569,-2.46514 1.68569,-4.0256 h -1.43609 c 0,1.16515 -0.41574,2.17416 -1.24799,3.02721 -0.83224,0.83225 -1.83105,1.2485 -2.9962,1.2485 -1.16514,0 -2.16395,-0.41625 -2.9962,-1.2485 -0.83224,-0.83225 -1.2485,-1.84125 -1.2485,-3.02721 V 93.618167 c 0,-1.16514 0.41626,-2.16395 1.2485,-2.9962 0.83225,-0.83224 1.83106,-1.2485 2.9962,-1.2485 0.91548,0 1.67504,0.17702 2.27842,0.53072 0.60338,0.35371 1.04003,0.87402 1.31051,1.56063 0.27048,0.66579 0.4475,1.32078 0.53072,1.96577 0.10403,0.62418 0.15606,1.38375 0.15606,2.27841 0,0.27048 -0.0107,0.65562 -0.0315,1.15497 v 1.02991 h 1.43609 v -4.27571 c 0,-1.53966 -0.56215,-2.87157 -1.68569,-3.9951 -1.12353,-1.12353 -2.45493,-1.68517 -3.99458,-1.68517 z m 7.42539,0 v 1.40457 h 3.90106 v 22.002273 h 1.40456 V 89.342467 h 3.90105 v -1.40457 z m 10.97194,0 v 23.406843 h 1.40457 v -7.08432 h 3.37034 c 2.28867,0 3.43286,1.12327 3.43286,3.37033 v 3.71399 h 1.43609 v -4.08812 c 0,-1.43563 -0.6555,-2.68388 -1.96629,-3.74499 1.28998,-0.87386 1.93477,-2.04968 1.93477,-3.526923 v -6.39806 c 0,-1.53966 -0.56164,-2.86085 -1.68517,-3.96358 -1.10273,-1.12353 -2.42393,-1.68517 -3.96359,-1.68517 z m 32.99282,0 v 4.89996 c -0.95708,-1.51885 -2.17422,-2.70487 -3.65146,-3.55792 -1.47723,-0.87386 -3.08971,-1.31052 -4.83743,-1.31052 v 23.375323 h 1.40457 V 89.467007 c 2.05981,0.43693 3.75543,1.43574 5.08703,2.9962 1.3316,1.53965 1.99729,3.33934 1.99729,5.39915 v 13.482383 h 1.40457 V 87.937897 Z m 3.15381,0 v 23.406843 h 1.43557 V 87.937897 Z m 8.84959,0 c -1.53965,0 -2.87105,0.56164 -3.99459,1.68517 -1.12353,1.10273 -1.68516,2.43464 -1.68516,3.9951 v 12.046813 c 0,1.56046 0.55143,2.90206 1.65416,4.0256 1.12353,1.10272 2.46513,1.65416 4.02559,1.65416 1.56047,0 2.89238,-0.55144 3.99511,-1.65416 1.12353,-1.12354 1.68517,-2.46514 1.68517,-4.0256 h -1.43557 c 0,1.16515 -0.41626,2.17416 -1.24851,3.02721 -0.83224,0.83225 -1.83105,1.2485 -2.9962,1.2485 -1.16515,0 -2.16343,-0.41625 -2.99568,-1.2485 -0.83225,-0.83225 -1.2485,-1.84125 -1.2485,-3.02721 V 93.618167 c 0,-1.16514 0.41625,-2.16395 1.2485,-2.9962 0.83225,-0.83224 1.83053,-1.2485 2.99568,-1.2485 0.91548,0 1.67504,0.17702 2.27842,0.53072 0.60338,0.35371 1.04055,0.87402 1.31103,1.56063 0.27048,0.66579 0.44697,1.32078 0.5302,1.96577 0.10402,0.62418 0.15606,1.38375 0.15606,2.27841 0,0.27048 -0.0102,0.65562 -0.031,1.15497 v 1.02991 h 1.43557 v -4.27571 c 0,-1.53966 -0.56164,-2.87157 -1.68517,-3.9951 -1.12354,-1.12353 -2.45545,-1.68517 -3.99511,-1.68517 z m 16.81293,0 v 1.40457 h 3.90105 v 22.002273 h 1.40457 V 89.342467 h 3.90105 v -1.40457 z m 23.58977,0 v 20.567223 c 0,0.79064 0.27036,1.46653 0.81132,2.0283 0.56177,0.54096 1.23819,0.81132 2.02882,0.81132 h 7.11533 v -1.43557 h -7.11533 c -0.39532,0 -0.72843,-0.13518 -0.9989,-0.40566 -0.27049,-0.27048 -0.40567,-0.60307 -0.40567,-0.99839 V 87.937897 Z m 14.5433,0 c -0.76983,0 -1.43552,0.28108 -1.99729,0.84284 -0.56177,0.56177 -0.84284,1.23767 -0.84284,2.0283 v 17.696083 c 0,0.79064 0.27087,1.46653 0.81183,2.0283 0.56177,0.54096 1.23766,0.81132 2.0283,0.81132 h 5.68028 v -1.43557 h -5.68028 c -0.3329,0 -0.65529,-0.11427 -0.96738,-0.34313 -0.29129,-0.24968 -0.43718,-0.54095 -0.43718,-0.87385 v -4.43177 h 8.52041 v -1.43557 H 405.4073 V 90.590967 c 0,-0.3121 0.15609,-0.59317 0.46819,-0.84284 0.31209,-0.24968 0.62428,-0.37466 0.93637,-0.37466 h 5.68028 v -1.43557 z m 14.54382,0 c -1.53966,0 -2.87157,0.56164 -3.99511,1.68517 -1.12353,1.10273 -1.68517,2.42392 -1.68517,3.96358 v 6.741193 c 0,0.97789 0.38463,1.60228 1.15445,1.87275 l 6.67918,2.2469 c 0.47855,0.16644 0.88408,0.50975 1.21698,1.02991 0.3329,0.52016 0.4992,1.03027 0.4992,1.52962 0,0.83225 -0.25965,1.52906 -0.7798,2.09083 -0.52015,0.54096 -1.19657,0.81132 -2.02881,0.81132 h -6.7412 v 1.43557 h 7.0218 c 1.06112,0 1.98749,-0.43666 2.77812,-1.31052 0.79063,-0.89466 1.18546,-1.87255 1.18546,-2.93367 0,-1.95578 -1.15439,-3.39175 -3.46387,-4.30723 l -4.7439,-1.56011 c -0.89466,-0.31209 -1.34204,-0.67631 -1.34204,-1.09244 v -6.554123 c 0,-1.16515 0.41626,-2.16344 1.24851,-2.99568 0.83224,-0.83225 1.83105,-1.2485 2.9962,-1.2485 1.39401,0 2.45505,0.44736 3.18327,1.34203 0.72821,0.87385 1.09192,1.86195 1.09192,2.96468 v 5.9924 h 1.40456 v -6.05493 c 0,-1.53966 -0.56163,-2.86085 -1.68516,-3.96358 -1.12354,-1.12353 -2.45494,-1.68517 -3.99459,-1.68517 z m -97.4385,0.0315 c -1.53966,0 -2.87105,0.55092 -3.99459,1.65365 -1.10272,1.10273 -1.65416,2.43464 -1.65416,3.9951 v 12.046813 c 0,1.56046 0.55144,2.90206 1.65416,4.0256 1.12354,1.10272 2.46513,1.65416 4.0256,1.65416 1.53965,0 2.86085,-0.55144 3.96358,-1.65416 1.12353,-1.12354 1.68569,-2.46514 1.68569,-4.0256 V 93.618147 c 0,-1.53966 -0.56216,-2.86085 -1.68569,-3.96358 -1.12353,-1.12353 -2.45493,-1.68517 -3.99459,-1.68517 z m 60.89447,1.31052 c 1.14434,0 2.14315,0.42645 2.9962,1.2795 0.85306,0.83225 1.27951,1.83106 1.27951,2.9962 v 9.206683 h -8.51989 v -9.206683 c 0,-1.16514 0.41626,-2.16395 1.2485,-2.9962 0.83225,-0.85305 1.83054,-1.2795 2.99568,-1.2795 z m -76.53744,0.0625 h 2.55901 c 1.14435,0 2.13244,0.42645 2.96468,1.2795 0.85306,0.83225 1.27951,1.82034 1.27951,2.96468 v 6.39806 c 0,1.144343 -0.38462,1.914103 -1.15445,2.309423 -0.76983,0.37451 -1.80995,0.56172 -3.12074,0.56172 h -2.52801 z m 15.64297,0.031 c 1.16515,0 2.16396,0.42646 2.9962,1.27951 0.83225,0.83225 1.2485,1.82085 1.2485,2.96519 v 12.046813 c 0,1.16515 -0.41625,2.17416 -1.2485,3.02721 -0.81144,0.83225 -1.80005,1.2485 -2.96519,1.2485 -1.18596,0 -2.19496,-0.41625 -3.02721,-1.2485 -0.81144,-0.83225 -1.21698,-1.84125 -1.21698,-3.02721 V 93.618117 c 0,-1.16514 0.41626,-2.16395 1.24851,-2.9962 0.83224,-0.83224 1.82033,-1.2485 2.96467,-1.2485 z"
         style="font-style:normal;font-variant:normal;font-weight:normal;font-stretch:normal;font-size:31.20926094px;line-height:1.25;font-family:'Monicas Salon NF';-inkscape-font-specification:'Monicas Salon NF, Normal';font-variant-ligatures:normal;font-variant-caps:normal;font-variant-numeric:normal;font-feature-settings:normal;text-align:start;letter-spacing:0px;word-spacing:0px;writing-mode:lr-tb;text-anchor:start;opacity:1;fill:#ffffff;fill-opacity:1;stroke:none;stroke-width:0.78023148"
         sodipodi:nodetypes="scsccccccscssssscsccscsccccscsccscscsscsssccscsscsccscsccccscsccsscsscsccccscsscscccscccscsscccccccccccccssccscsscscccccccccscccccccccscsscsccccsssscscccscccscsccccccccccscsccscsccscsscsccscsccccscsccsscssccsscsccscsccsscscsccscsscsscscsscsscsccscscscsscsccscsscscssss" />
    </g>
    <text
       xml:space="preserve"
       style="font-style:normal;font-weight:normal;font-size:10.58333302px;line-height:1.25;font-family:sans-serif;letter-spacing:0px;word-spacing:0px;fill:#000000;fill-opacity:1;stroke:none;stroke-width:0.26458332"
       x="47.360416"
       y="246.99376"
       id="text1692"><tspan
         sodipodi:role="line"
         id="tspan1690"
         x="47.360416"
         y="256.35751"
         style="stroke-width:0.26458332" /></text>
  </g>
</svg>
