<svg xmlns="http://www.w3.org/2000/svg" viewBox="0 0 43.12 108.71"><defs><style>.cls-1{fill:#fff;}.cls-2{fill:silver;}</style></defs><title>arrow_1</title><g id="Calque_2" data-name="Calque 2"><g id="Calque_1-2" data-name="Calque 1"><path class="cls-1" d="M37.09,89.68c-2.25,1.52-2.11,3-1.63,4.78.83,2.93,1.51,5.91,2.28,9-5.26-.87-10-2.82-15.15-2.65l-1.34,2.82c1.1.72,2.09,1.85,3.23,2,6.07,1,11.94,3.38,18.54,3,.69-6.51-2.44-11.84-3.11-17.55Z"/><path class="cls-1" d="M11.86,2.33C10.91.2,8.9.82,7.35,0c-1,3.05-2.74,5.41-2.07,8.57A14.74,14.74,0,0,0,7.4,9.67c.41.14.94-.09,1.86-.2Z"/><path class="cls-1" d="M4.6,66.41c1.48,3.07,2.72,5.67,4.13,8.6l4.37-2.48L9.15,64.92Z"/><path class="cls-1" d="M22.64,95.55c1.47,1.13,2.53,1.92,3.55,2.75s2.17,1.86,3.52,3l2.71-2.5-6.15-6.89Z"/><path class="cls-1" d="M5.06,25.56l2-8.42-4.65-.93c-1.08,3.18-2,6.08-.9,9.35Z"/><path class="cls-1" d="M1.79,49.67c-1.73,3.38-.14,6.14,1.06,9.41l4.26-1.31C6.5,54.91,6,52.56,5.46,50.05Z"/><path class="cls-1" d="M12.82,81.63l5,7.5,3.73-2.48c-1.63-2.68-2.58-5.46-5.38-7Z"/><path class="cls-1" d="M3.9,41.65V32.79L0,33.09c.17,3-.42,5.74.45,8.56Z"/><path class="cls-2" d="M37.09,89.68l2.82,1.45c.67,5.71,3.8,11,3.11,17.55-6.6.35-12.47-2.06-18.54-3-1.14-.18-2.13-1.31-3.23-2l1.34-2.82c5.14-.17,9.89,1.78,15.15,2.65-.77-3.08-1.45-6.06-2.28-9C35,92.73,34.84,91.2,37.09,89.68Z"/><path class="cls-2" d="M11.86,2.33,9.26,9.47c-.92.11-1.45.34-1.86.2a14.74,14.74,0,0,1-2.12-1.1C4.61,5.41,6.39,3.05,7.35,0,8.9.82,10.91.2,11.86,2.33Z"/><path class="cls-2" d="M4.6,66.41l4.55-1.49,3.95,7.61L8.73,75C7.32,72.08,6.08,69.48,4.6,66.41Z"/><path class="cls-2" d="M22.64,95.55l3.63-3.62,6.15,6.89-2.71,2.5c-1.35-1.16-2.41-2.11-3.52-3S24.11,96.68,22.64,95.55Z"/><path class="cls-2" d="M5.06,25.56H1.55c-1.14-3.27-.18-6.17.9-9.35l4.65.93Z"/><path class="cls-2" d="M1.79,49.67l3.67.38c.53,2.51,1,4.86,1.65,7.72L2.85,59.08C1.65,55.81.06,53.05,1.79,49.67Z"/><path class="cls-2" d="M12.82,81.63l3.32-2c2.8,1.58,3.75,4.36,5.38,7l-3.73,2.48Z"/><path class="cls-2" d="M3.9,41.65H.49C-.38,38.83.21,36.1,0,33.09l3.86-.3Z"/></g></g></svg>