<svg id="svg8" xmlns="http://www.w3.org/2000/svg" viewBox="0 0 1024 197.19"><defs><style>.cls-1,.cls-10,.cls-2,.cls-3,.cls-4,.cls-5,.cls-6,.cls-7,.cls-8,.cls-9{fill:#212121;stroke:#262626;}.cls-1,.cls-10,.cls-3,.cls-4,.cls-5,.cls-6,.cls-7,.cls-8,.cls-9{stroke-linecap:round;stroke-linejoin:round;}.cls-1{stroke-width:0.27px;}.cls-2{stroke-miterlimit:10;}.cls-3{stroke-width:0.1px;}.cls-4{stroke-width:0.22px;}.cls-5{stroke-width:0.18px;}.cls-6{stroke-width:0.15px;}.cls-7{stroke-width:0.11px;}.cls-8{stroke-width:0.2px;}.cls-9{stroke-width:0.1px;}.cls-10{stroke-width:0.06px;}</style></defs><title>elta2020</title><g id="layer2"><path id="path11" class="cls-1" d="M-2.77,238.94l-.1-123.42c7-5.68,12-12.57,16.44-19.79a47.3,47.3,0,0,0,15.14,13.43c8.57-8.61,11.61-15.06,16.53-22.24,7.49,13,15.52,25.36,26.46,34.73A38.28,38.28,0,0,0,81.29,111c3.23,3.41,6.49,6.73,10.21,8.11,1.34-12.52,2.67-25,.59-38.58,9-1.63,18.13-2,27.62.5-.17.75-2.22,15.38-.17,21.15,4.1-2.8,6.27-8.09,8.42-13.42,2.41,7.79,5.67,15.07,10.58,21.31,10.46-4.31,18.5-2.07,26.52.2.05,8.82-.76,14,.06,19.26a41.73,41.73,0,0,0,7.48-7.29,45.08,45.08,0,0,0,19,13.25,97.73,97.73,0,0,0,0-18.34l2.05.14a9.36,9.36,0,0,0,.06-5.23l-2.24.19A106.79,106.79,0,0,0,212.77,82c7.42,10.4,14.27,21.38,24.38,29,.16-2-.08-5,1.55-8.31,8.42-2,20.55-3.26,31.09-.89,1.85,3.87,1.46,6.19,1.26,8.64,4.23-4.45,6.21-8.9,8.52-13.34,3.8,8.13,8,15.93,13.83,22.52A29.28,29.28,0,0,0,310.45,113a7.68,7.68,0,0,1-.09-4.59l-3.41-.6c13.73-5.68,25.25-14.41,36-24.21l1.24.44a3.79,3.79,0,0,0-.15-3.27c-1-.84-2.3-.1-3.48,0,7.53-6.48,11.95-14.23,18.08-22.9,5.93,8.49,9.46,14.78,17.51,22.54-1.35-.31-2.71-.73-4.07.21a57.42,57.42,0,0,0-.24,15.8c14.42,1.3,26.45,1.84,40.87.93a29.18,29.18,0,0,0,.07,13.53l-1.61,0a32.6,32.6,0,0,0,0,14.36c28.08-11.87,50-10.7,68.89,1.61,1.48-3.35,3-7.56,2.51-11.42a5.59,5.59,0,0,1-2.54-.68v-1.13a138.22,138.22,0,0,0,29.21-27.94c5.11,5.68,10.23,11.38,16.32,16,10.3-9.23,17.66-21,25-32.76,8.15,15.6,17,30.31,27.64,42.81l-2.6.49.94,1.64c4.87,2,7.58.27,11.1-.07a39.17,39.17,0,0,0,.2-10.94c-2.41-6.9-1.65-10.09,0-13.92.07-.17-.38-.54-.56-1a3.11,3.11,0,0,1,0-1.18c0-.75,1.08-.37,1.08-.58v-.68a66.53,66.53,0,0,1,17.55,0c.07.3,0,.55.11.84s.82.27,1,.54a1.48,1.48,0,0,1-.08,1.26c-.16.33-.61.65-.55,1,1,4.68,1.79,8.84-.55,14.09-.9,6.88-1,9.48.3,17.76,5.52,0,11.1-.08,15.78-1.1a5.43,5.43,0,0,0,0,1.62,2.22,2.22,0,0,1,2.16.07,63.32,63.32,0,0,0,.14-14c6.06-2.42,15.35-1.7,22.79.25-.71,7.37-.87,14,.53,18.44a31.65,31.65,0,0,1,13.94.24,13,13,0,0,1,1.18-7.58l-3.34-.39c11.2-6.86,20.95-14.93,30.56-24a89.17,89.17,0,0,0,12.89,16.91l.21-1.62c5.61.17,11.21.46,16.81.11v1.37c1.61.13,2-1.48,2.58-2.74l1.82,4.7.6,1.25c2.72,5.64,4.63,10.2,6.85,8.3a177.9,177.9,0,0,0,21.7-22.66c5.92,7.32,11.84,14,17.77,18.42v2.87l-3.94,0c.46,1.73,1.35,3.57,0,4.83,5.32.32,8.6.16,14.36,0-1.33-1.93-.8-4.23.24-6.65l-4.57-.53A134.05,134.05,0,0,0,792,90.6c1.75,4.19,2.5,10.36,6.54,12.65.89-4.87,2.58-13,.35-20.18l-2.12-.37,0-2.77,2.1-.41.07-2.62c11.33-2.89,21.31-1.58,31.23-.1l.38,2.78,2.54.33-.52,2.79h-2c-.28,4.64-1.2,8.5,1.89,19.31,2.16-.46,4.44-.41,6.15-2.75l.54-6h-3C846.87,82.76,854.59,71,862,59c7.8,12.79,14.21,23.77,24.28,32.1.84.64-.47,0-4.48-.16-.5,1.64-.9,2.92,0,4.56h2.34c1.37,1.86.81,3.72-.18,5.58h-1.8c-.94,4.74-1.76,9.47-.36,14.21,7.86-6.68,13.26-16.76,18.28-27.36,2.83,4.27,4.63,9.06,7,11.83,2.2-8.48.54-17.62.09-26.56a82.39,82.39,0,0,1,26.91-.52l-1,5.79c8.81-9.29,14.79-20.93,21.32-32.1,5.53,16.76,15.69,30.9,26.41,44.72l-5.59-1.3c-.37,6.69-1.82,13.6,0,19.84,5.88-2.81,11.35-1.73,16.76-.13a529,529,0,0,0,1.11-71.43l3.12,0V32h-3.33c-.33-3.15,1.19-4.25,1.19-7.11-.64-.56-3.09-.41-3.09-.41,6.19-5.05,13.92-15.47,17.53-21.61,5.21,7.84,11.26,13.08,18.19,19.06l.15,217"/><path id="path7230" class="cls-2" d="M872.67,148.68a17.71,17.71,0,0,0,1.79-1.42c.09-.09.49-.19.41-.19h-.14"/><ellipse id="path7347" class="cls-3" cx="955.29" cy="120.04" rx="1.2" ry="1.06"/><ellipse id="path7349" class="cls-3" cx="955.29" cy="117.96" rx="0.76" ry="0.84"/><ellipse id="path7351" class="cls-3" cx="955.25" cy="116.99" rx="0.09" ry="1.99"/><path id="path7377" class="cls-3" d="M920.4,67.54l-.27,6.1,2.22.09.09-6.19Z"/><path id="path7379" class="cls-3" d="M923.77,67.63l-.44,6.1,2.22-.09.09-6.1Z"/><path id="path7381" class="cls-3" d="M919.15,67.54v5.75l-2-.27.27-5.66Z"/><path id="path7383" class="cls-4" d="M741.69,98.33s-3.24,4.23-2.83,3.9,7.57-1.85,7.57-1.85Z"/><path id="path7385" class="cls-5" d="M741.79,102.53l-.12,4.54,2.39-.23-.11-4.42Z"/><path id="path7387" class="cls-6" d="M742.39,107l1.56-1.31-2.34,1.41,2.69,3,2-2.22L744,105.64l-1,.6"/><path id="path7389" class="cls-5" d="M744.21,102.89c1.13-.64,1.29-2.72,1.29-2.72v.32"/><path id="path7391" class="cls-5" d="M741,101.29l-.65.48.16,1,1,.48"/><path id="path7393" class="cls-3" d="M707.48,111.74l.37-14.5,2.52.25-.25,14.75Z"/><path id="path7399" class="cls-7" d="M982.14,81l.29.27"/><g id="g7520"><path id="path7397" class="cls-8" d="M995.08,105.25l-.2-.12"/><g id="g7474"><path id="path7401" class="cls-9" d="M981.74,83.5l0,.14"/></g></g><path id="path7537" class="cls-10" d="M761.87,166.56l0,.87"/></g><path id="path7399-2" data-name="path7399" class="cls-7" d="M350.4,64l-14.58-6.61"/><path id="path7397-2" data-name="path7397" class="cls-8" d="M349,60.42l-.29,21.3"/><path id="path7401-2" data-name="path7401" class="cls-9" d="M337.57,56.55,335.43,60"/><path id="path7403" class="cls-9" d="M339.58,57.58,337.27,61"/><path id="path7403-7" class="cls-9" d="M342,58.66l-2.32,3.45"/><path id="path7401-8" class="cls-9" d="M344.23,59.85l-2.15,3.41.05.14"/><path id="path7403-4" class="cls-9" d="M346.24,60.87l-2.32,3.46"/><path id="path7403-7-5" class="cls-9" d="M348.63,62l-2.31,3.45"/><path id="path7403-1" class="cls-9" d="M350.45,63l-2.31,3.45"/><path id="path7399-3" data-name="path7399" class="cls-7" d="M161,97.51l-14.58,6.6"/><path id="path7397-3" data-name="path7397" class="cls-8" d="M148.15,121.79l-.29-21.3"/><path id="path7401-3" data-name="path7401" class="cls-9" d="M161.41,100l-2.14-3.41"/><path id="path7403-2" data-name="path7403" class="cls-9" d="M159.57,101.11l-2.31-3.46"/><path id="path7403-7-2" data-name="path7403-7" class="cls-9" d="M157.18,102.19l-2.32-3.46"/><path id="path7401-8-2" data-name="path7401-8" class="cls-9" d="M154.71,103.48l0-.14-2.15-3.41"/><path id="path7403-4-2" data-name="path7403-4" class="cls-9" d="M152.92,104.4,150.6,101"/><path id="path7403-7-5-2" data-name="path7403-7-5" class="cls-9" d="M150.52,105.49,148.2,102"/><path id="path7403-1-2" data-name="path7403-1" class="cls-9" d="M148.7,106.48,146.39,103"/><path id="path7383-2" data-name="path7383" class="cls-4" d="M60.52,97.37c.41.33-2.81-3.9-2.81-3.9l-4.72,2"/><path id="path7383-3" data-name="path7383" class="cls-4" d="M53,95.51s7.13,1.53,7.53,1.86"/><path id="path7385-2" data-name="path7385" class="cls-5" d="M55.46,97.56,55.34,102l2.38.22-.11-4.53Z"/><path id="path7387-2" data-name="path7387" class="cls-6" d="M56.41,101.38l-.95-.61L53.13,103"/><path id="path7387-3" data-name="path7387" class="cls-6" d="M53.13,103l2,2.21"/><path id="path7387-4" data-name="path7387" class="cls-6" d="M55.05,105.29l2.67-3-2.67-.47-1.9,1.2"/><path id="path7389-2" data-name="path7389" class="cls-5" d="M53.92,95.62V95.3s.57,2.22,1.7,2.86"/><path id="path7391-2" data-name="path7391" class="cls-5" d="M57.47,98.58l1.42-.71.16-1-.64-.49"/></svg>