<?xml version="1.0" encoding="UTF-8" standalone="no"?>
<!-- Created with Inkscape (http://www.inkscape.org/) -->

<svg
   xmlns:osb="http://www.openswatchbook.org/uri/2009/osb"
   xmlns:dc="http://purl.org/dc/elements/1.1/"
   xmlns:cc="http://creativecommons.org/ns#"
   xmlns:rdf="http://www.w3.org/1999/02/22-rdf-syntax-ns#"
   xmlns:svg="http://www.w3.org/2000/svg"
   xmlns="http://www.w3.org/2000/svg"
   xmlns:xlink="http://www.w3.org/1999/xlink"
   xmlns:sodipodi="http://sodipodi.sourceforge.net/DTD/sodipodi-0.dtd"
   xmlns:inkscape="http://www.inkscape.org/namespaces/inkscape"
   width="1024"
   height="2000"
   viewBox="0 0 270.93333 529.16668"
   version="1.1"
   id="svg8"
   inkscape:version="0.92.4 (5da689c313, 2019-01-14)"
   sodipodi:docname="eltalesskyline-gradient-1024-test.svg">
  <defs
     id="defs2">
    <linearGradient
       id="linearGradient2459"
       inkscape:collect="always">
      <stop
         id="stop2463"
         offset="0"
         style="stop-color:#000000;stop-opacity:1;" />
      <stop
         style="stop-color:#000101;stop-opacity:0.99607843;"
         offset="0"
         id="stop2470" />
      <stop
         style="stop-color:#090d0f;stop-opacity:0.98431373;"
         offset="0.24019551"
         id="stop2468" />
      <stop
         id="stop2472"
         offset="0.699754"
         style="stop-color:#182828;stop-opacity:0.96862745;" />
      <stop
         id="stop2465"
         offset="1"
         style="stop-color:#365f5b;stop-opacity:0.94117647" />
    </linearGradient>
    <inkscape:path-effect
       effect="simplify"
       id="path-effect7232"
       is_visible="true"
       steps="1"
       threshold="0.0265217"
       smooth_angles="360"
       helper_size="0"
       simplify_individual_paths="false"
       simplify_just_coalesce="false"
       simplifyindividualpaths="false"
       simplifyJustCoalesce="false" />
    <linearGradient
       id="linearGradient7200"
       osb:paint="solid">
      <stop
         style="stop-color:#000000;stop-opacity:1;"
         offset="0"
         id="stop7198" />
    </linearGradient>
    <linearGradient
       inkscape:collect="always"
       xlink:href="#linearGradient2459"
       id="linearGradient2461"
       x1="50.701031"
       y1="-196.02896"
       x2="49.952671"
       y2="331.74817"
       gradientUnits="userSpaceOnUse"
       gradientTransform="matrix(0.99997991,0,0,1.0415879,191.31053,-11.127478)" />
    <clipPath
       clipPathUnits="userSpaceOnUse"
       id="clipPath939">
      <rect
         style="opacity:0.10700001;fill:#dbe2e3;fill-opacity:1;fill-rule:nonzero;stroke:#e6b1c8;stroke-width:0.26499999;stroke-linecap:round;stroke-linejoin:round;stroke-miterlimit:4;stroke-dasharray:none;stroke-dashoffset:27.2125988;stroke-opacity:1"
         id="rect941"
         width="119.59466"
         height="87.229095"
         x="-12.235755"
         y="-232.74097" />
    </clipPath>
  </defs>
  <sodipodi:namedview
     id="base"
     pagecolor="#ffffff"
     bordercolor="#666666"
     borderopacity="1.0"
     inkscape:pageopacity="0.0"
     inkscape:pageshadow="2"
     inkscape:zoom="0.474"
     inkscape:cx="277.97325"
     inkscape:cy="1923.8716"
     inkscape:document-units="mm"
     inkscape:current-layer="layer2"
     showgrid="false"
     units="px"
     inkscape:snap-global="false"
     inkscape:window-width="1366"
     inkscape:window-height="705"
     inkscape:window-x="-8"
     inkscape:window-y="-8"
     inkscape:window-maximized="1"
     showguides="false">
    <inkscape:grid
       type="xygrid"
       id="grid7539" />
  </sodipodi:namedview>
  <metadata
     id="metadata5">
    <rdf:RDF>
      <cc:Work
         rdf:about="">
        <dc:format>image/svg+xml</dc:format>
        <dc:type
           rdf:resource="http://purl.org/dc/dcmitype/StillImage" />
        <dc:title />
      </cc:Work>
    </rdf:RDF>
  </metadata>
  <g
     inkscape:label="Calque 1"
     inkscape:groupmode="layer"
     id="layer1"
     transform="translate(0,232.16668)" />
  <g
     inkscape:groupmode="layer"
     id="layer2"
     inkscape:label="Calque 2"
     transform="translate(0,264.58333)">
    <path
       style="fill:url(#linearGradient2461);fill-opacity:1;fill-rule:nonzero;stroke:#000000;stroke-width:0.27045155;stroke-linecap:round;stroke-linejoin:round;stroke-miterlimit:4;stroke-dasharray:none;stroke-opacity:1"
       d="m 191.25605,-222.2043 c 0.0544,0.11123 0.10752,0.22148 0.15955,0.33021 0.71435,1.49291 1.21847,2.69814 1.80086,2.19509 2.12873,-1.83877 4.01219,-3.89708 5.7111,-5.99343 1.55904,1.93493 3.11808,3.71725 4.67712,4.87174 v 0.76061 l -1.03664,-0.008 c 0.12137,0.45714 0.35693,0.94401 0,1.27661 1.40044,0.086 2.26362,0.0426 3.77946,0.008 -0.35053,-0.50885 -0.21115,-1.11976 0.0635,-1.75883 l -1.20269,-0.1392 c 1.39723,-2.07084 2.96989,-4.9333 3.87532,-7.51639 0.46215,1.1089 0.6589,2.74127 1.7224,3.34906 0.23302,-1.28905 0.67845,-3.45404 0.0926,-5.3406 l -0.55785,-0.0978 0.008,-0.7332 0.55225,-0.1075 0.0171,-0.6942 c 2.98209,-0.76384 5.60904,-0.41795 8.22079,-0.0246 l 0.0999,0.73563 0.66661,0.0857 -0.13709,0.73845 -0.51535,-6.3e-4 c -0.0728,1.22879 -0.31589,2.24857 0.49743,5.11111 0.56872,-0.12331 1.17007,-0.11066 1.6198,-0.72974 l 0.14173,-1.59576 h -0.80179 c 2.82467,-2.769 4.85816,-5.8912 6.81524,-9.04751 2.05236,3.38464 3.74033,6.28822 6.39096,8.49188 0.21911,0.16991 -0.12366,2.7e-4 -1.17931,-0.0419 -0.13239,0.43547 -0.23889,0.77251 0,1.20798 h 0.6142 c 0.36236,0.49212 0.21425,0.98424 -0.0472,1.47636 h -0.47246 c -0.24732,1.25309 -0.4648,2.50618 -0.0945,3.75928 2.0682,-1.76741 3.48871,-4.43435 4.81075,-7.23801 0.744,1.12814 1.21738,2.39678 1.84653,3.12834 0.57816,-2.24295 0.14117,-4.66213 0.0243,-7.02572 2.43228,-0.49292 4.7757,-0.43045 7.0825,-0.1392 l -0.26726,1.53111 c 2.31799,-2.45764 3.89183,-5.53538 5.61254,-8.49072 1.45506,4.43308 4.12833,8.17406 6.94887,11.83135 l -1.46995,-0.34449 c -0.0981,1.76995 -0.47864,3.59874 0,5.24854 1.54789,-0.7414 2.9862,-0.4555 4.40987,-0.0323 0.50049,-5.80011 0.64279,-13.27573 0.29157,-18.90072 l 0.82218,0.008 v -1.60975 h -0.87753 c -0.0853,-0.83389 0.31414,-1.12439 0.31521,-1.8826 -0.16897,-0.14675 -0.81324,-0.10875 -0.81324,-0.10875 1.6292,-1.33584 3.661,-4.09194 4.61128,-5.71767 1.37299,2.07533 2.96515,3.46248 4.78712,5.04397 L 271.2346,265.75274 0.3151437,264.68989 -0.09599012,-221.58326 c 1.83022162,-1.50344 3.15010102,-3.32585 4.32745752,-5.23732 1.117093,1.55082 2.4730682,2.68694 3.9844453,3.55328 2.2557533,-2.2759 3.0551873,-3.98295 4.3511363,-5.88395 1.969832,3.42934 4.082522,6.70988 6.962955,9.19073 1.053763,-0.79593 1.864942,-1.76032 2.524499,-2.82999 0.85025,0.90399 1.707037,1.78072 2.686306,2.14715 0.352141,-3.31299 0.702572,-6.6265 0.15565,-10.20705 2.365302,-0.4335 4.771235,-0.52843 7.267655,0.13067 -0.04432,0.19951 -0.583987,4.06937 -0.0445,5.59695 1.079078,-0.74075 1.650693,-2.14221 2.215456,-3.5526 0.636354,2.06251 1.492538,3.98764 2.78504,5.64008 2.753926,-1.14035 4.867745,-0.54719 6.979392,0.0519 0.01436,2.33293 -0.199351,3.70557 0.01485,5.09576 0.777576,-0.55837 1.386544,-1.23381 1.969292,-1.92747 1.301913,1.57753 3.017022,2.75361 4.987793,3.50411 0.147003,-1.51137 0.144385,-3.0758 -0.01131,-4.85107 l 0.540764,0.0368 c 0.164223,-0.40047 0.110056,-0.91562 0.01606,-1.38333 l -0.591329,0.0506 c 2.441485,-2.46574 4.30392,-5.13254 5.629078,-7.98588 1.952638,2.75122 3.756412,5.6575 6.418083,7.67019 0.04194,-0.53494 -0.02119,-1.32202 0.40758,-2.20006 2.215185,-0.52597 5.407189,-0.86085 8.180555,-0.23368 0.487246,1.02274 0.385252,1.63632 0.33297,2.28442 1.112512,-1.17642 1.634326,-2.35285 2.243054,-3.52928 1.000086,2.15212 2.115123,4.21444 3.637551,5.95849 1.529464,-0.0948 3.083842,-0.60606 4.487779,-1.76045 -0.193069,-0.45667 -0.07662,-0.88841 -0.02294,-1.21657 l -0.896868,-0.15791 c 3.612018,-1.50243 6.643166,-3.81158 9.47009,-6.40437 l 0.326987,0.11424 c 0.112628,-0.2226 0.110164,-0.50515 -0.04024,-0.86474 -0.252104,-0.22036 -0.603982,-0.025 -0.914724,-10e-4 1.982878,-1.71435 3.145606,-3.76533 4.757371,-6.0595 1.56224,2.24528 2.490446,3.91128 4.609917,5.9631 -0.356994,-0.0829 -0.713988,-0.19167 -1.070982,0.0571 -0.218614,1.28479 -0.227033,2.78853 -0.06372,4.18045 3.794647,0.34193 6.961327,0.48508 10.755977,0.24566 -0.29491,1.19274 -0.24593,2.38548 0.0166,3.57822 l -0.42372,-0.008 c -0.28978,1.1676 -0.27743,2.44011 -0.009,3.80148 7.39096,-3.14096 13.15058,-2.83174 18.13101,0.42555 0.38948,-0.88842 0.78,-2.00141 0.65846,-3.02291 -0.20312,-0.0194 -0.40099,-0.0279 -0.66777,-0.17986 l -10e-4,-0.29932 c 2.91379,-2.02493 5.43165,-4.54473 7.68826,-7.3911 1.34452,1.50134 2.69286,3.01162 4.29469,4.24597 2.71107,-2.44229 4.64715,-5.55728 6.58823,-8.66793 2.14377,4.12682 4.47555,8.01863 7.27433,11.32672 l -0.68522,0.13014 0.24892,0.43281 c 1.2813,0.52918 1.9942,0.0717 2.91944,-0.0173 0.16153,-0.81575 0.15576,-1.80573 0.0546,-2.89508 -0.63398,-1.82661 -0.43563,-2.66926 0.009,-3.68361 0.0192,-0.0436 -0.099,-0.14203 -0.14712,-0.2781 -0.0344,-0.0973 -0.003,-0.2263 0.002,-0.31081 0.0114,-0.19963 0.2858,-0.0981 0.2845,-0.15318 l 0.003,-0.17994 c 1.55609,-0.20707 3.09553,-0.20612 4.61873,-0.002 0.0174,0.0783 0.0104,0.14376 0.028,0.22205 0.0125,0.0555 0.21709,0.0713 0.26493,0.14177 0.065,0.0957 0.009,0.27029 -0.0208,0.33221 -0.0431,0.0894 -0.16193,0.17451 -0.14478,0.25544 0.26203,1.23693 0.4705,2.33754 -0.14574,3.72693 -0.236,1.8215 -0.26844,2.50802 0.0803,4.69981 1.45098,0.0128 2.9206,-0.0207 4.15062,-0.29051 -0.036,0.10511 -0.007,0.27825 -5e-4,0.42736 0.21648,-0.10663 0.3979,-0.0672 0.56815,0.0187 0.17428,-1.35104 0.13605,-2.50839 0.0358,-3.70416 1.59465,-0.64019 4.03993,-0.44956 5.99802,0.0679 -0.18549,1.94827 -0.22902,3.69939 0.14054,4.87683 1.15141,-0.2733 2.38366,-0.20991 3.6665,0.0643 -0.13538,-0.85513 0.0823,-1.43447 0.3112,-2.00504 l -0.87862,-0.10374 c 2.94766,-1.81399 5.51502,-3.95022 8.04405,-6.34561 1.1128,1.91946 2.16046,3.13901 3.39228,4.47442 l 0.0553,-0.42851 c 1.47408,0.0469 2.94814,0.12127 4.42221,0.0295 l 2.1e-4,0.36344 c 0.42496,0.0335 0.51986,-0.39137 0.68026,-0.72529 z"
       id="path11"
       inkscape:connector-curvature="0"
       sodipodi:nodetypes="csscccccccccccccccccccccccccccccccccccccccccccccccsccccccccccccccccccccccccccccccccccccccccccccccccccccccccccssscccsssscccccccccccccccccc" />
    <path
       style="fill:none;stroke:#000000;stroke-width:0;stroke-linecap:butt;stroke-linejoin:miter;stroke-miterlimit:4;stroke-dasharray:none;stroke-opacity:1"
       d="m 38.766183,-212.28088 c 0.153186,-0.13079 0.338707,-0.22435 0.473209,-0.37502 0.02222,-0.0249 0.129046,-0.0502 0.10709,-0.0502 -0.01232,0 -0.02464,0 -0.03696,0"
       id="path7230"
       inkscape:connector-curvature="0"
       inkscape:path-effect="#path-effect7232"
       inkscape:original-d="m 38.766183,-212.28088 c 0.157353,-0.13455 0.327885,-0.23339 0.448847,-0.35435 0.03032,-0.0303 0.07178,-0.0482 0.09449,-0.0709 0.01114,-0.0111 0.06299,0 0.04725,0 -0.01574,0 -0.0315,0 -0.04725,0"
       transform="translate(191.55834,-0.5291667)" />
    <ellipse
       style="opacity:1;fill:#000000;fill-opacity:1;fill-rule:nonzero;stroke:#000000;stroke-width:0.1;stroke-linecap:round;stroke-linejoin:round;stroke-miterlimit:4;stroke-dasharray:none;stroke-dashoffset:27.2125988;stroke-opacity:1"
       id="path7347"
       cx="252.06982"
       cy="-220.38855"
       rx="0.31571212"
       ry="0.28063297" />
    <ellipse
       style="opacity:1;fill:#000000;fill-opacity:1;fill-rule:nonzero;stroke:#000000;stroke-width:0.1;stroke-linecap:round;stroke-linejoin:round;stroke-miterlimit:4;stroke-dasharray:none;stroke-dashoffset:27.2125988;stroke-opacity:1"
       id="path7349"
       cx="252.06982"
       cy="-220.93813"
       rx="0.1987817"
       ry="0.22216779" />
    <ellipse
       style="opacity:1;fill:#000000;fill-opacity:1;fill-rule:nonzero;stroke:#000000;stroke-width:0.1;stroke-linecap:round;stroke-linejoin:round;stroke-miterlimit:4;stroke-dasharray:none;stroke-dashoffset:27.2125988;stroke-opacity:1"
       id="path7351"
       cx="252.05814"
       cy="-221.19536"
       rx="0.023386084"
       ry="0.52618688" />
    <path
       style="opacity:1;fill:#000000;fill-opacity:1;fill-rule:nonzero;stroke:#000000;stroke-width:0.1;stroke-linecap:round;stroke-linejoin:round;stroke-miterlimit:4;stroke-dasharray:none;stroke-dashoffset:27.2125988;stroke-opacity:1"
       d="m 244.73829,-214.96298 -0.0702,1.61364 0.58465,0.0234 0.0234,-1.63703 z"
       id="path7377"
       inkscape:connector-curvature="0" />
    <path
       style="opacity:1;fill:#000000;fill-opacity:1;fill-rule:nonzero;stroke:#000000;stroke-width:0.1;stroke-linecap:round;stroke-linejoin:round;stroke-miterlimit:4;stroke-dasharray:none;stroke-dashoffset:27.2125988;stroke-opacity:1"
       d="m 245.62696,-214.9396 -0.11693,1.61364 0.58466,-0.0234 0.0234,-1.61364 z"
       id="path7379"
       inkscape:connector-curvature="0" />
    <path
       style="opacity:1;fill:#000000;fill-opacity:1;fill-rule:nonzero;stroke:#000000;stroke-width:0.1;stroke-linecap:round;stroke-linejoin:round;stroke-miterlimit:4;stroke-dasharray:none;stroke-dashoffset:27.2125988;stroke-opacity:1"
       d="m 244.41089,-214.96298 v 1.52009 l -0.53788,-0.0702 0.0702,-1.49671 z"
       id="path7381"
       inkscape:connector-curvature="0" />
    <path
       style="opacity:1;fill:#000000;fill-opacity:1;fill-rule:nonzero;stroke:#000000;stroke-width:0.21797077;stroke-linecap:round;stroke-linejoin:round;stroke-miterlimit:4;stroke-dasharray:none;stroke-dashoffset:27.2125988;stroke-opacity:1"
       d="m 193.88826,-204.92023 c 0,0 -0.85183,1.12064 -0.74464,1.033 0.1072,-0.0876 1.99381,-0.49082 1.99381,-0.49082 z"
       id="path7383"
       inkscape:connector-curvature="0" />
    <path
       style="opacity:1;fill:#000000;fill-opacity:1;fill-rule:nonzero;stroke:#000000;stroke-width:0.18133411;stroke-linecap:round;stroke-linejoin:round;stroke-miterlimit:4;stroke-dasharray:none;stroke-dashoffset:27.2125988;stroke-opacity:1"
       d="m 193.91425,-203.80771 -0.03,1.19943 0.62971,-0.06 -0.03,-1.16946 z"
       id="path7385"
       inkscape:connector-curvature="0" />
    <path
       style="opacity:1;fill:#000000;fill-opacity:1;fill-rule:nonzero;stroke:#000000;stroke-width:0.14904392;stroke-linecap:round;stroke-linejoin:round;stroke-miterlimit:4;stroke-dasharray:none;stroke-dashoffset:27.2125988;stroke-opacity:1"
       d="m 194.07341,-202.48811 0.41058,-0.34622 -0.61587,0.37284 0.70711,0.79894 0.52463,-0.58589 -0.61587,-0.58589 -0.25091,0.15976"
       id="path7387"
       inkscape:connector-curvature="0" />
    <path
       style="opacity:1;fill:#000000;fill-opacity:1;fill-rule:nonzero;stroke:#000000;stroke-width:0.18133411;stroke-linecap:round;stroke-linejoin:round;stroke-miterlimit:4;stroke-dasharray:none;stroke-dashoffset:27.2125988;stroke-opacity:1"
       d="m 194.55182,-203.71309 c 0.29685,-0.16955 0.33925,-0.72093 0.33925,-0.72093 v 0.0849"
       id="path7389"
       inkscape:connector-curvature="0" />
    <path
       style="opacity:1;fill:#000000;fill-opacity:1;fill-rule:nonzero;stroke:#000000;stroke-width:0.18133411;stroke-linecap:round;stroke-linejoin:round;stroke-miterlimit:4;stroke-dasharray:none;stroke-dashoffset:27.2125988;stroke-opacity:1"
       d="m 193.70368,-204.13716 -0.16963,0.1273 0.0424,0.25444 0.25444,0.1273"
       id="path7391"
       inkscape:connector-curvature="0" />
    <path
       style="opacity:1;fill:#000000;fill-opacity:1;fill-rule:nonzero;stroke:#000000;stroke-width:0.1;stroke-linecap:round;stroke-linejoin:round;stroke-miterlimit:4;stroke-dasharray:none;stroke-dashoffset:27.2125988;stroke-opacity:1"
       d="m 260.41615,-202.67082 0.0992,-3.83646 0.66146,0.0661 -0.0661,3.90261 z"
       id="path7393"
       inkscape:connector-curvature="0" />
    <path
       style="opacity:1;fill:#000000;fill-opacity:1;fill-rule:nonzero;stroke:#000000;stroke-width:0.10603159;stroke-linecap:round;stroke-linejoin:round;stroke-miterlimit:4;stroke-dasharray:none;stroke-dashoffset:27.2125988;stroke-opacity:1"
       d="m 262.99233,-228.9777 -3.85816,-1.74847 0.0788,0.0715"
       id="path7399"
       inkscape:connector-curvature="0" />
    <g
       id="g7520"
       transform="matrix(-0.76825121,0,0,1.002493,293.00453,-13.663882)">
      <path
         inkscape:connector-curvature="0"
         id="path7397"
         d="m 39.555208,-215.73463 0.09922,5.62239 0.06614,-0.0331"
         style="opacity:1;fill:#000000;fill-opacity:1;fill-rule:nonzero;stroke:#000000;stroke-width:0.2;stroke-linecap:round;stroke-linejoin:round;stroke-miterlimit:4;stroke-dasharray:none;stroke-dashoffset:27.2125988;stroke-opacity:1" />
      <g
         transform="matrix(1.2583863,-0.19436381,0.33336973,0.82346751,61.70486,-30.112716)"
         id="g7474">
        <path
           style="opacity:1;fill:#000000;fill-opacity:1;fill-rule:nonzero;stroke:#000000;stroke-width:0.09865432;stroke-linecap:round;stroke-linejoin:round;stroke-miterlimit:4;stroke-dasharray:none;stroke-dashoffset:27.2125988;stroke-opacity:1"
           d="m 42.883364,-216.53114 0.279709,1.15954 -0.02356,0.0393"
           id="path7401"
           inkscape:connector-curvature="0" />
        <path
           style="opacity:1;fill:#000000;fill-opacity:1;fill-rule:nonzero;stroke:#000000;stroke-width:0.09865432;stroke-linecap:round;stroke-linejoin:round;stroke-miterlimit:4;stroke-dasharray:none;stroke-dashoffset:27.2125988;stroke-opacity:1"
           d="m 42.283914,-216.34435 0.320124,1.18247"
           id="path7403"
           inkscape:connector-curvature="0" />
        <path
           style="opacity:1;fill:#000000;fill-opacity:1;fill-rule:nonzero;stroke:#000000;stroke-width:0.09865432;stroke-linecap:round;stroke-linejoin:round;stroke-miterlimit:4;stroke-dasharray:none;stroke-dashoffset:27.2125988;stroke-opacity:1"
           d="m 41.580063,-216.16409 0.320123,1.18246"
           id="path7403-7"
           inkscape:connector-curvature="0" />
        <path
           style="opacity:1;fill:#000000;fill-opacity:1;fill-rule:nonzero;stroke:#000000;stroke-width:0.09865432;stroke-linecap:round;stroke-linejoin:round;stroke-miterlimit:4;stroke-dasharray:none;stroke-dashoffset:27.2125988;stroke-opacity:1"
           d="m 40.904834,-215.94124 0.279709,1.15953 -0.02356,0.0393"
           id="path7401-8"
           inkscape:connector-curvature="0" />
        <path
           style="opacity:1;fill:#000000;fill-opacity:1;fill-rule:nonzero;stroke:#000000;stroke-width:0.09865432;stroke-linecap:round;stroke-linejoin:round;stroke-miterlimit:4;stroke-dasharray:none;stroke-dashoffset:27.2125988;stroke-opacity:1"
           d="m 40.305384,-215.75445 0.320124,1.18246"
           id="path7403-4"
           inkscape:connector-curvature="0" />
        <path
           style="opacity:1;fill:#000000;fill-opacity:1;fill-rule:nonzero;stroke:#000000;stroke-width:0.09865432;stroke-linecap:round;stroke-linejoin:round;stroke-miterlimit:4;stroke-dasharray:none;stroke-dashoffset:27.2125988;stroke-opacity:1"
           d="m 39.601532,-215.57419 0.320124,1.18246"
           id="path7403-7-5"
           inkscape:connector-curvature="0" />
        <path
           style="opacity:1;fill:#000000;fill-opacity:1;fill-rule:nonzero;stroke:#000000;stroke-width:0.09865432;stroke-linecap:round;stroke-linejoin:round;stroke-miterlimit:4;stroke-dasharray:none;stroke-dashoffset:27.2125988;stroke-opacity:1"
           d="m 39.054296,-215.38412 0.320124,1.18246"
           id="path7403-1"
           inkscape:connector-curvature="0" />
      </g>
    </g>
    <path
       style="opacity:1;fill:#000000;fill-opacity:1;fill-rule:nonzero;stroke:#000000;stroke-width:0.065;stroke-linecap:round;stroke-linejoin:round;stroke-miterlimit:4;stroke-dasharray:none;stroke-dashoffset:27.2125988;stroke-opacity:1"
       d="m 201.16602,-208.07826 -0.005,0.22994"
       id="path7537"
       inkscape:connector-curvature="0"
       sodipodi:nodetypes="cc" />
  </g>
</svg>
