<svg xmlns="http://www.w3.org/2000/svg" viewBox="0 0 414.76 56.62"><defs><style>.cls-1{fill:#ed1e79;}</style></defs><title>logo-horizontal</title><g id="Calque_2" data-name="Calque 2"><g id="Calque_1-2" data-name="Calque 1"><path class="cls-1" d="M4.33,38.85V49.12a2.35,2.35,0,0,0,.79,1.77,3.64,3.64,0,0,0,1.74,1,1.71,1.71,0,0,1,.36,0l.36,0H20.75v3.33H7.58a6.32,6.32,0,0,1-4.66-1.92A6.32,6.32,0,0,1,1,48.69v-41A6.43,6.43,0,0,1,3,3,6.35,6.35,0,0,1,7.58,1H20.75V4.33H7.58a2.15,2.15,0,0,0-.43,0l-.51.1a4.09,4.09,0,0,0-1.59,1,2.35,2.35,0,0,0-.72,1.63V35.52H24.08v3.33Z"/><path class="cls-1" d="M33.27,55.27a6.39,6.39,0,0,1-4.63-1.92,6.27,6.27,0,0,1-1.95-4.66V1H30V48.69a3.21,3.21,0,0,0,3.25,3.25h16.5v3.33Z"/><path class="cls-1" d="M55.7,38.85V49.12a2.36,2.36,0,0,0,.8,1.77,3.64,3.64,0,0,0,1.74,1,1.86,1.86,0,0,1,.36,0l.36,0H72.13v3.33H59a6.54,6.54,0,0,1-6.58-6.58v-41A6.43,6.43,0,0,1,54.33,3,6.34,6.34,0,0,1,59,1H72.13V4.33H59a2.09,2.09,0,0,0-.43,0l-.51.1a4,4,0,0,0-1.59,1,2.36,2.36,0,0,0-.73,1.63V35.52H75.46v3.33Z"/><path class="cls-1" d="M100.68,51.4a12.68,12.68,0,0,1-9.3,3.87,12.54,12.54,0,0,1-9.26-3.87,12.73,12.73,0,0,1-3.84-9.3l-.07-27.93a12.6,12.6,0,0,1,3.91-9.3,13,13,0,0,1,18.52,0,12.63,12.63,0,0,1,3.91,9.26v9.91h-3.33V21.62c0-.72.07-1.46.07-2.2s0-1.49-.07-2.21A23.63,23.63,0,0,0,99.3,8.34q-1.77-4-7.92-4a9.48,9.48,0,0,0-6.95,2.89,9.48,9.48,0,0,0-2.89,7V42.1A9.88,9.88,0,0,0,91.38,52a9.44,9.44,0,0,0,7-2.93,9.66,9.66,0,0,0,2.89-7h3.33A12.68,12.68,0,0,1,100.68,51.4Z"/><path class="cls-1" d="M119.6,4.26v51h-3.26v-51h-9V1h21.34V4.26Z"/><path class="cls-1" d="M151.8,55.27c0-.34,0-.72,0-1.16s0-.89,0-1.37c0-.77.09-1.59.11-2.46s0-1.74,0-2.61a16.36,16.36,0,0,0-1.37-6.07c-.82-1.84-2.41-2.75-4.78-2.75H136V55.27H132.7V1h9.19a12.58,12.58,0,0,1,9.22,3.87A12.61,12.61,0,0,1,155,14.1V28.93a9.64,9.64,0,0,1-1.12,4.63,10.08,10.08,0,0,1-3.22,3.55,12.91,12.91,0,0,1,3.22,3.62,9.05,9.05,0,0,1,1.2,4.7v9.84Zm-.07-41.17a9.5,9.5,0,0,0-2.9-6.91,9.38,9.38,0,0,0-6.94-2.93H136V35.59c.44,0,.89,0,1.38,0s1,0,1.52,0,1.15,0,1.73,0,1.19,0,1.81,0a17.2,17.2,0,0,0,6.41-1.3q2.92-1.23,2.93-5.5Z"/><path class="cls-1" d="M181.79,51.4a13,13,0,0,1-18.49,0,13,13,0,0,1-3.9-9.32v-28a12.58,12.58,0,0,1,3.87-9.27,13,13,0,0,1,18.49,0,12.56,12.56,0,0,1,3.9,9.23v28A12.73,12.73,0,0,1,181.79,51.4Zm.55-37.29a9.55,9.55,0,0,0-2.9-6.92,9.65,9.65,0,0,0-13.82,0,9.48,9.48,0,0,0-2.89,7v28a9.68,9.68,0,0,0,2.85,7,9.47,9.47,0,0,0,7,2.9,9.29,9.29,0,0,0,6.91-2.94,9.71,9.71,0,0,0,2.86-7Z"/><path class="cls-1" d="M210.41,55.27V24a19,19,0,0,0-4.7-12.66A20.47,20.47,0,0,0,194,4.55V55.27h-3.26V1.07a21.32,21.32,0,0,1,11.32,3,24.09,24.09,0,0,1,8.36,8.28V1h3.26V55.27Z"/><path class="cls-1" d="M220.54,55.27V1h3.33V55.27Z"/><path class="cls-1" d="M252.13,51.4a12.68,12.68,0,0,1-9.3,3.87,12.54,12.54,0,0,1-9.26-3.87,12.73,12.73,0,0,1-3.84-9.3l-.07-27.93a12.6,12.6,0,0,1,3.91-9.3,13,13,0,0,1,18.52,0A12.63,12.63,0,0,1,256,14.17v9.91h-3.33V21.62c.05-.72.07-1.46.07-2.2s0-1.49-.07-2.21a23.44,23.44,0,0,0-1.92-8.87q-1.77-4-7.92-4a9.48,9.48,0,0,0-7,2.89,9.48,9.48,0,0,0-2.89,7V42.1A9.88,9.88,0,0,0,242.83,52a9.44,9.44,0,0,0,6.95-2.93,9.62,9.62,0,0,0,2.89-7H256A12.68,12.68,0,0,1,252.13,51.4Z"/><path class="cls-1" d="M7.58,54.27a5.3,5.3,0,0,1-3.95-1.63,5.33,5.33,0,0,1-1.63-4v-41a5.44,5.44,0,0,1,1.66-4A5.34,5.34,0,0,1,7.58,2H19.75V3.32H7.58A4,4,0,0,0,7,3.37c-.17,0-.37.07-.59.13A5.06,5.06,0,0,0,4.32,4.83a3.34,3.34,0,0,0-1,2.32V36.52H23.08v1.32H3.32V49.12a3.37,3.37,0,0,0,1.11,2.5,4.68,4.68,0,0,0,2.2,1.23l.12,0h.11l.2,0a3.75,3.75,0,0,0,.52.05H19.75v1.32Z"/><path class="cls-1" d="M33.27,54.27a5.38,5.38,0,0,1-3.92-1.63,5.27,5.27,0,0,1-1.66-4V2H29V48.69A4.23,4.23,0,0,0,33.27,53h15.5v1.32Z"/><path class="cls-1" d="M59,54.27a5.55,5.55,0,0,1-5.58-5.58v-41a5.41,5.41,0,0,1,1.66-4A5.34,5.34,0,0,1,59,2H71.13V3.32H59a4,4,0,0,0-.6.05c-.17,0-.36.07-.58.13A5,5,0,0,0,55.7,4.83a3.34,3.34,0,0,0-1,2.32V36.52H74.45v1.32H54.7V49.12a3.34,3.34,0,0,0,1.11,2.5A4.68,4.68,0,0,0,58,52.85l.11,0h.12l.2,0A3.75,3.75,0,0,0,59,53H71.13v1.32Z"/><path class="cls-1" d="M91.38,54.27a11.48,11.48,0,0,1-8.55-3.58,11.66,11.66,0,0,1-3.54-8.59l-.08-27.93a11.53,11.53,0,0,1,3.61-8.58,12,12,0,0,1,17.11,0,11.59,11.59,0,0,1,3.61,8.55v8.91h-1.32V21.62c0-.69.08-1.45.08-2.2s0-1.52-.08-2.28a24.5,24.5,0,0,0-2-9.2c-1.35-3.06-4.33-4.62-8.84-4.62a10.52,10.52,0,0,0-7.66,3.19,10.52,10.52,0,0,0-3.19,7.66V42.1A10.89,10.89,0,0,0,91.38,53a11,11,0,0,0,10.8-9.91h1.33A12.24,12.24,0,0,1,91.38,54.27Z"/><polygon class="cls-1" points="117.35 54.27 117.35 3.25 108.3 3.25 108.3 2 127.64 2 127.64 3.25 118.59 3.25 118.59 54.27 117.35 54.27"/><path class="cls-1" d="M152.83,54.27a.34.34,0,0,0,0-.1c0-.45,0-.93,0-1.43,0-.72.08-1.55.11-2.43s0-1.8,0-2.69a17.61,17.61,0,0,0-1.46-6.43c-.69-1.53-2.23-3.35-5.7-3.35H135V54.27H133.7V2h8.19a11.55,11.55,0,0,1,8.51,3.57A11.54,11.54,0,0,1,154,14.1V28.93a8.79,8.79,0,0,1-1,4.16,9.11,9.11,0,0,1-2.91,3.19l-1.12.78,1.07.84a12,12,0,0,1,3,3.34,8.15,8.15,0,0,1,1.05,4.19v8.84ZM135,36.59h1c.42,0,.86,0,1.33,0s1,0,1.57,0,1.13,0,1.69,0,1.21,0,1.85,0a18.61,18.61,0,0,0,6.8-1.38c2.35-1,3.54-3.15,3.54-6.43V14.1a10.53,10.53,0,0,0-3.18-7.62,10.45,10.45,0,0,0-7.66-3.23H135Z"/><path class="cls-1" d="M172.57,54.27A11.48,11.48,0,0,1,164,50.69a12,12,0,0,1-3.62-8.62v-28A11.52,11.52,0,0,1,164,5.55a12,12,0,0,1,17.07,0,11.49,11.49,0,0,1,3.61,8.52v28a11.66,11.66,0,0,1-3.58,8.61A11.5,11.5,0,0,1,172.57,54.27Zm-.08-51a10.39,10.39,0,0,0-7.58,3.2,10.46,10.46,0,0,0-3.19,7.66v28a10.65,10.65,0,0,0,3.15,7.73,10.45,10.45,0,0,0,7.7,3.2,10.31,10.31,0,0,0,7.63-3.24,10.71,10.71,0,0,0,3.14-7.69v-28a10.55,10.55,0,0,0-3.18-7.62A10.43,10.43,0,0,0,172.49,3.25Z"/><path class="cls-1" d="M211.42,54.27V24a20.13,20.13,0,0,0-4.95-13.32,21.59,21.59,0,0,0-12.28-7.13L193,3.31v51h-1.25V2.09a20.19,20.19,0,0,1,9.81,2.85,23.17,23.17,0,0,1,8,8l1.87,3V2h1.24V54.27Z"/><rect class="cls-1" x="221.55" y="2.01" width="1.32" height="52.26"/><path class="cls-1" d="M242.83,54.27a11.48,11.48,0,0,1-8.55-3.58,11.66,11.66,0,0,1-3.54-8.59l-.08-27.93a11.57,11.57,0,0,1,3.61-8.58,12,12,0,0,1,17.11,0A11.59,11.59,0,0,1,255,14.17v8.91h-1.31V21.62c0-.68.07-1.45.07-2.2s0-1.52-.08-2.28a24.31,24.31,0,0,0-2-9.2c-1.35-3.06-4.32-4.62-8.84-4.62a10.53,10.53,0,0,0-7.66,3.19A10.52,10.52,0,0,0,232,14.17V42.1A10.89,10.89,0,0,0,242.83,53a11,11,0,0,0,10.8-9.91H255a12.24,12.24,0,0,1-12.13,11.16Z"/><path class="cls-1" d="M290.82,4.6v51h-3.25V4.6h-9.05V1.35h21.35V4.6Z"/><path class="cls-1" d="M325,55.47V39H305.22V55.47H302V14.37A12.69,12.69,0,0,1,305.8,5a13,13,0,0,1,18.53.07,12.67,12.67,0,0,1,3.9,9.26v41.1Zm0-41.1a9.54,9.54,0,0,0-2.93-7,9.58,9.58,0,0,0-7-2.93,9.48,9.48,0,0,0-6.91,2.93,9.54,9.54,0,0,0-2.93,7V35.72H325Z"/><path class="cls-1" d="M340,55.62a6.37,6.37,0,0,1-4.63-1.92,6.27,6.27,0,0,1-2-4.67V1.35h3.33V49a3.18,3.18,0,0,0,.94,2.32,3.14,3.14,0,0,0,2.32.94h16.5v3.33Z"/><path class="cls-1" d="M364.56,39.19V49.47a2.38,2.38,0,0,0,.79,1.77,3.73,3.73,0,0,0,1.74,1l.36,0a1.87,1.87,0,0,0,.37,0H381v3.33H367.82A6.56,6.56,0,0,1,361.23,49V8a6.41,6.41,0,0,1,1.95-4.7,6.36,6.36,0,0,1,4.64-1.95H381V4.68H367.82a3.15,3.15,0,0,0-.44,0l-.51.11a3.81,3.81,0,0,0-1.59,1,2.35,2.35,0,0,0-.72,1.63V35.86h19.75v3.33Z"/><path class="cls-1" d="M410.51,28.48c0-.58,0-1.21,0-1.91s.06-1.42.11-2.14c.05-.91.09-1.87.11-2.86s0-2,0-3a26.07,26.07,0,0,0-2-9.59Q406.9,4.6,400.59,4.6a9.47,9.47,0,0,0-6.94,2.9,9.47,9.47,0,0,0-2.9,6.94V30.08c0,.77.51,1.38,1.52,1.84a28.29,28.29,0,0,0,3.84,1.34c.87.19,1.78.41,2.75.65s1.95.51,3,.8a26.85,26.85,0,0,1,7.6,3.61c2.32,1.6,3.48,4.08,3.48,7.46v.4a1.18,1.18,0,0,1-.08.39,10.24,10.24,0,0,1-2.93,6.23,8.21,8.21,0,0,1-6.18,2.82H387.42V52.29h15.63a6.09,6.09,0,0,0,4.74-1.95,6.84,6.84,0,0,0,1.78-4.78,4.41,4.41,0,0,0-.08-.83,5.61,5.61,0,0,0-.21-.83,8.12,8.12,0,0,0-1.41-2.61,4.85,4.85,0,0,0-2.28-1.66L390.1,34.42a3.7,3.7,0,0,1-2-1.7,5.49,5.49,0,0,1-.65-2.64V14.44a12.56,12.56,0,0,1,3.91-9.22,13,13,0,0,1,18.53,0,12.55,12.55,0,0,1,3.9,9.22v14Z"/><polygon class="cls-1" points="288.57 54.62 288.57 3.6 279.53 3.6 279.53 2.35 298.86 2.35 298.86 3.6 289.82 3.6 289.82 54.62 288.57 54.62"/><path class="cls-1" d="M326,54.47V38H304.22v16.5H303V14.37a11.63,11.63,0,0,1,3.54-8.62,12,12,0,0,1,17.11.07,11.59,11.59,0,0,1,3.61,8.55v40.1Zm-10.92-51a10.46,10.46,0,0,0-7.62,3.23,10.54,10.54,0,0,0-3.22,7.69V36.72H326V14.37a10.54,10.54,0,0,0-3.22-7.69A10.56,10.56,0,0,0,315.06,3.45Z"/><path class="cls-1" d="M340,54.61A5.36,5.36,0,0,1,336.1,53,5.28,5.28,0,0,1,334.45,49V2.35h1.32V49A4.22,4.22,0,0,0,340,53.3h15.49v1.31Z"/><path class="cls-1" d="M367.82,54.61A5.55,5.55,0,0,1,362.23,49V8a5.42,5.42,0,0,1,1.66-4,5.35,5.35,0,0,1,3.93-1.66H380V3.67H367.82a3.94,3.94,0,0,0-.6.05c-.17,0-.37.07-.59.13a4.86,4.86,0,0,0-2.08,1.33,3.3,3.3,0,0,0-1,2.32V36.87h19.76v1.32H363.55V49.47a3.37,3.37,0,0,0,1.11,2.5,4.74,4.74,0,0,0,2.21,1.23l.11,0h.11l.2,0a3.87,3.87,0,0,0,.53,0H380v1.31Z"/><path class="cls-1" d="M388.43,54.61V53.3h14.62A7.08,7.08,0,0,0,408.54,51a7.85,7.85,0,0,0,2-5.45,5.66,5.66,0,0,0-.09-1,6,6,0,0,0-.25-1,9.19,9.19,0,0,0-1.57-2.91,5.86,5.86,0,0,0-2.76-2l-15.48-5.21A2.56,2.56,0,0,1,389,32.23a4.31,4.31,0,0,1-.53-2.15V14.44A11.47,11.47,0,0,1,392,5.93a12,12,0,0,1,17.11,0,11.47,11.47,0,0,1,3.61,8.51v13h-1.24c0-.28,0-.58,0-.88,0-.69.06-1.39.11-2.1,0-.94.08-1.9.11-2.9s0-2,0-3a27.08,27.08,0,0,0-2.11-10c-1.42-3.3-4.48-5-9.1-5a10.45,10.45,0,0,0-7.65,3.19,10.45,10.45,0,0,0-3.19,7.65V30.08a3,3,0,0,0,2.11,2.76,28.9,28.9,0,0,0,4,1.39c.91.2,1.82.42,2.77.66s1.93.5,2.94.78a26.39,26.39,0,0,1,7.3,3.48c2,1.41,3,3.57,3,6.63v.4l0,.11,0,.2a9.14,9.14,0,0,1-2.66,5.62,7.21,7.21,0,0,1-5.45,2.5Z"/><path class="cls-1" d="M7.58,56.27a7.33,7.33,0,0,1-5.37-2.21A7.31,7.31,0,0,1,0,48.69v-41A7.41,7.41,0,0,1,2.25,2.25,7.31,7.31,0,0,1,7.58,0H21.75V5.33H7.58l-.26,0-.43.09a2.83,2.83,0,0,0-1.11.77,1.4,1.4,0,0,0-.45.94V34.52H25.08v5.33H5.33v9.27a1.39,1.39,0,0,0,.48,1.05A2.86,2.86,0,0,0,7,50.88a2.9,2.9,0,0,1,.38,0l.2,0H21.75v5.33Z"/><path class="cls-1" d="M4.33,38.85V49.12a2.35,2.35,0,0,0,.79,1.77,3.64,3.64,0,0,0,1.74,1,1.71,1.71,0,0,1,.36,0l.36,0H20.75v3.33H7.58a6.32,6.32,0,0,1-4.66-1.92A6.32,6.32,0,0,1,1,48.69v-41A6.43,6.43,0,0,1,3,3,6.35,6.35,0,0,1,7.58,1H20.75V4.33H7.58a2.15,2.15,0,0,0-.43,0l-.51.1a4.09,4.09,0,0,0-1.59,1,2.35,2.35,0,0,0-.72,1.63V35.52H24.08v3.33Z"/><path class="cls-1" d="M33.27,56.27a7.6,7.6,0,0,1-7.58-7.58V0H31V48.69a2.2,2.2,0,0,0,2.25,2.25h17.5v5.33Z"/><path class="cls-1" d="M33.27,55.27a6.39,6.39,0,0,1-4.63-1.92,6.27,6.27,0,0,1-1.95-4.66V1H30V48.69a3.21,3.21,0,0,0,3.25,3.25h16.5v3.33Z"/><path class="cls-1" d="M59,56.27a7.55,7.55,0,0,1-7.58-7.58v-41a7.4,7.4,0,0,1,2.24-5.41A7.33,7.33,0,0,1,59,0H73.13V5.33H59l-.27,0-.43.09a2.9,2.9,0,0,0-1.11.77,1.4,1.4,0,0,0-.45.94V34.52H76.46v5.33H56.7v9.27a1.4,1.4,0,0,0,.49,1.05,2.86,2.86,0,0,0,1.19.71,2.9,2.9,0,0,1,.38,0l.2,0H73.13v5.33Z"/><path class="cls-1" d="M55.7,38.85V49.12a2.36,2.36,0,0,0,.8,1.77,3.64,3.64,0,0,0,1.74,1,1.86,1.86,0,0,1,.36,0l.36,0H72.13v3.33H59a6.54,6.54,0,0,1-6.58-6.58v-41A6.43,6.43,0,0,1,54.33,3,6.34,6.34,0,0,1,59,1H72.13V4.33H59a2.09,2.09,0,0,0-.43,0l-.51.1a4,4,0,0,0-1.59,1,2.36,2.36,0,0,0-.73,1.63V35.52H75.46v3.33Z"/><path class="cls-1" d="M91.38,56.27a13.56,13.56,0,0,1-10-4.17,13.74,13.74,0,0,1-4.13-10l-.07-27.93a13.65,13.65,0,0,1,4.2-10,14,14,0,0,1,19.94,0,13.67,13.67,0,0,1,4.2,10V25.08h-5.33V21.62c0-.77.07-1.49.07-2.2s0-1.44-.07-2.15a22.62,22.62,0,0,0-1.83-8.52c-1-2.3-3.31-3.42-7-3.42a8.44,8.44,0,0,0-6.24,2.6,8.44,8.44,0,0,0-2.6,6.24V42.1A8.89,8.89,0,0,0,91.38,51a8.39,8.39,0,0,0,6.23-2.64,8.53,8.53,0,0,0,2.61-6.28v-1h5.33v1A14.22,14.22,0,0,1,91.38,56.27Z"/><path class="cls-1" d="M100.68,51.4a12.68,12.68,0,0,1-9.3,3.87,12.54,12.54,0,0,1-9.26-3.87,12.73,12.73,0,0,1-3.84-9.3l-.07-27.93a12.6,12.6,0,0,1,3.91-9.3,13,13,0,0,1,18.52,0,12.63,12.63,0,0,1,3.91,9.26v9.91h-3.33V21.62c0-.72.07-1.46.07-2.2s0-1.49-.07-2.21A23.63,23.63,0,0,0,99.3,8.34q-1.77-4-7.92-4a9.48,9.48,0,0,0-6.95,2.89,9.48,9.48,0,0,0-2.89,7V42.1A9.88,9.88,0,0,0,91.38,52a9.44,9.44,0,0,0,7-2.93,9.66,9.66,0,0,0,2.89-7h3.33A12.68,12.68,0,0,1,100.68,51.4Z"/><polygon class="cls-1" points="115.34 56.27 115.34 5.26 106.3 5.26 106.3 0 129.65 0 129.65 5.26 120.6 5.26 120.6 56.27 115.34 56.27"/><path class="cls-1" d="M119.6,4.26v51h-3.26v-51h-9V1h21.34V4.26Z"/><path class="cls-1" d="M150.8,56.27v-1c0-.35,0-.76,0-1.21s0-.86,0-1.32c0-.82.09-1.63.11-2.49s0-1.68,0-2.52A15.88,15.88,0,0,0,149.66,42c-.66-1.47-1.89-2.15-3.87-2.15H137V56.27H131.7V0h10.19a13.63,13.63,0,0,1,9.93,4.16A13.65,13.65,0,0,1,156,14.1V28.93a10.57,10.57,0,0,1-1.24,5.1,10.72,10.72,0,0,1-2.51,3.12,13.59,13.59,0,0,1,2.49,3.07,10.05,10.05,0,0,1,1.34,5.21V56.27ZM137.38,34.63q.69,0,1.47,0c.59,0,1.18,0,1.77,0s1.16,0,1.77,0a16.24,16.24,0,0,0,6-1.22c1.56-.65,2.32-2.15,2.32-4.58V14.1a8.47,8.47,0,0,0-2.61-6.21,8.38,8.38,0,0,0-6.23-2.63H137V34.61Z"/><path class="cls-1" d="M151.8,55.27c0-.34,0-.72,0-1.16s0-.89,0-1.37c0-.77.09-1.59.11-2.46s0-1.74,0-2.61a16.36,16.36,0,0,0-1.37-6.07c-.82-1.84-2.41-2.75-4.78-2.75H136V55.27H132.7V1h9.19a12.58,12.58,0,0,1,9.22,3.87A12.61,12.61,0,0,1,155,14.1V28.93a9.64,9.64,0,0,1-1.12,4.63,10.08,10.08,0,0,1-3.22,3.55,12.91,12.91,0,0,1,3.22,3.62,9.05,9.05,0,0,1,1.2,4.7v9.84Zm-.07-41.17a9.5,9.5,0,0,0-2.9-6.91,9.38,9.38,0,0,0-6.94-2.93H136V35.59c.44,0,.89,0,1.38,0s1,0,1.52,0,1.15,0,1.73,0,1.19,0,1.81,0a17.2,17.2,0,0,0,6.41-1.3q2.92-1.23,2.93-5.5Z"/><path class="cls-1" d="M172.57,56.27a13.58,13.58,0,0,1-10-4.17,14.05,14.05,0,0,1-4.19-10v-28a13.61,13.61,0,0,1,4.16-10,14,14,0,0,1,19.9,0,13.56,13.56,0,0,1,4.2,9.94v28a13.75,13.75,0,0,1-4.16,10A13.58,13.58,0,0,1,172.57,56.27Zm-.07-51a8.35,8.35,0,0,0-6.17,2.6,8.47,8.47,0,0,0-2.6,6.25v28a8.58,8.58,0,0,0,2.57,6.32A8.39,8.39,0,0,0,172.57,51a8.26,8.26,0,0,0,6.19-2.64,8.65,8.65,0,0,0,2.58-6.29v-28a8.53,8.53,0,0,0-2.61-6.22A8.38,8.38,0,0,0,172.5,5.26Z"/><path class="cls-1" d="M181.79,51.4a13,13,0,0,1-18.49,0,13,13,0,0,1-3.9-9.32v-28a12.58,12.58,0,0,1,3.87-9.27,13,13,0,0,1,18.49,0,12.56,12.56,0,0,1,3.9,9.23v28A12.73,12.73,0,0,1,181.79,51.4Zm.55-37.29a9.55,9.55,0,0,0-2.9-6.92,9.65,9.65,0,0,0-13.82,0,9.48,9.48,0,0,0-2.89,7v28a9.68,9.68,0,0,0,2.85,7,9.47,9.47,0,0,0,7,2.9,9.29,9.29,0,0,0,6.91-2.94,9.71,9.71,0,0,0,2.86-7Z"/><path class="cls-1" d="M209.41,56.27V24A18.09,18.09,0,0,0,205,12a19.51,19.51,0,0,0-10-6.19V56.27h-5.26V.08H191a22.34,22.34,0,0,1,11.56,3.15,24.92,24.92,0,0,1,6.84,6V0h5.26V56.27Z"/><path class="cls-1" d="M210.41,55.27V24a19,19,0,0,0-4.7-12.66A20.47,20.47,0,0,0,194,4.55V55.27h-3.26V1.07a21.32,21.32,0,0,1,11.32,3,24.09,24.09,0,0,1,8.36,8.28V1h3.26V55.27Z"/><rect class="cls-1" x="219.54" width="5.33" height="56.27"/><path class="cls-1" d="M220.54,55.27V1h3.33V55.27Z"/><path class="cls-1" d="M242.83,56.27a13.56,13.56,0,0,1-10-4.17,13.74,13.74,0,0,1-4.13-10l-.07-27.93a13.63,13.63,0,0,1,4.2-10,14,14,0,0,1,19.94,0,13.67,13.67,0,0,1,4.2,10V25.08h-5.33V21.62c.05-.77.07-1.49.07-2.2s0-1.44-.07-2.15a22.62,22.62,0,0,0-1.83-8.52c-1-2.3-3.31-3.42-7-3.42a8.44,8.44,0,0,0-6.24,2.6,8.44,8.44,0,0,0-2.6,6.24V42.1A8.89,8.89,0,0,0,242.83,51a8.38,8.38,0,0,0,6.23-2.64,8.53,8.53,0,0,0,2.61-6.28v-1H257v1a14.2,14.2,0,0,1-14.17,14.17Z"/><path class="cls-1" d="M252.13,51.4a12.68,12.68,0,0,1-9.3,3.87,12.54,12.54,0,0,1-9.26-3.87,12.73,12.73,0,0,1-3.84-9.3l-.07-27.93a12.6,12.6,0,0,1,3.91-9.3,13,13,0,0,1,18.52,0A12.63,12.63,0,0,1,256,14.17v9.91h-3.33V21.62c.05-.72.07-1.46.07-2.2s0-1.49-.07-2.21a23.44,23.44,0,0,0-1.92-8.87q-1.77-4-7.92-4a9.48,9.48,0,0,0-7,2.89,9.48,9.48,0,0,0-2.89,7V42.1A9.88,9.88,0,0,0,242.83,52a9.44,9.44,0,0,0,6.95-2.93,9.62,9.62,0,0,0,2.89-7H256A12.68,12.68,0,0,1,252.13,51.4Z"/><path class="cls-1" d="M7.58,55.27a6.38,6.38,0,0,1-4.66-1.92A6.38,6.38,0,0,1,1,48.69v-41A6.4,6.4,0,0,1,3,3,6.32,6.32,0,0,1,7.58,1H20.75V4.32H7.58a3.13,3.13,0,0,0-.43,0c-.14,0-.31.06-.51.11a3.84,3.84,0,0,0-1.59,1,2.32,2.32,0,0,0-.73,1.63V35.52H24.08v3.32H4.32V49.12a2.35,2.35,0,0,0,.8,1.78,3.82,3.82,0,0,0,1.74,1h0l.36,0a1.86,1.86,0,0,0,.36,0H20.75v3.32Z"/><path class="cls-1" d="M7.58,54.27a5.3,5.3,0,0,1-3.95-1.63,5.33,5.33,0,0,1-1.63-4v-41a5.44,5.44,0,0,1,1.66-4A5.34,5.34,0,0,1,7.58,2H19.75V3.32H7.58A4,4,0,0,0,7,3.37c-.17,0-.37.07-.59.13A5.06,5.06,0,0,0,4.32,4.83a3.34,3.34,0,0,0-1,2.32V36.52H23.08v1.32H3.32V49.12a3.37,3.37,0,0,0,1.11,2.5,4.68,4.68,0,0,0,2.2,1.23l.12,0h.11l.2,0a3.75,3.75,0,0,0,.52.05H19.75v1.32Z"/><path class="cls-1" d="M33.27,55.27a6.4,6.4,0,0,1-4.62-1.92,6.3,6.3,0,0,1-2-4.66V1H30V48.69A3.21,3.21,0,0,0,33.27,52h16.5v3.32Z"/><path class="cls-1" d="M33.27,54.27a5.38,5.38,0,0,1-3.92-1.63,5.27,5.27,0,0,1-1.66-4V2H29V48.69A4.23,4.23,0,0,0,33.27,53h15.5v1.32Z"/><path class="cls-1" d="M59,55.27a6.56,6.56,0,0,1-6.58-6.58v-41A6.43,6.43,0,0,1,54.33,3,6.36,6.36,0,0,1,59,1H72.13V4.32H59a3.13,3.13,0,0,0-.43,0,4.33,4.33,0,0,0-.51.11,3.93,3.93,0,0,0-1.6,1,2.35,2.35,0,0,0-.72,1.63V35.52H75.45v3.32H55.7V49.12a2.35,2.35,0,0,0,.8,1.78,3.84,3.84,0,0,0,1.73,1h0l.35,0A2,2,0,0,0,59,52H72.13v3.32Z"/><path class="cls-1" d="M59,54.27a5.55,5.55,0,0,1-5.58-5.58v-41a5.41,5.41,0,0,1,1.66-4A5.34,5.34,0,0,1,59,2H71.13V3.32H59a4,4,0,0,0-.6.05c-.17,0-.36.07-.58.13A5,5,0,0,0,55.7,4.83a3.34,3.34,0,0,0-1,2.32V36.52H74.45v1.32H54.7V49.12a3.34,3.34,0,0,0,1.11,2.5A4.68,4.68,0,0,0,58,52.85l.11,0h.12l.2,0A3.75,3.75,0,0,0,59,53H71.13v1.32Z"/><path class="cls-1" d="M91.38,55.27a12.47,12.47,0,0,1-9.26-3.87,12.64,12.64,0,0,1-3.83-9.3l-.08-27.93a12.49,12.49,0,0,1,3.91-9.29,13,13,0,0,1,18.52,0,12.54,12.54,0,0,1,3.9,9.26v9.91h-3.31V21.62c0-.73.07-1.47.07-2.2s0-1.48-.07-2.21a23.78,23.78,0,0,0-1.92-8.87c-1.18-2.66-3.85-4-7.93-4a9.53,9.53,0,0,0-6.95,2.9,9.53,9.53,0,0,0-2.9,7V42.1a9.6,9.6,0,0,0,2.9,7,9.74,9.74,0,0,0,13.9,0A9.63,9.63,0,0,0,101.19,43l.07-.91h3.32l-.07,1.07A13.25,13.25,0,0,1,91.38,55.27Z"/><path class="cls-1" d="M91.38,54.27a11.48,11.48,0,0,1-8.55-3.58,11.66,11.66,0,0,1-3.54-8.59l-.08-27.93a11.53,11.53,0,0,1,3.61-8.58,12,12,0,0,1,17.11,0,11.59,11.59,0,0,1,3.61,8.55v8.91h-1.32V21.62c0-.69.08-1.45.08-2.2s0-1.52-.08-2.28a24.5,24.5,0,0,0-2-9.2c-1.35-3.06-4.33-4.62-8.84-4.62a10.52,10.52,0,0,0-7.66,3.19,10.52,10.52,0,0,0-3.19,7.66V42.1A10.89,10.89,0,0,0,91.38,53a11,11,0,0,0,10.8-9.91h1.33A12.24,12.24,0,0,1,91.38,54.27Z"/><polygon class="cls-1" points="116.35 55.27 116.35 4.25 107.3 4.25 107.3 1 128.64 1 128.64 4.25 119.59 4.25 119.59 55.27 116.35 55.27"/><polygon class="cls-1" points="117.35 54.27 117.35 3.25 108.3 3.25 108.3 2 127.64 2 127.64 3.25 118.59 3.25 118.59 54.27 117.35 54.27"/><path class="cls-1" d="M151.77,55.27l.07-1.07c0-.52,0-1,0-1.46,0-.77.08-1.59.11-2.46s0-1.76,0-2.6a16.62,16.62,0,0,0-1.38-6.09c-.81-1.82-2.42-2.75-4.78-2.75H136V55.27H132.7V1h9.19a12.48,12.48,0,0,1,9.22,3.88A12.49,12.49,0,0,1,155,14.1V28.93a9.75,9.75,0,0,1-1.12,4.63,10.06,10.06,0,0,1-3.22,3.54h0a13.21,13.21,0,0,1,3.22,3.62,9.17,9.17,0,0,1,1.19,4.7v9.84ZM136,35.59c.44,0,.89,0,1.38,0s1,0,1.52,0,1.15,0,1.73,0,1.19,0,1.81,0a17.65,17.65,0,0,0,6.41-1.3c2-.83,2.93-2.63,2.93-5.51V14.1a9.58,9.58,0,0,0-2.89-6.92,9.48,9.48,0,0,0-7-2.93H136Z"/><path class="cls-1" d="M152.83,54.27a.34.34,0,0,0,0-.1c0-.45,0-.93,0-1.43,0-.72.08-1.55.11-2.43s0-1.8,0-2.69a17.61,17.61,0,0,0-1.46-6.43c-.69-1.53-2.23-3.35-5.7-3.35H135V54.27H133.7V2h8.19a11.55,11.55,0,0,1,8.51,3.57A11.54,11.54,0,0,1,154,14.1V28.93a8.79,8.79,0,0,1-1,4.16,9.11,9.11,0,0,1-2.91,3.19l-1.12.78,1.07.84a12,12,0,0,1,3,3.34,8.15,8.15,0,0,1,1.05,4.19v8.84ZM135,36.59h1c.42,0,.86,0,1.33,0s1,0,1.57,0,1.13,0,1.69,0,1.21,0,1.85,0a18.61,18.61,0,0,0,6.8-1.38c2.35-1,3.54-3.15,3.54-6.43V14.1a10.53,10.53,0,0,0-3.18-7.62,10.45,10.45,0,0,0-7.66-3.23H135Z"/><path class="cls-1" d="M172.57,55.27a12.44,12.44,0,0,1-9.26-3.88,12.92,12.92,0,0,1-3.91-9.31v-28a12.51,12.51,0,0,1,3.87-9.27,13,13,0,0,1,18.48,0,12.45,12.45,0,0,1,3.91,9.23v28a12.61,12.61,0,0,1-3.87,9.31A12.46,12.46,0,0,1,172.57,55.27Zm-.07-51a9.44,9.44,0,0,0-6.88,2.9,9.57,9.57,0,0,0-2.9,7v28a9.67,9.67,0,0,0,2.86,7,9.5,9.5,0,0,0,7,2.9,9.33,9.33,0,0,0,6.91-2.94,9.69,9.69,0,0,0,2.86-7v-28a9.58,9.58,0,0,0-2.89-6.92A9.48,9.48,0,0,0,172.5,4.25Z"/><path class="cls-1" d="M172.57,54.27A11.48,11.48,0,0,1,164,50.69a12,12,0,0,1-3.62-8.62v-28A11.52,11.52,0,0,1,164,5.55a12,12,0,0,1,17.07,0,11.49,11.49,0,0,1,3.61,8.52v28a11.66,11.66,0,0,1-3.58,8.61A11.5,11.5,0,0,1,172.57,54.27Zm-.08-51a10.39,10.39,0,0,0-7.58,3.2,10.46,10.46,0,0,0-3.19,7.66v28a10.65,10.65,0,0,0,3.15,7.73,10.45,10.45,0,0,0,7.7,3.2,10.31,10.31,0,0,0,7.63-3.24,10.71,10.71,0,0,0,3.14-7.69v-28a10.55,10.55,0,0,0-3.18-7.62A10.43,10.43,0,0,0,172.49,3.25Z"/><path class="cls-1" d="M210.42,55.27V24a19.15,19.15,0,0,0-4.71-12.67A20.58,20.58,0,0,0,194,4.54h0V55.27h-3.25V1.05l1,0a21.25,21.25,0,0,1,10.28,3,24.18,24.18,0,0,1,8.36,8.28V1h3.24V55.27Z"/><path class="cls-1" d="M211.42,54.27V24a20.13,20.13,0,0,0-4.95-13.32,21.59,21.59,0,0,0-12.28-7.13L193,3.31v51h-1.25V2.09a20.19,20.19,0,0,1,9.81,2.85,23.17,23.17,0,0,1,8,8l1.87,3V2h1.24V54.27Z"/><rect class="cls-1" x="220.55" y="1" width="3.32" height="54.26"/><rect class="cls-1" x="221.55" y="2.01" width="1.32" height="52.26"/><path class="cls-1" d="M242.83,55.27a12.47,12.47,0,0,1-9.26-3.87,12.64,12.64,0,0,1-3.83-9.3l-.07-27.93a12.48,12.48,0,0,1,3.9-9.29,13,13,0,0,1,18.52,0A12.55,12.55,0,0,1,256,14.17v9.91h-3.32V21.62c0-.73.07-1.47.07-2.2s0-1.48-.07-2.21a23.78,23.78,0,0,0-1.92-8.87c-1.18-2.66-3.85-4-7.93-4a9.53,9.53,0,0,0-7,2.9,9.53,9.53,0,0,0-2.9,7V42.1a9.59,9.59,0,0,0,2.9,7,9.74,9.74,0,0,0,13.9,0A9.63,9.63,0,0,0,252.64,43l.08-.91H256L256,43.18a13.23,13.23,0,0,1-13.13,12.09Z"/><path class="cls-1" d="M242.83,54.27a11.48,11.48,0,0,1-8.55-3.58,11.66,11.66,0,0,1-3.54-8.59l-.08-27.93a11.57,11.57,0,0,1,3.61-8.58,12,12,0,0,1,17.11,0A11.59,11.59,0,0,1,255,14.17v8.91h-1.31V21.62c0-.68.07-1.45.07-2.2s0-1.52-.08-2.28a24.31,24.31,0,0,0-2-9.2c-1.35-3.06-4.32-4.62-8.84-4.62a10.53,10.53,0,0,0-7.66,3.19A10.52,10.52,0,0,0,232,14.17V42.1A10.89,10.89,0,0,0,242.83,53a11,11,0,0,0,10.8-9.91H255a12.24,12.24,0,0,1-12.13,11.16Z"/><polygon class="cls-1" points="286.57 56.62 286.57 5.6 277.52 5.6 277.52 0.35 300.87 0.35 300.87 5.6 291.82 5.6 291.82 56.62 286.57 56.62"/><path class="cls-1" d="M290.82,4.6v51h-3.25V4.6h-9.05V1.35h21.35V4.6Z"/><path class="cls-1" d="M324,56.47V40H306.22V56.47H301V14.37a13.72,13.72,0,0,1,4.12-10A14,14,0,0,1,325,4.4a13.67,13.67,0,0,1,4.2,10v42.1Zm0-21.75V14.37a8.5,8.5,0,0,0-2.64-6.27,8.5,8.5,0,0,0-6.28-2.64,8.38,8.38,0,0,0-6.2,2.64,8.46,8.46,0,0,0-2.64,6.27V34.72Z"/><path class="cls-1" d="M325,55.47V39H305.22V55.47H302V14.37A12.69,12.69,0,0,1,305.8,5a13,13,0,0,1,18.53.07,12.67,12.67,0,0,1,3.9,9.26v41.1Zm0-41.1a9.54,9.54,0,0,0-2.93-7,9.58,9.58,0,0,0-7-2.93,9.48,9.48,0,0,0-6.91,2.93,9.54,9.54,0,0,0-2.93,7V35.72H325Z"/><path class="cls-1" d="M340,56.62a7.38,7.38,0,0,1-5.33-2.2A7.29,7.29,0,0,1,332.44,49V.35h5.33V49A2.22,2.22,0,0,0,340,51.29h17.5v5.33Z"/><path class="cls-1" d="M340,55.62a6.37,6.37,0,0,1-4.63-1.92,6.27,6.27,0,0,1-2-4.67V1.35h3.33V49a3.18,3.18,0,0,0,.94,2.32,3.14,3.14,0,0,0,2.32.94h16.5v3.33Z"/><path class="cls-1" d="M367.82,56.62A7.55,7.55,0,0,1,360.23,49V8a7.44,7.44,0,0,1,2.25-5.41A7.31,7.31,0,0,1,367.82.35H382V5.68H367.82a1.23,1.23,0,0,0-.27,0l-.43.09a2.83,2.83,0,0,0-1.11.77,1.38,1.38,0,0,0-.45.94V34.86h19.75v5.33H365.56v9.28a1.39,1.39,0,0,0,.48,1.05,2.73,2.73,0,0,0,1.19.7,3.07,3.07,0,0,1,.38.05l.21,0H382v5.33Z"/><path class="cls-1" d="M364.56,39.19V49.47a2.38,2.38,0,0,0,.79,1.77,3.73,3.73,0,0,0,1.74,1l.36,0a1.87,1.87,0,0,0,.37,0H381v3.33H367.82A6.56,6.56,0,0,1,361.23,49V8a6.41,6.41,0,0,1,1.95-4.7,6.36,6.36,0,0,1,4.64-1.95H381V4.68H367.82a3.15,3.15,0,0,0-.44,0l-.51.11a3.81,3.81,0,0,0-1.59,1,2.35,2.35,0,0,0-.72,1.63V35.86h19.75v3.33Z"/><path class="cls-1" d="M386.42,56.62V51.29h16.63a5.07,5.07,0,0,0,4-1.63,5.82,5.82,0,0,0,1.52-4.1,3.68,3.68,0,0,0-.06-.66,5.32,5.32,0,0,0-.18-.68,7.15,7.15,0,0,0-1.25-2.31,3.76,3.76,0,0,0-1.81-1.33l-15.49-5.22a4.61,4.61,0,0,1-2.58-2.17,6.3,6.3,0,0,1-.78-3.11V14.44a13.56,13.56,0,0,1,4.21-9.93,14,14,0,0,1,19.93,0,13.55,13.55,0,0,1,4.2,9.93v15h-5.25v-1c0-.58,0-1.24,0-1.95s.07-1.43.11-2.17.09-1.83.11-2.81,0-2,0-3a24.9,24.9,0,0,0-1.95-9.19c-1.09-2.54-3.46-3.78-7.26-3.78a8.42,8.42,0,0,0-6.24,2.61,8.43,8.43,0,0,0-2.6,6.23V30.08c0,.12,0,.51.93.93a27.12,27.12,0,0,0,3.7,1.29c.82.18,1.75.4,2.72.64s2,.51,3,.81A28.09,28.09,0,0,1,410,37.5c2.59,1.78,3.91,4.57,3.91,8.28v.4a2.05,2.05,0,0,1-.09.58,11.29,11.29,0,0,1-3.19,6.72,9.23,9.23,0,0,1-6.91,3.14Z"/><path class="cls-1" d="M410.51,28.48c0-.58,0-1.21,0-1.91s.06-1.42.11-2.14c.05-.91.09-1.87.11-2.86s0-2,0-3a26.07,26.07,0,0,0-2-9.59Q406.9,4.6,400.59,4.6a9.47,9.47,0,0,0-6.94,2.9,9.47,9.47,0,0,0-2.9,6.94V30.08c0,.77.51,1.38,1.52,1.84a28.29,28.29,0,0,0,3.84,1.34c.87.19,1.78.41,2.75.65s1.95.51,3,.8a26.85,26.85,0,0,1,7.6,3.61c2.32,1.6,3.48,4.08,3.48,7.46v.4a1.18,1.18,0,0,1-.08.39,10.24,10.24,0,0,1-2.93,6.23,8.21,8.21,0,0,1-6.18,2.82H387.42V52.29h15.63a6.09,6.09,0,0,0,4.74-1.95,6.84,6.84,0,0,0,1.78-4.78,4.41,4.41,0,0,0-.08-.83,5.61,5.61,0,0,0-.21-.83,8.12,8.12,0,0,0-1.41-2.61,4.85,4.85,0,0,0-2.28-1.66L390.1,34.42a3.7,3.7,0,0,1-2-1.7,5.49,5.49,0,0,1-.65-2.64V14.44a12.56,12.56,0,0,1,3.91-9.22,13,13,0,0,1,18.53,0,12.55,12.55,0,0,1,3.9,9.22v14Z"/><polygon class="cls-1" points="287.57 55.62 287.57 4.6 278.53 4.6 278.53 1.35 299.86 1.35 299.86 4.6 290.82 4.6 290.82 55.62 287.57 55.62"/><polygon class="cls-1" points="288.57 54.62 288.57 3.6 279.53 3.6 279.53 2.35 298.86 2.35 298.86 3.6 289.82 3.6 289.82 54.62 288.57 54.62"/><path class="cls-1" d="M325,55.47V39H305.22v16.5H302V14.37A12.58,12.58,0,0,1,305.8,5a13,13,0,0,1,18.52.07,12.55,12.55,0,0,1,3.91,9.26v41.1Zm0-19.75V14.37a9.54,9.54,0,0,0-2.93-7,9.59,9.59,0,0,0-7-2.94,9.47,9.47,0,0,0-6.91,2.94,9.54,9.54,0,0,0-2.93,7V35.72Z"/><path class="cls-1" d="M326,54.47V38H304.22v16.5H303V14.37a11.63,11.63,0,0,1,3.54-8.62,12,12,0,0,1,17.11.07,11.59,11.59,0,0,1,3.61,8.55v40.1Zm-10.92-51a10.46,10.46,0,0,0-7.62,3.23,10.54,10.54,0,0,0-3.22,7.69V36.72H326V14.37a10.54,10.54,0,0,0-3.22-7.69A10.56,10.56,0,0,0,315.06,3.45Z"/><path class="cls-1" d="M340,55.61a6.42,6.42,0,0,1-4.63-1.91A6.33,6.33,0,0,1,333.45,49V1.35h3.32V49A3.23,3.23,0,0,0,340,52.3h16.49v3.31Z"/><path class="cls-1" d="M340,54.61A5.36,5.36,0,0,1,336.1,53,5.28,5.28,0,0,1,334.45,49V2.35h1.32V49A4.22,4.22,0,0,0,340,53.3h15.49v1.31Z"/><path class="cls-1" d="M367.82,55.61A6.54,6.54,0,0,1,361.23,49V8a6.44,6.44,0,0,1,2-4.7,6.36,6.36,0,0,1,4.63-1.95H381V4.67H367.82a2.12,2.12,0,0,0-.44,0,4.8,4.8,0,0,0-.51.11,3.84,3.84,0,0,0-1.59,1,2.3,2.3,0,0,0-.73,1.63V35.87h19.76v3.32H364.55V49.47a2.34,2.34,0,0,0,.8,1.77,3.64,3.64,0,0,0,1.74,1h0a2.94,2.94,0,0,1,.37,0,2.81,2.81,0,0,0,.36,0H381v3.31Z"/><path class="cls-1" d="M367.82,54.61A5.55,5.55,0,0,1,362.23,49V8a5.42,5.42,0,0,1,1.66-4,5.35,5.35,0,0,1,3.93-1.66H380V3.67H367.82a3.94,3.94,0,0,0-.6.05c-.17,0-.37.07-.59.13a4.86,4.86,0,0,0-2.08,1.33,3.3,3.3,0,0,0-1,2.32V36.87h19.76v1.32H363.55V49.47a3.37,3.37,0,0,0,1.11,2.5,4.74,4.74,0,0,0,2.21,1.23l.11,0h.11l.2,0a3.87,3.87,0,0,0,.53,0H380v1.31Z"/><path class="cls-1" d="M387.43,55.61V52.3h15.62a6.13,6.13,0,0,0,4.75-2,6.86,6.86,0,0,0,1.77-4.78,4.57,4.57,0,0,0-.07-.83,5.38,5.38,0,0,0-.22-.83,7.93,7.93,0,0,0-1.41-2.61,4.92,4.92,0,0,0-2.28-1.67L390.1,34.41a3.6,3.6,0,0,1-2-1.7,5.31,5.31,0,0,1-.65-2.63V14.44a12.46,12.46,0,0,1,3.9-9.22,13,13,0,0,1,18.52,0,12.43,12.43,0,0,1,3.91,9.22v14H410.5l0-1,0-.89c0-.7.06-1.42.11-2.14,0-.91.08-1.87.11-2.86s0-2,0-3a26.11,26.11,0,0,0-2-9.59C407.51,6,404.83,4.6,400.59,4.6a9.52,9.52,0,0,0-6.95,2.89,9.53,9.53,0,0,0-2.89,7V30.08c0,.77.51,1.39,1.52,1.85a26.23,26.23,0,0,0,3.84,1.33c.87.2,1.78.41,2.75.66s1.95.5,3,.79a27,27,0,0,1,7.6,3.62c2.34,1.61,3.47,4,3.47,7.45v.55l-.06.19,0,.13a10.07,10.07,0,0,1-2.92,6.14,8.14,8.14,0,0,1-6.18,2.82Z"/><path class="cls-1" d="M388.43,54.61V53.3h14.62A7.08,7.08,0,0,0,408.54,51a7.85,7.85,0,0,0,2-5.45,5.66,5.66,0,0,0-.09-1,6,6,0,0,0-.25-1,9.19,9.19,0,0,0-1.57-2.91,5.86,5.86,0,0,0-2.76-2l-15.48-5.21A2.56,2.56,0,0,1,389,32.23a4.31,4.31,0,0,1-.53-2.15V14.44A11.47,11.47,0,0,1,392,5.93a12,12,0,0,1,17.11,0,11.47,11.47,0,0,1,3.61,8.51v13h-1.24c0-.28,0-.58,0-.88,0-.69.06-1.39.11-2.1,0-.94.08-1.9.11-2.9s0-2,0-3a27.08,27.08,0,0,0-2.11-10c-1.42-3.3-4.48-5-9.1-5a10.45,10.45,0,0,0-7.65,3.19,10.45,10.45,0,0,0-3.19,7.65V30.08a3,3,0,0,0,2.11,2.76,28.9,28.9,0,0,0,4,1.39c.91.2,1.82.42,2.77.66s1.93.5,2.94.78a26.39,26.39,0,0,1,7.3,3.48c2,1.41,3,3.57,3,6.63v.4l0,.11,0,.2a9.14,9.14,0,0,1-2.66,5.62,7.21,7.21,0,0,1-5.45,2.5Z"/></g></g></svg>