<svg id="svg8" xmlns="http://www.w3.org/2000/svg" xmlns:xlink="http://www.w3.org/1999/xlink" viewBox="0 0 1024 172.56"><defs><style>.cls-1,.cls-10,.cls-3,.cls-4,.cls-5,.cls-6,.cls-7,.cls-8,.cls-9{stroke:#000;stroke-linecap:round;stroke-linejoin:round;}.cls-1{stroke-width:0.27px;fill:url(#Dégradé_sans_nom);}.cls-2{fill:none;}.cls-3{stroke-width:0.1px;}.cls-4{stroke-width:0.22px;}.cls-5{stroke-width:0.18px;}.cls-6{stroke-width:0.15px;}.cls-7{stroke-width:0.11px;}.cls-8{stroke-width:0.2px;}.cls-9{stroke-width:0.1px;}.cls-10{stroke-width:0.06px;}</style><linearGradient id="Dégradé_sans_nom" x1="188.3" y1="1790.98" x2="188.21" y2="1726.84" gradientTransform="matrix(3.78, 0, 0, -3.94, -199.71, 7069.34)" gradientUnits="userSpaceOnUse"><stop offset="0"/><stop offset="0" stop-color="#000101"/><stop offset="0.24" stop-color="#090d0f" stop-opacity="0.98"/><stop offset="0.7" stop-color="#182828" stop-opacity="0.97"/><stop offset="1" stop-color="#365f5b" stop-opacity="0.94"/></linearGradient></defs><title>Plan de travail 1</title><g id="layer2"><path id="path11" class="cls-1" d="M-.29,238.94l-.1-123.42C6.52,109.84,11.51,103,16,95.73A47,47,0,0,0,31,109.16c8.53-8.61,11.55-15.06,16.45-22.24,7.44,13,15.43,25.36,26.31,34.73A38.24,38.24,0,0,0,83.32,111c3.22,3.41,6.46,6.73,10.16,8.11,1.33-12.52,2.65-25,.59-38.58,8.94-1.63,18-2,27.46.5-.16.75-2.2,15.38-.16,21.15,4.07-2.8,6.24-8.09,8.37-13.42,2.4,7.79,5.64,15.07,10.53,21.31,10.4-4.31,18.39-2.07,26.37.2.06,8.82-.75,14,.06,19.26a41.16,41.16,0,0,0,7.44-7.29A44.85,44.85,0,0,0,193,135.45a98.64,98.64,0,0,0-.05-18.34l2.05.14a9.54,9.54,0,0,0,.06-5.23l-2.24.19A106.55,106.55,0,0,0,214.1,82c7.38,10.4,14.19,21.38,24.25,29,.16-2-.08-5,1.55-8.31,8.37-2,20.43-3.26,30.91-.89,1.85,3.87,1.46,6.19,1.26,8.64,4.21-4.45,6.18-8.9,8.48-13.34,3.78,8.13,8,15.93,13.75,22.52a29,29,0,0,0,17-6.66,7.76,7.76,0,0,1-.09-4.59l-3.39-.6c13.66-5.68,25.11-14.41,35.8-24.21l1.23.44a3.79,3.79,0,0,0-.15-3.27c-1-.84-2.28-.1-3.46,0,7.5-6.48,11.89-14.23,18-22.9,5.91,8.49,9.42,14.78,17.43,22.54-1.35-.31-2.7-.73-4.05.21a57.42,57.42,0,0,0-.24,15.8c14.34,1.3,26.31,1.84,40.65.93a29.45,29.45,0,0,0,.06,13.53l-1.6,0a32.9,32.9,0,0,0,0,14.36c27.93-11.87,49.7-10.7,68.52,1.61,1.48-3.35,2.95-7.56,2.49-11.42a5.58,5.58,0,0,1-2.52-.68v-1.13a137.71,137.71,0,0,0,29.05-27.94c5.08,5.68,10.18,11.38,16.24,16,10.24-9.23,17.56-21,24.9-32.76,8.1,15.6,16.91,30.31,27.49,42.81l-2.59.49.94,1.64c4.84,2,7.54.27,11-.07a39.52,39.52,0,0,0,.21-10.94c-2.4-6.9-1.65-10.09,0-13.92.08-.17-.37-.54-.55-1a3.11,3.11,0,0,1,0-1.18c0-.75,1.08-.37,1.07-.58v-.68a65.85,65.85,0,0,1,17.46,0c.06.3,0,.55.1.84s.83.27,1,.54a1.55,1.55,0,0,1-.08,1.26c-.17.33-.61.65-.55,1,1,4.68,1.78,8.84-.55,14.09-.89,6.88-1,9.48.3,17.76,5.49,0,11-.08,15.69-1.1a5.15,5.15,0,0,0,0,1.62,2.21,2.21,0,0,1,2.15.07,63.9,63.9,0,0,0,.13-14c6-2.42,15.27-1.7,22.67.25-.7,7.37-.86,14,.53,18.44a31.29,31.29,0,0,1,13.86.24,13,13,0,0,1,1.18-7.58l-3.32-.39c11.14-6.86,20.84-14.93,30.4-24a88.6,88.6,0,0,0,12.82,16.91l.21-1.62c5.57.17,11.14.46,16.71.11v1.37c1.61.13,2-1.48,2.57-2.74l1.81,4.7.6,1.25c2.7,5.64,4.61,10.2,6.81,8.3a176.86,176.86,0,0,0,21.58-22.66c5.89,7.32,11.79,14,17.68,18.42v2.87l-3.92,0c.46,1.73,1.35,3.57,0,4.83,5.29.32,8.56.16,14.29,0-1.33-1.93-.8-4.23.24-6.65l-4.55-.53a134.77,134.77,0,0,0,14.65-28.4c1.74,4.19,2.49,10.36,6.51,12.65.88-4.87,2.56-13,.35-20.18L795,82.7l0-2.77,2.09-.41.06-2.62c11.27-2.89,21.2-1.58,31.07-.1l.38,2.78,2.52.33-.52,2.79h-2c-.27,4.64-1.19,8.5,1.88,19.31,2.15-.46,4.42-.41,6.12-2.75l.54-6h-3C844.83,82.76,852.51,71,859.91,59c7.75,12.79,14.13,23.77,24.15,32.1.83.64-.46,0-4.45-.16-.5,1.64-.91,2.92,0,4.56h2.32c1.37,1.86.81,3.72-.18,5.58H880c-.93,4.74-1.75,9.47-.35,14.21,7.81-6.68,13.18-16.76,18.18-27.36,2.81,4.27,4.6,9.06,7,11.83,2.18-8.48.53-17.62.09-26.56a81.53,81.53,0,0,1,26.77-.52l-1,5.79c8.76-9.29,14.71-20.93,21.21-32.1,5.5,16.76,15.6,30.9,26.26,44.72l-5.55-1.3c-.37,6.69-1.81,13.6,0,19.84,5.85-2.81,11.28-1.73,16.67-.13a532.27,532.27,0,0,0,1.1-71.43l3.1,0V32H990.1c-.32-3.15,1.19-4.25,1.19-7.11-.64-.56-3.07-.41-3.07-.41,6.15-5.05,13.83-15.47,17.42-21.61,5.19,7.84,11.21,13.08,18.1,19.06l.15,217"/><path id="path7230" class="cls-2" d="M870.49,148.68a17.71,17.71,0,0,0,1.79-1.42c.08-.09.48-.19.4-.19h-.14"/><ellipse id="path7347" class="cls-3" cx="952.67" cy="120.04" rx="1.19" ry="1.06"/><ellipse id="path7349" class="cls-3" cx="952.67" cy="117.96" rx="0.75" ry="0.84"/><ellipse id="path7351" class="cls-3" cx="952.63" cy="116.99" rx="0.09" ry="1.99"/><path id="path7377" class="cls-3" d="M918,67.54l-.26,6.1,2.21.09.09-6.19Z"/><path id="path7379" class="cls-3" d="M921.32,67.63l-.44,6.1,2.21-.09.09-6.1Z"/><path id="path7381" class="cls-3" d="M916.73,67.54v5.75l-2-.27.27-5.66Z"/><path id="path7383" class="cls-4" d="M740.2,98.33s-3.22,4.23-2.81,3.9,7.54-1.85,7.54-1.85Z"/><path id="path7385" class="cls-5" d="M740.3,102.53l-.11,4.54,2.38-.23-.11-4.42Z"/><path id="path7387" class="cls-6" d="M740.9,107l1.56-1.31-2.33,1.41,2.67,3,2-2.22-2.32-2.21-1,.6"/><path id="path7389" class="cls-5" d="M742.71,102.89c1.12-.64,1.28-2.72,1.28-2.72v.32"/><path id="path7391" class="cls-5" d="M739.51,101.29l-.64.48.16,1,1,.48"/><path id="path7393" class="cls-3" d="M706.18,111.74l.37-14.5,2.5.25-.25,14.75Z"/><path id="path7399" class="cls-7" d="M979.37,81l.3.27"/><g id="g7520"><path id="path7397" class="cls-8" d="M992.25,105.25l-.2-.12"/><g id="g7474"><path id="path7401" class="cls-9" d="M979,83.5l0,.14"/></g></g><path id="path7537" class="cls-10" d="M760.28,166.56l0,.87"/></g><path id="path7399-2" data-name="path7399" class="cls-7" d="M350.4,64l-14.58-6.61"/><path id="path7397-2" data-name="path7397" class="cls-8" d="M349,60.42l-.29,21.3"/><path id="path7401-2" data-name="path7401" class="cls-9" d="M337.57,56.55,335.43,60"/><path id="path7403" class="cls-9" d="M339.58,57.58,337.27,61"/><path id="path7403-7" class="cls-9" d="M342,58.66l-2.32,3.45"/><path id="path7401-8" class="cls-9" d="M344.23,59.85l-2.15,3.41.05.14"/><path id="path7403-4" class="cls-9" d="M346.24,60.87l-2.32,3.46"/><path id="path7403-7-5" class="cls-9" d="M348.63,62l-2.31,3.45"/><path id="path7403-1" class="cls-9" d="M350.45,63l-2.31,3.45"/><path id="path7399-3" data-name="path7399" class="cls-7" d="M161,97.51l-14.58,6.6"/><path id="path7397-3" data-name="path7397" class="cls-8" d="M148.15,121.79l-.29-21.3"/><path id="path7401-3" data-name="path7401" class="cls-9" d="M161.41,100l-2.14-3.41"/><path id="path7403-2" data-name="path7403" class="cls-9" d="M159.57,101.11l-2.31-3.46"/><path id="path7403-7-2" data-name="path7403-7" class="cls-9" d="M157.18,102.19l-2.32-3.46"/><path id="path7401-8-2" data-name="path7401-8" class="cls-9" d="M154.71,103.48l0-.14-2.15-3.41"/><path id="path7403-4-2" data-name="path7403-4" class="cls-9" d="M152.92,104.4,150.6,101"/><path id="path7403-7-5-2" data-name="path7403-7-5" class="cls-9" d="M150.52,105.49,148.2,102"/><path id="path7403-1-2" data-name="path7403-1" class="cls-9" d="M148.7,106.48,146.39,103"/><path id="path7383-2" data-name="path7383" class="cls-4" d="M60.52,97.37c.41.33-2.81-3.9-2.81-3.9l-4.72,2"/><path id="path7383-3" data-name="path7383" class="cls-4" d="M53,95.51s7.13,1.53,7.53,1.86"/><path id="path7385-2" data-name="path7385" class="cls-5" d="M55.46,97.56,55.34,102l2.38.22-.11-4.53Z"/><path id="path7387-2" data-name="path7387" class="cls-6" d="M56.41,101.38l-.95-.61L53.13,103"/><path id="path7387-3" data-name="path7387" class="cls-6" d="M53.13,103l2,2.21"/><path id="path7387-4" data-name="path7387" class="cls-6" d="M55.05,105.29l2.67-3-2.67-.47-1.9,1.2"/><path id="path7389-2" data-name="path7389" class="cls-5" d="M53.92,95.62V95.3s.57,2.22,1.7,2.86"/><path id="path7391-2" data-name="path7391" class="cls-5" d="M57.47,98.58l1.42-.71.16-1-.64-.49"/></svg>