<?xml version="1.0" encoding="UTF-8" standalone="no"?>
<!-- Created with Inkscape (http://www.inkscape.org/) -->

<svg
   xmlns:dc="http://purl.org/dc/elements/1.1/"
   xmlns:cc="http://creativecommons.org/ns#"
   xmlns:rdf="http://www.w3.org/1999/02/22-rdf-syntax-ns#"
   xmlns:svg="http://www.w3.org/2000/svg"
   xmlns="http://www.w3.org/2000/svg"
   xmlns:xlink="http://www.w3.org/1999/xlink"
   xmlns:sodipodi="http://sodipodi.sourceforge.net/DTD/sodipodi-0.dtd"
   xmlns:inkscape="http://www.inkscape.org/namespaces/inkscape"
   width="105mm"
   height="37mm"
   viewBox="0 0 104.99998 37.000001"
   version="1.1"
   id="svg8"
   inkscape:version="0.92.4 (5da689c313, 2019-01-14)"
   sodipodi:docname="ptitneon.svg">
  <defs
     id="defs2">
    <linearGradient
       inkscape:collect="always"
       id="linearGradient1981">
      <stop
         style="stop-color:#000000;stop-opacity:0.717"
         offset="0"
         id="stop1977" />
      <stop
         id="stop1989"
         offset="0.59122783"
         style="stop-color:#000000;stop-opacity:0.89" />
      <stop
         style="stop-color:#000000;stop-opacity:1"
         offset="1"
         id="stop1979" />
    </linearGradient>
    <style
       id="style827">.cls-1{fill:#ed1e79;}</style>
    <radialGradient
       inkscape:collect="always"
       xlink:href="#linearGradient1981"
       id="radialGradient1983"
       cx="-64.9198"
       cy="86.30101"
       fx="-64.9198"
       fy="86.30101"
       r="274.17029"
       gradientTransform="matrix(1,0,0,0.35801475,2.8263672e-5,55.403965)"
       gradientUnits="userSpaceOnUse" />
    <filter
       inkscape:collect="always"
       style="color-interpolation-filters:sRGB"
       id="filter975"
       x="-0.009499182"
       width="1.0189984"
       y="-0.072593205"
       height="1.1451864">
      <feGaussianBlur
         inkscape:collect="always"
         stdDeviation="1.6991619"
         id="feGaussianBlur977" />
    </filter>
    <filter
       inkscape:collect="always"
       style="color-interpolation-filters:sRGB"
       id="filter1117"
       x="-0.012213234"
       width="1.0244265"
       y="-0.093334116"
       height="1.1866682">
      <feGaussianBlur
         inkscape:collect="always"
         stdDeviation="2.2669524"
         id="feGaussianBlur1119" />
    </filter>
    <filter
       inkscape:collect="always"
       style="color-interpolation-filters:sRGB"
       id="filter1129"
       x="-0.016284311"
       width="1.0325686"
       y="-0.12444545"
       height="1.2488909">
      <feGaussianBlur
         inkscape:collect="always"
         stdDeviation="3.0226033"
         id="feGaussianBlur1131" />
    </filter>
    <filter
       inkscape:collect="always"
       style="color-interpolation-filters:sRGB"
       id="filter1345"
       x="-0.076671965"
       width="1.1533439"
       y="-0.58593076"
       height="2.1718616">
      <feGaussianBlur
         inkscape:collect="always"
         stdDeviation="53.788056"
         id="feGaussianBlur1347" />
    </filter>
  </defs>
  <sodipodi:namedview
     id="base"
     pagecolor="#afafaf"
     bordercolor="#666666"
     borderopacity="1.0"
     inkscape:pageopacity="0"
     inkscape:pageshadow="2"
     inkscape:zoom="1"
     inkscape:cx="207.61979"
     inkscape:cy="55.474659"
     inkscape:document-units="mm"
     inkscape:current-layer="layer1"
     showgrid="false"
     units="mm"
     showborder="true"
     inkscape:window-width="1366"
     inkscape:window-height="705"
     inkscape:window-x="-8"
     inkscape:window-y="-8"
     inkscape:window-maximized="1"
     inkscape:snap-global="false"
     width="210mm" />
  <metadata
     id="metadata5">
    <rdf:RDF>
      <cc:Work
         rdf:about="">
        <dc:format>image/svg+xml</dc:format>
        <dc:type
           rdf:resource="http://purl.org/dc/dcmitype/StillImage" />
        <dc:title></dc:title>
      </cc:Work>
    </rdf:RDF>
  </metadata>
  <g
     inkscape:label="Calque 1"
     inkscape:groupmode="layer"
     id="layer1"
     transform="translate(0,-259.99999)">
    <flowRoot
       xml:space="preserve"
       id="flowRoot815"
       style="font-style:normal;font-weight:normal;font-size:40px;line-height:1.25;font-family:sans-serif;letter-spacing:0px;word-spacing:0px;fill:#000000;fill-opacity:1;stroke:none"><flowRegion
         id="flowRegion817"><rect
           id="rect819"
           width="791.42859"
           height="485.71429"
           x="-1005.7143"
           y="211.09108" /></flowRegion><flowPara
         id="flowPara821" /></flowRoot>    <g
       data-name="Calque 2"
       id="Calque_2"
       transform="matrix(0.26458333,0,0,0.26458333,-227.37754,167.80804)">
      <g
         data-name="Calque 1"
         id="Calque_1-2"
         transform="translate(312,23)" />
    </g>
    <g
       id="g847"
       transform="matrix(0.19300657,0,0,0.19300657,65.816967,262.36264)">
      <rect
         ry="0"
         y="-11.666488"
         x="-338.90054"
         height="195.93498"
         width="547.96155"
         id="rect821"
         style="opacity:1;fill:#b4155c;fill-opacity:1;fill-rule:nonzero;stroke:#ffffff;stroke-width:0.37903371;stroke-linecap:round;stroke-linejoin:round;stroke-miterlimit:4;stroke-dasharray:none;stroke-dashoffset:27.2125988;stroke-opacity:1" />
      <rect
         style="opacity:1;fill:url(#radialGradient1983);fill-opacity:1;fill-rule:nonzero;stroke:#ffffff;stroke-width:0.37903371;stroke-linecap:round;stroke-linejoin:round;stroke-miterlimit:4;stroke-dasharray:none;stroke-dashoffset:27.2125988;stroke-opacity:1"
         id="rect1941"
         width="547.96155"
         height="195.93498"
         x="-338.90054"
         y="-11.666488"
         ry="0" />
      <path
         inkscape:connector-curvature="0"
         id="path835"
         transform="matrix(0.26458333,0,0,0.26458333,15.878375,-384.82811)"
         d="m 140.08789,1670.4863 c -14.64885,0 -27.1501,5.1755 -37.50195,15.5274 -10.351856,10.3518 -15.527346,22.9488 -15.527346,37.7929 v 166.4122 h 13.183596 v -66.7989 h 79.98242 v 66.7989 h 13.18555 v -166.4122 c 0,-14.4535 -5.2751,-26.9528 -15.82227,-37.5 -10.54717,-10.5471 -23.04647,-15.8203 -37.5,-15.8203 z m -1260.64839,0.586 c -7.2268,0 -13.4765,2.6365 -18.75,7.9101 -5.2736,5.2736 -7.9102,11.6209 -7.9102,19.043 v 166.1191 c 0,7.4221 2.5389,13.7694 7.6172,19.043 5.2736,5.0783 11.6209,7.6172 19.043,7.6172 h 53.3222 v -13.4766 h -53.3222 c -3.1251,0 -6.1523,-1.0741 -9.0821,-3.2226 -2.7344,-2.3438 -4.1015,-5.0781 -4.1015,-8.2032 v -41.6035 h 79.9824 v -13.4765 h -79.9824 v -114.8477 c 0,-2.9298 1.4647,-5.5663 4.3945,-7.9101 2.9298,-2.3439 5.8593,-3.5157 8.7891,-3.5157 h 53.3222 v -13.4765 z m 83.205,0 v 193.0722 c 0,7.4221 2.5389,13.7694 7.6172,19.043 5.2736,5.0783 11.6229,7.6172 19.0449,7.6172 h 66.79887 v -13.4766 h -66.79887 c -3.711,0 -6.8378,-1.2694 -9.3769,-3.8086 -2.5391,-2.5391 -3.8086,-5.6639 -3.8086,-9.375 v -193.0722 z m 136.52738,0 c -7.22676,0 -13.47643,2.6365 -18.75,7.9101 -5.2736,5.2736 -7.91016,11.6209 -7.91016,19.043 v 166.1191 c 0,7.4221 2.53891,13.7694 7.61719,19.043 5.27357,5.0783 11.62088,7.6172 19.04297,7.6172 h 53.32226 v -13.4766 h -53.32226 c -3.12509,0 -6.15227,-1.0741 -9.08204,-3.2226 -2.73443,-2.3438 -4.10156,-5.0781 -4.10156,-8.2032 v -41.6035 h 79.98242 v -13.4765 h -79.98242 v -114.8477 c 0,-2.9298 1.46477,-5.5663 4.39453,-7.9101 2.92977,-2.3439 5.8593,-3.5157 8.78907,-3.5157 h 53.32226 v -13.4765 z m 136.52734,0 c -14.45354,0 -26.95283,5.2731 -37.5,15.8203 -10.54718,10.3518 -15.82227,22.8531 -15.82227,37.5019 v 113.0879 c 0,14.6489 5.17745,27.2478 15.5293,37.7949 10.54717,10.3519 23.1441,15.5274 37.79297,15.5274 14.64884,0 27.1501,-5.1755 37.50195,-15.5274 10.54718,-10.5471 15.82031,-23.146 15.82031,-37.7949 h -13.47656 c 0,10.9378 -3.90601,20.4119 -11.71875,28.4199 -7.81271,7.8128 -17.18915,11.7188 -28.12695,11.7188 -10.93783,0 -20.31229,-3.906 -28.125,-11.7188 -7.81271,-7.8127 -11.71875,-17.2868 -11.71875,-28.4199 v -113.0879 c 0,-10.9378 3.90604,-20.3142 11.71875,-28.1269 7.81271,-7.8127 17.18717,-11.7188 28.125,-11.7188 8.59399,0 15.72249,1.6601 21.38672,4.9805 5.6642,3.3204 9.7675,8.203 12.30664,14.6484 2.53914,6.2502 4.19919,12.4022 4.98047,18.4571 0.97658,5.8595 1.46484,12.99 1.46484,21.3886 0,2.5392 -0.0977,6.1522 -0.29297,10.8399 v 9.6679 h 13.47656 v -40.1367 c 0,-14.4535 -5.27313,-26.9547 -15.82031,-37.5019 -10.54717,-10.5472 -23.04843,-15.8203 -37.50195,-15.8203 z m 69.70508,0 v 13.1836 h 36.62304 v 206.5488 h 13.1836 v -206.5488 h 36.62304 v -13.1836 z m 103,0 v 219.7324 h 13.18554 v -66.5059 h 31.64063 c 21.48498,0 32.22656,10.5463 32.22656,31.6407 v 34.8652 h 13.47852 v -38.3809 c 0,-13.4769 -6.15395,-25.195 -18.45899,-35.1562 12.10973,-8.2034 18.16602,-19.2399 18.16602,-33.1074 v -60.0606 c 0,-14.4535 -5.27509,-26.8552 -15.82227,-37.207 -10.35185,-10.5472 -22.75349,-15.8203 -37.20703,-15.8203 z m 309.72265,0 v 45.9961 c -8.98462,-14.2583 -20.40976,-25.3904 -34.27734,-33.3985 -13.86758,-8.2033 -29.0054,-12.3047 -45.41211,-12.3047 v 219.4395 h 13.18359 v -205.377 c 19.33649,4.1017 35.25551,13.4762 47.75586,28.125 12.50035,14.4536 18.75,31.3491 18.75,50.6856 v 126.5664 h 13.1836 v -219.7324 z m 29.60547,0 v 219.7324 h 13.47656 v -219.7324 z m 83.07617,0 c -14.45353,0 -26.95282,5.2731 -37.5,15.8203 -10.54717,10.3518 -15.82226,22.8531 -15.82226,37.5019 v 113.0879 c 0,14.6489 5.17744,27.2478 15.52929,37.7949 10.54718,10.3519 23.14412,15.5274 37.79297,15.5274 14.64886,0 27.1501,-5.1755 37.50196,-15.5274 10.54717,-10.5471 15.82031,-23.146 15.82031,-37.7949 h -13.47656 c 0,10.9378 -3.90603,20.4119 -11.71875,28.4199 -7.81273,7.8128 -17.18915,11.7188 -28.12696,11.7188 -10.93781,0 -20.31228,-3.906 -28.125,-11.7188 -7.81272,-7.8127 -11.71875,-17.2868 -11.71875,-28.4199 v -113.0879 c 0,-10.9378 3.90603,-20.3142 11.71875,-28.1269 7.81272,-7.8127 17.18719,-11.7188 28.125,-11.7188 8.594,0 15.72445,1.6601 21.38868,4.9805 5.66422,3.3204 9.76555,8.203 12.30468,14.6484 2.53914,6.2502 4.1992,12.4022 4.98047,18.4571 0.97659,5.8595 1.46485,12.99 1.46485,21.3886 0,2.5392 -0.0977,6.1522 -0.29297,10.8399 v 9.6679 h 13.47656 v -40.1367 c 0,-14.4535 -5.27314,-26.9547 -15.82031,-37.5019 -10.54718,-10.5472 -23.04842,-15.8203 -37.50196,-15.8203 z m 157.828129,0 v 13.1836 h 36.623047 v 206.5488 h 13.183593 v -206.5488 h 36.621094 v -13.1836 z m 221.449221,0 v 193.0722 c 0,7.4221 2.53892,13.7694 7.61718,19.043 5.27359,5.0783 11.62089,7.6172 19.04297,7.6172 h 66.79883 v -13.4766 h -66.79883 c -3.71104,0 -6.83586,-1.2694 -9.375,-3.8086 -2.53913,-2.5391 -3.80859,-5.6639 -3.80859,-9.375 v -193.0722 z m 136.52734,0 c -7.22677,0 -13.47641,2.6365 -18.75,7.9101 -5.27359,5.2736 -7.91016,11.6209 -7.91016,19.043 v 166.1191 c 0,7.4221 2.53892,13.7694 7.61719,19.043 5.27359,5.0783 11.62089,7.6172 19.04297,7.6172 h 53.32227 v -13.4766 h -53.32227 c -3.12509,0 -6.15226,-1.0741 -9.08203,-3.2226 -2.73445,-2.3438 -4.10156,-5.0781 -4.10156,-8.2032 v -41.6035 h 79.98242 v -13.4765 h -79.98242 v -114.8477 c 0,-2.9298 1.46476,-5.5663 4.39453,-7.9101 2.92977,-2.3439 5.85929,-3.5157 8.78906,-3.5157 h 53.32227 v -13.4765 z m 136.52734,0 c -14.45354,0 -26.95282,5.2731 -37.5,15.8203 -10.54717,10.3518 -15.82226,22.7535 -15.82226,37.207 v 63.2832 c 0,9.18 3.61308,15.041 10.83984,17.5801 l 62.69727,21.0937 c 4.49229,1.5626 8.30264,4.7851 11.42773,9.668 3.12509,4.883 4.6875,9.6679 4.6875,14.3555 0,7.8127 -2.44322,14.3572 -7.32617,19.6308 -4.88295,5.0783 -11.23026,7.6172 -19.04297,7.6172 h -63.2832 v 13.4766 h 65.91992 c 9.96122,0 18.65409,-4.1013 26.07617,-12.3047 7.42209,-8.3987 11.13282,-17.5798 11.13282,-27.541 0,-18.3599 -10.84119,-31.8357 -32.52149,-40.4297 l -44.53125,-14.6484 c -8.39866,-2.9298 -12.59766,-6.3496 -12.59765,-10.2559 v -61.5254 c 0,-10.9378 3.90603,-20.3123 11.71874,-28.125 7.81272,-7.8127 17.18718,-11.7187 28.125,-11.7187 13.08629,0 23.04864,4.199 29.88477,12.5976 6.83613,8.2034 10.25391,17.4822 10.25391,27.834 v 56.25 h 13.18359 v -56.8379 c 0,-14.4535 -5.27314,-26.8552 -15.82031,-37.207 -10.54718,-10.5472 -23.04844,-15.8203 -37.50196,-15.8203 z m -914.70117,0.2929 c -14.45351,0 -26.95478,5.1755 -37.50195,15.5274 -10.35187,10.3518 -15.52734,22.8531 -15.52734,37.5019 v 113.0879 c 0,14.6489 5.17547,27.2478 15.52734,37.7949 10.54717,10.3519 23.14608,15.5274 37.79492,15.5274 14.45352,0 26.85516,-5.1755 37.20703,-15.5274 10.54718,-10.5471 15.82227,-23.146 15.82227,-37.7949 v -113.0879 c 0,-14.4535 -5.27509,-26.8571 -15.82227,-37.209 -10.54717,-10.5471 -23.04645,-15.8203 -37.5,-15.8203 z m 571.64844,12.3047 c 10.74249,0 20.11696,4.0037 28.125,12.0117 8.00804,7.8128 12.01172,17.1872 12.01172,28.125 v 86.4297 h -79.98242 v -86.4297 c 0,-10.9378 3.90603,-20.3122 11.71875,-28.125 7.81272,-8.008 17.18914,-12.0117 28.12695,-12.0117 z m -718.49805,0.586 h 24.02344 c 10.7425,0 20.01932,4.0036 27.83203,12.0117 8.00804,7.8127 12.01172,17.0895 12.01172,27.832 v 60.0606 c 0,10.7425 -3.61308,17.9706 -10.83984,21.6816 -7.22679,3.5157 -16.99184,5.2734 -29.29688,5.2734 h -23.73047 z m 146.84961,0.2929 c 10.9378,0 20.31227,4.0037 28.125,12.0117 7.81271,7.8128 11.71875,17.0915 11.71875,27.834 v 113.0879 c 0,10.9378 -3.90604,20.4119 -11.71875,28.4199 -7.61741,7.8128 -16.89423,11.7188 -27.83203,11.7188 -11.13313,0 -20.60721,-3.906 -28.41992,-11.7188 -7.61741,-7.8127 -11.42578,-17.2868 -11.42578,-28.4199 v -113.0879 c 0,-10.9378 3.90604,-20.3142 11.71875,-28.1269 7.81274,-7.8127 17.09151,-11.7188 27.83398,-11.7188 z"
         style="font-style:normal;font-variant:normal;font-weight:normal;font-stretch:normal;font-size:77.51683807px;line-height:1.25;font-family:'Monicas Salon NF';-inkscape-font-specification:'Monicas Salon NF, Normal';font-variant-ligatures:normal;font-variant-caps:normal;font-variant-numeric:normal;font-feature-settings:normal;text-align:start;letter-spacing:0px;word-spacing:0px;writing-mode:lr-tb;text-anchor:start;fill:#b4155c;fill-opacity:1;stroke:#b4155c;stroke-width:45.35433197;stroke-linejoin:round;stroke-miterlimit:4;stroke-dasharray:none;stroke-opacity:1;filter:url(#filter1345)" />
      <path
         d="m 52.943294,57.154708 c -3.87584,0 -7.18346,1.36935 -9.92239,4.10829 -5e-5,5e-5 -1.1e-4,1.1e-4 -1.7e-4,1.6e-4 -2.73881,2.73889 -4.10811,6.07196 -4.10811,9.99939 0,0 0,1.1e-4 0,3.3e-4 0,0.11422 0,44.029382 0,44.029382 0,0 8e-5,0 2.2e-4,0 0.0179,0 3.48794,0 3.48794,0 0,0 0,-9e-5 0,-2.7e-4 0,-0.0457 0,-17.673602 0,-17.673602 0,0 1.1e-4,0 3.3e-4,0 0.0547,0 21.16186,0 21.16186,0 0,0 0,1.8e-4 0,5.4e-4 0,0.0913 0,17.673332 0,17.673332 0,0 1.4e-4,0 4.3e-4,0 0.0358,0 3.48808,0 3.48808,0 0,0 0,-6e-5 0,-1.7e-4 0,-0.0571 0,-44.029542 0,-44.029542 0,-1.6e-4 0,-3.2e-4 0,-4.7e-4 -1.2e-4,-3.82396 -1.39582,-7.13108 -4.18631,-9.92158 -6e-5,-6e-5 -1.2e-4,-1.1e-4 -1.7e-4,-1.7e-4 -2.79057,-2.79048 -6.09762,-4.18562 -9.92171,-4.18562 0,0 0,0 0,0 m -111.18218,0.0517 m -222.364354,0.10336 c -1.27481,0 -2.37726,0.46505 -3.30753,1.39525 -0.63726,6e-5 -1.18837,0.23259 -1.65341,0.69764 -0.93026,0.93026 -1.39539,2.04991 -1.39544,3.35914 -0.46499,0.46507 -0.69747,1.02481 -0.69747,1.67931 0,0 0,29.30162 0,29.30173 0,0.057 0,14.650622 0,14.650622 0,1.30926 0.44783,2.42893 1.34359,3.35922 6e-5,0.65448 0.22398,1.2142 0.6718,1.67924 0.93026,0.89581 2.04991,1.3437 3.35914,1.34375 0.46507,0.44777 1.02481,0.67163 1.67932,0.67163 0,0 9.40551,0 9.40565,0 0.0365,0 4.70251,0 4.70251,0 0,0 0,-2.37719 0,-2.37734 0,-0.0183 0,-1.18834 0,-1.18834 0,0 -9.40551,0 -9.40566,0 -0.0365,0 -4.7025,0 -4.7025,0 -0.55137,0 -1.08547,-0.18946 -1.60239,-0.56843 -0.27547,-9e-5 -0.54232,-0.0948 -0.80059,-0.28422 -0.48237,-0.41347 -0.72357,-0.89582 -0.72363,-1.4471 -0.24104,-0.20668 -0.36156,-0.44777 -0.36156,-0.72332 0,0 0,-7.33845 0,-7.33857 0,-0.0284 0,-3.669032 0,-3.669032 0,0 14.10812,0 14.10833,0 0.0547,0 7.05368,0 7.05368,0 0,0 0,-2.37717 0,-2.37732 0,-0.0183 0,-1.18834 0,-1.18834 0,0 -14.10811,0 -14.10832,0 -0.0547,0 -7.05369,0 -7.05369,0 0,0 0,-20.2579 0,-20.25797 0,-0.0394 0,-10.12881 0,-10.12881 0,-0.51691 0.25836,-0.98209 0.77515,-1.39563 1.2e-4,-0.25824 0.12931,-0.49065 0.38757,-0.69726 0.51684,-0.41349 1.03364,-0.62023 1.55049,-0.62028 0.25832,-0.20661 0.51663,-0.30991 0.77496,-0.30991 0,0 9.40551,0 9.40565,0 0.0365,0 4.70251,0 4.70251,0 0,0 0,-2.37717 0,-2.37732 0,-0.0183 0,-1.18834 0,-1.18834 0,0 -9.40551,0 -9.40566,0 -0.0365,0 -4.7025,0 -4.7025,0 0,0 0,0 0,0 m 7.33822,0 m 14.67644,0 c 0,0 0,34.05586 0,34.05599 0,0.0663 0,17.027702 0,17.027702 0,1.30926 0.44783,2.42893 1.34359,3.35922 5e-5,0.65448 0.22397,1.2142 0.67179,1.67924 0.93026,0.89581 2.05026,1.3437 3.35947,1.34375 0.46507,0.44777 1.02499,0.67163 1.67949,0.67163 0,0 11.78267,0 11.78285,0 0.0457,0 5.89102,0 5.89102,0 0,0 0,-2.37719 0,-2.37734 0,-0.0183 0,-1.18834 0,-1.18834 0,0 -11.78267,0 -11.78285,0 -0.0457,0 -5.89102,0 -5.89102,0 -0.65465,0 -1.20627,-0.22391 -1.65422,-0.67179 -0.32718,-6e-5 -0.6027,-0.11202 -0.82658,-0.3359 -0.44797,-0.44798 -0.67201,-0.99927 -0.67212,-1.65397 -0.22372,-0.22388 -0.33574,-0.49936 -0.33574,-0.8265 0,0 0,-34.055852 0,-34.055982 0,-0.0663 0,-17.02771 0,-17.02771 0,0 -2.3772,0 -2.37734,0 -0.0183,0 -1.18834,0 -1.18834,0 0,0 0,0 0,0 m 12.04095,0 m 24.08191,0 c -1.27487,0 -2.3774,0.46505 -3.30776,1.39525 -0.63716,1.2e-4 -1.18819,0.23265 -1.65318,0.69764 -0.93031,0.93031 -1.39549,2.05002 -1.3956,3.35931 -0.46488,0.46503 -0.69729,1.02472 -0.69729,1.67914 0,0 0,29.30162 0,29.30173 0,0.057 0,14.650622 0,14.650622 0,1.30934 0.44783,2.42909 1.34359,3.35946 1.1e-4,0.65438 0.22402,1.21401 0.67179,1.679 0.93031,0.89586 2.05002,1.34381 3.35931,1.34392 0.46503,0.44765 1.02472,0.67146 1.67914,0.67146 0,0 9.40553,0 9.40567,0 0.0365,0 4.70251,0 4.70251,0 0,0 0,-2.37719 0,-2.37734 0,-0.0183 0,-1.18834 0,-1.18834 0,0 -9.40552,0 -9.40566,0 -0.0365,0 -4.70252,0 -4.70252,0 -0.55136,0 -1.08546,-0.18946 -1.60237,-0.56843 -0.27548,-9e-5 -0.54232,-0.0948 -0.80058,-0.28422 -0.48244,-0.41352 -0.72371,-0.89592 -0.72383,-1.44726 -0.24092,-0.20664 -0.36138,-0.44768 -0.36138,-0.72316 0,0 0,-7.33845 0,-7.33857 0,-0.0284 0,-3.669032 0,-3.669032 0,0 14.10812,0 14.10833,0 0.0547,0 7.05369,0 7.05369,0 0,0 0,-2.37717 0,-2.37732 0,-0.0183 0,-1.18834 0,-1.18834 0,0 -14.10812,0 -14.10833,0 -0.0547,0 -7.05369,0 -7.05369,0 0,0 0,-20.25801 0,-20.25832 0,-0.0785 0,-10.12846 0,-10.12846 0,-0.51691 0.25837,-0.98209 0.77515,-1.39563 1.2e-4,-0.25824 0.12931,-0.49065 0.38757,-0.69726 0.51691,-0.41354 1.03377,-0.62033 1.55067,-0.62043 0.25827,-0.20651 0.51651,-0.30976 0.77477,-0.30976 0,0 9.40553,0 9.40567,0 0.0365,0 4.70251,0 4.70251,0 0,0 0,-2.37717 0,-2.37732 0,-0.0183 0,-1.18834 0,-1.18834 0,0 -9.40552,0 -9.40566,0 -0.0365,0 -4.70252,0 -4.70252,0 0,0 0,0 0,0 m 12.04096,0 m 24.0819,0 c -2.5496,0 -4.75449,0.93012 -6.61505,2.79053 -1.27452,1.1e-4 -2.37674,0.46517 -3.30682,1.39526 -1.86052,1.82605 -2.7911,4.03125 -2.79122,6.61525 -0.92997,0.91291 -1.39509,2.01534 -1.39509,3.30713 0,0 0,19.9476 0,19.94791 0,0.0773 0,9.973262 0,9.973262 0,2.58406 0.91324,4.80653 2.73919,6.66708 1.1e-4,1.29174 0.45674,2.40274 1.3696,3.33283 1.86052,1.82607 4.08259,2.73908 6.6666,2.73919 0.93013,0.91275 2.041,1.36909 3.33279,1.36909 2.58405,0 4.78929,-0.9129 6.6154,-2.73886 1.29174,-1.1e-4 2.39413,-0.45656 3.30699,-1.36942 1.86052,-1.86051 2.79076,-4.08293 2.79087,-6.66694 0.92997,-0.93014 1.39492,-2.04118 1.39492,-3.33297 0,0 -2.37719,0 -2.37733,0 -0.0183,0 -1.18834,0 -1.18834,0 0,1.92943 -0.68898,3.60067 -2.06706,5.01331 -8e-5,0.96451 -0.34457,1.79995 -1.03353,2.50613 -1.37816,1.37817 -3.03214,2.06723 -4.96153,2.06732 -0.68899,0.68887 -1.51585,1.03327 -2.48039,1.03327 -1.92943,0 -3.5831,-0.68897 -4.96129,-2.06706 -0.9645,-9e-5 -1.79116,-0.34458 -2.48011,-1.03353 -1.37816,-1.37816 -2.06723,-3.04937 -2.06731,-5.01321 -0.68887,-0.68899 -1.03328,-1.52447 -1.03328,-2.50623 0,0 0,-19.947602 0,-19.947902 0,-0.0773 0,-9.97327 0,-9.97327 0,-1.92942 0.68898,-3.58343 2.06706,-4.96162 8e-5,-0.96451 0.34457,-1.79134 1.03353,-2.48029 1.37815,-1.37816 3.03179,-2.06724 4.96118,-2.06732 0.68899,-0.68887 1.51568,-1.03328 2.48022,-1.03328 1.51607,0 2.77364,0.29283 3.77294,0.87851 0.75769,7e-5 1.38637,0.14648 1.8858,0.43925 0.99917,0.58571 1.723,1.44699 2.17094,2.58392 0.49946,0.29284 0.86111,0.72342 1.08502,1.2918 0.44793,1.1026 0.7408,2.18788 0.87867,3.25603 0.22384,0.5511 0.37019,1.0937 0.43908,1.62758 0.17227,1.03361 0.2584,2.29142 0.25842,3.7729 0.0861,0.51674 0.12915,1.14538 0.12915,1.886 0,0.448 -0.0172,1.0854 -0.0517,1.91237 -1e-5,0.22392 -0.009,0.54246 -0.0258,0.95568 0,0 0,1.70537 0,1.70547 0,0.0131 0,0.85251 0,0.85251 0,0 2.37719,0 2.37733,0 0.0183,0 1.18834,0 1.18834,0 0,0 0,-7.07973 0,-7.07983 0,-0.0274 0,-3.53968 0,-3.53968 0,-2.54959 -0.93012,-4.75482 -2.79052,-6.61538 -1.2e-4,-1.27453 -0.46518,-2.37691 -1.39527,-3.307 -1.86052,-1.86052 -4.06571,-2.79075 -6.61527,-2.79087 -0.93013,-0.92997 -2.03256,-1.39492 -3.30712,-1.39492 0,0 0,0 0,0 m 6.14777,0 m 12.29521,0 c 0,0 0,2.32551 0,2.32565 0,0.0179 0,1.16251 0,1.16251 0,0 6.3594,0 6.45886,0 0.0258,0 3.2308,0 3.2308,0 0,0 0,36.29081 0,36.4327 0,0.0712 0,18.216672 0,18.216672 0,0 2.28932,0 2.32523,0 0.0182,0 1.16293,0 1.16293,0 0,0 0,-36.290802 0,-36.432702 0,-0.0712 0,-18.21667 0,-18.21667 0,0 6.35955,0 6.45931,0 0.0505,0 3.23054,0 3.23054,0 0,0 0,-2.28932 0,-2.32523 0,-0.0182 0,-1.16293 0,-1.16293 0,0 -15.12647,0 -15.24488,0 -0.0596,0 -7.62279,0 -7.62279,0 0,0 0,0 0,0 m 9.08385,0 m 18.16805,0 c 0,0 0,38.60718 0,38.75813 0,0.0757 0,19.379402 0,19.379402 0,0 2.25395,0 2.32494,0 0.0363,0 1.16373,0 1.16373,0 0,0 0,-11.63952 0,-11.73063 0,-0.0458 0,-5.865722 0,-5.865722 0,0 5.49436,0 5.58055,0 0.0436,0 2.79103,0 2.79103,0 3.78995,0 5.68487,1.86025 5.6851,5.581072 1.8944,2.3e-4 2.84169,0.93052 2.84169,2.7907 0,0 0,6.05431 0,6.14927 0,0.048 0,3.07531 0,3.07531 0,0 2.30381,0 2.37595,0 0.0194,0 1.19007,0 1.19007,0 0,0 0,-6.6648 0,-6.76935 0,-0.0529 0,-3.38559 0,-3.38559 0,-2.37718 -1.08523,-4.44419 -3.25517,-6.201392 -5.3e-4,-1.18844 -0.54354,-2.22183 -1.62877,-3.10036 2.13576,-1.44681 3.20428,-3.39311 3.20506,-5.83852 1.06749,-0.72403 1.60136,-1.6978 1.60136,-2.92115 0,0 0,-10.42946 0,-10.59305 0,-0.0828 0,-5.2978 0,-5.2978 0,-2.54913 -0.93001,-4.73652 -2.78951,-6.5625 -6.8e-4,-1.27477 -0.46637,-2.36883 -1.3968,-3.28203 -1.82573,-1.86018 -4.01284,-2.79053 -6.56171,-2.79121 -0.91346,-0.92975 -2.00761,-1.39458 -3.28265,-1.39458 0,0 -6.4613,0 -6.56265,0 -0.0513,0 -3.28222,0 -3.28222,0 0,0 0,0 0,0 m 27.31581,0 m 54.631634,0 c 0,0 0,7.98718 0,8.11246 0,0.0634 0,4.05751 0,4.05751 -1.58469,-2.51485 -3.59975,-4.47841 -6.04553,-5.89106 -0.79265,-1.25745 -1.80049,-2.23944 -3.02368,-2.94579 -2.44594,-1.44688 -5.11588,-2.17041 -8.00958,-2.17068 -1.22327,-0.72331 -2.55855,-1.08494 -4.00571,-1.08494 0,0 0,38.55572 0,38.70647 0,0.0756 0,19.353562 0,19.353562 0,0 2.28932,0 2.32523,0 0.0182,0 1.16293,0 1.16293,0 0,0 0,-36.084922 0,-36.226012 0,-0.0708 0,-18.11331 0,-18.11331 3.41053,0.72345 6.21841,2.37673 8.42342,4.96012 1.70536,0.36213 3.10939,1.18918 4.21199,2.48128 2.20478,2.5493 3.30729,5.52922 3.30769,8.9396 1.10219,1.27503 1.65324,2.76538 1.65324,4.47096 0,0 0,22.151012 0,22.324402 0,0.0872 0,11.16296 0,11.16296 0,0 2.28932,0 2.32523,0 0.0182,0 1.16293,0 1.16293,0 0,0 0,-38.607172 0,-38.758132 0,-0.0757 0,-19.3794 0,-19.3794 0,0 -2.28931,0 -2.32522,0 -0.0182,0 -1.16294,0 -1.16294,0 0,0 0,0 0,0 m 2.61104,0 m 5.22208,0 c 0,0 0,38.60718 0,38.75813 0,0.0757 0,19.379402 0,19.379402 0,0 2.34019,0 2.3769,0 0.0186,0 1.18877,0 1.18877,0 0,0 0,-38.607172 0,-38.758132 0,-0.0757 0,-19.3794 0,-19.3794 0,0 -2.34019,0 -2.3769,0 -0.0186,0 -1.18877,0 -1.18877,0 0,0 0,0 0,0 m 7.32685,0 m 14.65372,0 c -2.54929,0 -4.75395,0.92989 -6.61437,2.78984 -1.27475,3.4e-4 -2.37719,0.46563 -3.30751,1.39595 -1.86029,1.82583 -2.79087,4.03072 -2.79121,6.61431 -0.92997,0.91322 -1.39492,2.01597 -1.39492,3.30807 0,0 0,19.79207 0,19.947 0,0.0779 0,9.974172 0,9.974172 0,2.58375 0.91302,4.80599 2.73852,6.6664 3.4e-4,1.29197 0.45701,2.40319 1.3701,3.33351 1.86029,1.82584 4.08205,2.73886 6.66565,2.73919 0.93045,0.91275 2.04163,1.36909 3.33374,1.36909 2.58374,0 4.78875,-0.91268 6.61473,-2.73819 1.29197,-3.3e-4 2.39457,-0.45701 3.30766,-1.37009 1.86029,-1.86028 2.79053,-4.08239 2.79087,-6.666 0.92997,-0.93045 1.39492,-2.0418 1.39492,-3.33391 0,0 -2.3037,0 -2.37625,0 -0.0371,0 -1.18942,0 -1.18942,0 0,1.92907 -0.68865,3.60009 -2.06605,5.01263 -5.1e-4,0.9647 -0.34533,1.80037 -1.03454,2.50681 -1.37791,1.37792 -3.0315,2.06706 -4.96037,2.06757 -0.68941,0.6887 -1.51666,1.03302 -2.48155,1.03302 -1.92908,0 -3.58253,-0.68864 -4.96064,-2.06605 -0.96469,-5.1e-4 -1.79156,-0.34534 -2.48077,-1.03454 -1.37791,-1.37791 -2.06706,-3.04872 -2.06756,-5.01202 -0.6887,-0.68942 -1.03303,-1.5253 -1.03303,-2.50742 0,0 0,-19.792062 0,-19.946992 0,-0.0779 0,-9.97418 0,-9.97418 0,-1.92907 0.68865,-3.58286 2.06605,-4.96097 5.1e-4,-0.96469 0.34533,-1.79174 1.03454,-2.48094 1.37791,-1.37791 3.03116,-2.06707 4.96003,-2.06757 0.68941,-0.6887 1.51649,-1.03303 2.48138,-1.03303 1.51533,0 2.77276,0.29254 3.77181,0.87765 0.75818,3.6e-4 1.38735,0.14705 1.88727,0.44011 0.99911,0.58568 1.72267,1.44678 2.17082,2.58341 0.49928,0.29311 0.86086,0.72386 1.0848,1.29231 0.44787,1.10247 0.74076,2.18762 0.87872,3.25566 0.22379,0.55121 0.37012,1.09394 0.43903,1.62795 0.17223,1.03342 0.25838,2.29093 0.25844,3.77201 0.0861,0.51706 0.12913,1.146 0.12913,1.88689 0,0.44789 -0.0172,1.085 -0.0516,1.91148 -3e-5,0.22431 -0.009,0.54315 -0.0259,0.95657 0,0 0,1.65265 0,1.7047 0,0.0266 0,0.85328 0,0.85328 0,0 2.3037,0 2.37625,0 0.0371,0 1.18942,0 1.18942,0 0,0 0,-6.9697 0,-7.07903 0,-0.0553 0,-3.54048 0,-3.54048 0,-2.54928 -0.92989,-4.75428 -2.78984,-6.6147 -3.4e-4,-1.27475 -0.46563,-2.37736 -1.39595,-3.30768 -1.86029,-1.8603 -4.06517,-2.79053 -6.61433,-2.79087 -0.93044,-0.92997 -2.03318,-1.39492 -3.30806,-1.39492 0,0 0,0 0,0 m 13.91956,0 m 27.83913,0 c 0,0 0,2.25362 0,2.3246 0,0.0363 0,1.16356 0,1.16356 0,0 6.35956,0 6.45931,0 0.0505,0 3.23054,0 3.23054,0 0,0 0,36.14911 0,36.43208 0,0.14232 0,18.217292 0,18.217292 0,0 2.25362,0 2.3246,0 0.0363,0 1.16356,0 1.16356,0 0,0 0,-36.149112 0,-36.432082 0,-0.14231 0,-18.21729 0,-18.21729 0,0 6.35921,0 6.45896,0 0.0505,0 3.23037,0 3.23037,0 0,0 0,-2.25362 0,-2.3246 0,-0.0363 0,-1.16356 0,-1.16356 0,0 -15.12614,0 -15.24454,0 -0.0596,0 -7.6228,0 -7.6228,0 0,0 0,0 0,0 m 19.53059,0 m 39.06118,0 c 0,0 0,33.79051 0,34.05501 0,0.13303 0,17.028682 0,17.028682 0,1.30902 0.44762,2.42854 1.34293,3.35877 3.3e-4,0.65461 0.22447,1.21448 0.67245,1.67969 0.93009,0.89565 2.04948,1.34359 3.35835,1.34392 0.46536,0.44765 1.02553,0.67146 1.68028,0.67146 0,0 11.69079,0 11.7823,0 0.046,0 5.89156,0 5.89156,0 0,0 0,-2.3402 0,-2.3769 0,-0.0186 0,-1.18878 0,-1.18878 0,0 -11.69079,0 -11.78231,0 -0.046,0 -5.89155,0 -5.89155,0 -0.65475,0 -1.20609,-0.22391 -1.65413,-0.67179 -0.32708,-1.1e-4 -0.60268,-0.11207 -0.82651,-0.3359 -0.44799,-0.44798 -0.67201,-0.99927 -0.67212,-1.65397 -0.22372,-0.22388 -0.33557,-0.49936 -0.33557,-0.8265 0,0 0,-34.055852 0,-34.055982 0,-0.0663 0,-17.02771 0,-17.02771 0,0 -2.37719,0 -2.37733,0 -0.0183,0 -1.18835,0 -1.18835,0 0,0 0,0 0,0 m 12.04096,0 m 24.081886,0 c -1.27487,0 -2.3774,0.46505 -3.30776,1.39525 -0.63716,1.2e-4 -1.18819,0.23265 -1.65317,0.69764 -0.93032,0.93031 -1.3955,2.05002 -1.39561,3.35931 -0.46487,0.46503 -0.69729,1.02472 -0.69729,1.67914 0,0 0,29.30162 0,29.30173 0,0.057 0,14.650622 0,14.650622 0,1.30934 0.44784,2.42909 1.34359,3.35946 1.1e-4,0.65438 0.22402,1.21401 0.67179,1.679 0.93032,0.89586 2.05002,1.34381 3.35931,1.34392 0.46503,0.44765 1.02472,0.67146 1.67914,0.67146 0,0 9.40555,0 9.40569,0 0.0365,0 4.70252,0 4.70252,0 0,0 0,-2.37719 0,-2.37734 0,-0.0183 0,-1.18834 0,-1.18834 0,0 -9.40553,0 -9.40567,0 -0.0364,0 -4.70254,0 -4.70254,0 -0.55136,0 -1.08546,-0.18946 -1.60237,-0.56843 -0.27547,-9e-5 -0.54232,-0.0948 -0.80058,-0.28422 -0.48244,-0.41352 -0.72371,-0.89592 -0.72382,-1.44726 -0.24093,-0.20664 -0.36139,-0.44768 -0.36139,-0.72316 0,0 0,-7.33845 0,-7.33857 0,-0.0284 0,-3.669032 0,-3.669032 0,0 14.10814,0 14.10836,0 0.0547,0 7.05368,0 7.05368,0 0,0 0,-2.37717 0,-2.37732 0,-0.0183 0,-1.18834 0,-1.18834 0,0 -14.10812,0 -14.10833,0 -0.0547,0 -7.05371,0 -7.05371,0 0,0 0,-20.25801 0,-20.25832 0,-0.0785 0,-10.12846 0,-10.12846 0,-0.51691 0.25837,-0.98209 0.77515,-1.39563 1.3e-4,-0.25824 0.12931,-0.49065 0.38757,-0.69726 0.51691,-0.41354 1.03377,-0.62033 1.55068,-0.62043 0.25826,-0.20651 0.5165,-0.30976 0.77476,-0.30976 0,0 9.40555,0 9.40569,0 0.0365,0 4.70252,0 4.70252,0 0,0 0,-2.37717 0,-2.37732 0,-0.0183 0,-1.18834 0,-1.18834 0,0 -9.40553,0 -9.40567,0 -0.0364,0 -4.70254,0 -4.70254,0 0,0 0,0 0,0 m 12.04098,0 m 24.0819,0 c -2.5496,0 -4.75449,0.93012 -6.61505,2.79053 -1.27452,1.1e-4 -2.37673,0.46517 -3.30682,1.39526 -1.86052,1.82605 -2.7911,4.01369 -2.79122,6.56323 -0.92997,0.91291 -1.39509,2.00673 -1.39509,3.2813 0,0 0,11.16253 0,11.1627 0,0.0433 0,5.58098 0,5.58098 0,1.61934 0.63731,2.65326 1.91203,3.10123 7e-5,0.80945 0.3189,1.32608 0.95618,1.54999 0,0 11.05919,3.72073 11.05936,3.72078 0.0429,0.0144 5.52912,1.86027 5.52912,1.86027 0.79259,0.27569 1.46488,0.84417 2.01631,1.705532 0.39594,0.13788 0.7318,0.42202 1.00728,0.85246 0.55103,0.86099 0.82669,1.70469 0.82702,2.53125 0.27549,0.43095 0.41321,0.85325 0.41321,1.26697 0,1.37791 -0.43074,2.53222 -1.29162,3.46248 -3.2e-4,0.68904 -0.21583,1.26629 -0.64659,1.73151 -0.8614,0.89586 -1.9811,1.34381 -3.35928,1.34392 -0.43061,0.44765 -0.99047,0.67146 -1.67934,0.67146 0,0 -11.16254,0 -11.16271,0 -0.0433,0 -5.58097,0 -5.58097,0 0,0 0,2.3772 0,2.37734 0,0.0183 0,1.18834 0,1.18834 0,0 11.62763,0 11.62781,0 0.0451,0 5.8135,0 5.8135,0 1.75716,0 3.29059,-0.72342 4.59987,-2.17041 0.87839,-9e-5 1.64495,-0.3618 2.29945,-1.0852 1.30926,-1.48153 1.96387,-3.10107 1.96395,-4.8582 0.65442,-0.74064 0.98161,-1.55028 0.98161,-2.4287 0,-3.23858 -1.91227,-5.615662 -5.73643,-7.131642 -1.2e-4,-1.61909 -0.95625,-2.80748 -2.86821,-3.56538 0,0 -7.85488,-2.58383 -7.855,-2.58387 -0.0304,-0.01 -3.92723,-1.29186 -3.92723,-1.29186 -1.48089,-0.51659 -2.22173,-1.11953 -2.22263,-1.8082 -0.74035,-0.25869 -1.1105,-0.56039 -1.1105,-0.90516 0,0 0,-10.76786 0,-10.85215 0,-0.0424 0,-5.42644 0,-5.42644 0,-1.92943 0.68898,-3.5831 2.06706,-4.96129 8e-5,-0.96451 0.34457,-1.79134 1.03352,-2.48029 1.37817,-1.37816 3.0318,-2.06722 4.96119,-2.0673 0.68899,-0.68887 1.51568,-1.03328 2.48022,-1.03328 2.30842,0 4.06581,0.74066 5.27176,2.22208 1.15393,9e-5 2.03242,0.37042 2.63525,1.11104 1.20589,1.44708 1.80883,3.08384 1.8089,4.90987 0.60276,0.72343 0.90412,1.54168 0.90412,2.45454 0,0 0,9.92195 0,9.9221 0,0.0385 0,4.96071 0,4.96071 0,0 2.32551,0 2.32565,0 0.0179,0 1.1625,0 1.1625,0 0,0 0,-9.94747 0,-10.02534 0,-0.0392 0,-5.01284 0,-5.01284 0,-2.5496 -0.93012,-4.73727 -2.79052,-6.56337 -1.2e-4,-1.27452 -0.46518,-2.3683 -1.39527,-3.28116 -1.86051,-1.86052 -4.06571,-2.79075 -6.61527,-2.79087 -0.93013,-0.92997 -2.03255,-1.39492 -3.30712,-1.39492 0,0 0,0 0,0 m -80.671566,0.0258 m -161.34311,0.0517 c -2.549594,0 -4.754844,0.9129 -6.615394,2.73886 -1.27453,1.2e-4 -2.37691,0.45656 -3.307,1.36943 -1.82607,1.82605 -2.73907,4.03125 -2.73919,6.61525 -0.91275,0.91291 -1.3691,2.01534 -1.3691,3.30713 0,0 0,19.9476 0,19.94791 0,0.0773 0,9.973262 0,9.973262 0,2.58406 0.91291,4.80653 2.73886,6.66708 1.1e-4,1.29174 0.45656,2.40274 1.36943,3.33283 1.86052,1.82607 4.08294,2.73908 6.66694,2.73919 0.93014,0.91275 2.041184,1.36909 3.332964,1.36909 2.5496,0 4.73727,-0.9129 6.56338,-2.73886 1.27452,-1.1e-4 2.36811,-0.45656 3.28097,-1.36942 1.86052,-1.86051 2.79111,-4.08293 2.79122,-6.66694 0.92997,-0.93014 1.39509,-2.04118 1.39509,-3.33297 0,0 0,-19.947602 0,-19.947902 0,-0.0773 0,-9.97327 0,-9.97327 0,-2.54959 -0.93046,-4.7376 -2.79087,-6.56372 -1.1e-4,-1.27452 -0.46535,-2.36829 -1.39544,-3.28116 -1.8605,-1.8605 -4.06535,-2.79075 -6.61491,-2.79086 -0.93013,-0.92998 -2.03238,-1.39493 -3.30695,-1.39493 0,0 0,0 0,0 m 50.41621,1.08521 m 100.83243,2.17041 c 1.89497,0 3.54864,0.70621 4.96128,2.11873 0.94728,9e-5 1.77395,0.35319 2.48012,1.05937 1.41262,1.37817 2.11891,3.0318 2.119,4.96119 0.70609,0.68898 1.05928,1.51585 1.05928,2.48039 0,0 0,15.24526 0,15.24532 0,0.0297 0,7.62236 0,7.62236 0,0 -14.10812,0 -14.10834,0 -0.0547,0 -7.05385,0 -7.05385,0 0,0 0,-15.24527 0,-15.24533 0,-0.0297 0,-7.62235 0,-7.62235 0,-1.92943 0.68898,-3.58309 2.06706,-4.96129 2.5e-4,-0.96468 0.34508,-1.79168 1.0342,-2.48081 1.37798,-1.41218 3.03171,-2.11821 4.96078,-2.11821 0.68904,-0.70627 1.51581,-1.05937 2.48047,-1.05937 0,0 0,0 0,0 m -63.36754,0.0517 m -126.735074,0.10336 c 0,0 4.2376,0 4.23785,0 0.0326,0 2.11835,0 2.11835,0 1.89498,0 3.53142,0.70619 4.90961,2.11873 0.94728,9e-5 1.76533,0.35319 2.45428,1.05937 1.41262,1.37816 2.11891,3.01456 2.119,4.90951 0.70609,0.68898 1.05928,1.50739 1.05928,2.45503 0,0.0821 0,10.59354 0,10.59354 0,0 0,5.29683 0,5.29683 0,1.89498 -0.63731,3.17005 -1.91203,3.82474 -2.3e-4,0.94732 -0.31922,1.58475 -0.95665,1.91208 -1.27468,0.61998 -2.99697,0.92995 -5.16718,0.92995 -0.63736,0.31006 -1.49865,0.46508 -2.58401,0.46508 -0.0325,0 -4.1856,0 -4.1856,0 0,0 -2.0929,-8e-5 -2.0929,-2.5e-4 0,-0.0871 0,-22.37632 0,-22.37632 0,0 0,-11.18829 0,-11.18829 m 25.90265,0.0517 m 12.951324,0.0258 c 0.96477,0 1.79166,0.35311 2.48082,1.05937 1.92916,9e-5 3.58259,0.70629 4.96059,2.11873 0.68912,0.68912 1.03369,1.50754 1.03378,2.45506 1.37789,1.37803 2.06679,3.01461 2.06679,4.90935 0,0 0,9.9738 0,9.97395 0,0.0776 0,19.947222 0,19.947222 0,0.96477 -0.34449,1.80045 -1.03353,2.50684 -8e-5,1.92915 -0.68905,3.60016 -2.06704,5.0126 -0.6719,0.68912 -1.49015,1.03369 -2.45488,1.03378 -1.34358,1.37792 -2.97983,2.06681 -4.90902,2.06681 -0.982,0 -1.817684,-0.34449 -2.506834,-1.03353 -1.96365,-1.2e-4 -3.63469,-0.68914 -5.01273,-2.06719 -0.67173,-0.68901 -1.00756,-1.52453 -1.00756,-2.50635 -1.34363,-1.37807 -2.01538,-3.0492 -2.01538,-5.01296 0,0 0,-9.973802 0,-9.973952 0,-0.0777 0,-19.94734 0,-19.94739 4e-5,-0.96459 0.34453,-1.79147 1.03352,-2.48047 0,-1.92931 0.68899,-3.5832 2.06706,-4.96127 0.68913,-0.68912 1.50755,-1.0337 2.45506,-1.03378 1.37802,-1.37791 3.01461,-2.06682 4.909354,-2.06682 0,0 0,0 0,0"
         style="font-style:normal;font-variant:normal;font-weight:normal;font-stretch:normal;font-size:77.51683807px;line-height:1.25;font-family:'Monicas Salon NF';-inkscape-font-specification:'Monicas Salon NF, Normal';font-variant-ligatures:normal;font-variant-caps:normal;font-variant-numeric:normal;font-feature-settings:normal;text-align:start;letter-spacing:0px;word-spacing:0px;writing-mode:lr-tb;text-anchor:start;opacity:1;fill:#cd6392;fill-opacity:1;stroke:#cd6392;stroke-width:8;stroke-linejoin:round;stroke-miterlimit:4;stroke-dasharray:none;stroke-opacity:1;filter:url(#filter1129)"
         id="path947"
         inkscape:connector-curvature="0" />
      <path
         inkscape:connector-curvature="0"
         id="path928"
         style="font-style:normal;font-variant:normal;font-weight:normal;font-stretch:normal;font-size:77.51683807px;line-height:1.25;font-family:'Monicas Salon NF';-inkscape-font-specification:'Monicas Salon NF, Normal';font-variant-ligatures:normal;font-variant-caps:normal;font-variant-numeric:normal;font-feature-settings:normal;text-align:start;letter-spacing:0px;word-spacing:0px;writing-mode:lr-tb;text-anchor:start;opacity:1;fill:#e6b1c8;fill-opacity:1;stroke:#e6b1c8;stroke-width:3.9000001;stroke-linejoin:round;stroke-miterlimit:4;stroke-dasharray:none;stroke-opacity:1;filter:url(#filter1117)"
         d="m 52.943318,57.154717 c -3.87585,0 -7.18347,1.36935 -9.92239,4.10828 -1.2e-4,1.2e-4 -2.3e-4,2.3e-4 -3.4e-4,3.4e-4 -2.7387,2.73886 -4.10794,6.07204 -4.10794,9.99939 0,0 0,6e-5 0,1.7e-4 0,0.0571 0,44.029363 0,44.029363 0,0 1.4e-4,0 4.2e-4,0 0.0358,0 3.48774,0 3.48774,0 0,0 0,-1.8e-4 0,-5.4e-4 0,-0.0913 0,-17.673323 0,-17.673323 0,0 2.1e-4,0 6.4e-4,0 0.10936,0 21.16172,0 21.16172,0 0,0 0,9e-5 0,2.7e-4 0,0.0457 0,17.673593 0,17.673593 0,0 7e-5,0 2.1e-4,0 0.0179,0 3.48812,0 3.48812,0 0,0 0,-1.2e-4 0,-3.4e-4 0,-0.11421 0,-44.029193 0,-44.029193 0,-3.1e-4 0,-6.2e-4 0,-9.3e-4 -2.3e-4,-3.82377 -1.39593,-7.13091 -4.18631,-9.92129 -1.1e-4,-1.1e-4 -2.3e-4,-2.2e-4 -3.4e-4,-3.4e-4 -2.79053,-2.79037 -6.09753,-4.18545 -9.92153,-4.18545 0,0 0,0 0,0 m -222.364368,0.10335 m -111.18218,0.0517 c -0.63752,0 -1.18886,0.23252 -1.65411,0.69762 -1.27453,1.2e-4 -2.37674,0.46518 -3.30683,1.39527 -0.46521,0.46521 -0.69786,1.02512 -0.69797,1.67983 -0.92998,0.93013 -1.39493,2.04961 -1.39493,3.35862 0,0 0,14.6509 0,14.65112 0,0.11401 0,29.301223 0,29.301223 0,0.65475 0.22391,1.21471 0.67179,1.67997 1.1e-4,1.30897 0.44796,2.4284 1.34359,3.35849 0.46522,0.44799 1.02513,0.67201 1.67983,0.67212 0.93013,0.89553 2.04961,1.34326 3.35863,1.34326 0,0 4.70286,0 4.70315,0 0.0729,0 9.40501,0 9.40501,0 0,0 0,-1.18871 0,-1.18899 0,-0.0366 0,-2.37669 0,-2.37669 0,0 -4.70286,0 -4.70315,0 -0.0729,0 -9.40501,0 -9.40501,0 -0.27589,0 -0.54314,-0.0947 -0.8018,-0.28421 -0.55095,-1.9e-4 -1.08464,-0.18965 -1.60117,-0.56844 -0.24128,-0.20681 -0.36197,-0.44807 -0.36209,-0.72378 -0.48208,-0.41336 -0.7231,-0.89554 -0.7231,-1.44664 0,0 0,-3.66931 0,-3.66953 0,-0.0569 0,-7.338063 0,-7.338063 0,0 7.05422,0 7.05465,0 0.10936,0 14.10736,0 14.10736,0 0,0 0,-1.18869 0,-1.18898 0,-0.0366 0,-2.37668 0,-2.37668 0,0 -7.05422,0 -7.05465,0 -0.10936,0 -14.10736,0 -14.10736,0 0,0 0,-10.12901 0,-10.12916 0,-0.0788 0,-20.25762 0,-20.25762 0,-0.25865 0.12918,-0.49142 0.38757,-0.69838 2.5e-4,-0.51648 0.25863,-0.98129 0.77514,-1.39451 0.25852,-0.20682 0.51701,-0.31027 0.77553,-0.31037 0.51666,-0.41322 1.03326,-0.61982 1.54992,-0.61982 0,0 4.70286,0 4.70315,0 0.0729,0 9.40501,0 9.40501,0 0,0 0,-1.18869 0,-1.18898 0,-0.0366 0,-2.37668 0,-2.37668 0,0 -4.70286,0 -4.70315,0 -0.0729,0 -9.40501,0 -9.40501,0 0,0 0,0 0,0 m 14.67645,0 m 7.33822,0 c 0,0 0,17.02802 0,17.02828 0,0.13251 0,34.055403 0,34.055403 0,0.65475 0.22392,1.21471 0.6718,1.67997 1.1e-4,1.30897 0.44794,2.4284 1.34357,3.35849 0.46522,0.44799 1.0253,0.67201 1.67999,0.67212 0.93014,0.89553 2.04997,1.34326 3.35899,1.34326 0,0 5.89146,0 5.89182,0 0.0913,0 11.78204,0 11.78204,0 0,0 0,-1.18871 0,-1.18899 0,-0.0366 0,-2.37669 0,-2.37669 0,0 -5.89147,0 -5.89183,0 -0.0913,0 -11.78203,0 -11.78203,0 -0.32745,0 -0.60338,-0.11195 -0.82747,-0.33589 -0.65438,-1.1e-4 -1.2054,-0.22403 -1.65317,-0.6718 -0.22415,-0.22415 -0.33633,-0.49996 -0.33655,-0.82748 -0.44745,-0.44775 -0.67149,-0.99872 -0.67149,-1.65299 0,0 0,-17.028013 0,-17.028273 0,-0.13251 0,-34.05541 0,-34.05541 0,0 -1.18871,0 -1.18899,0 -0.0366,0 -2.37668,0 -2.37668,0 0,0 0,0 0,0 m 24.0819,0 m 12.04096,0 c -0.63767,0 -1.18917,0.23252 -1.65458,0.69762 -1.27433,2.3e-4 -2.37639,0.46529 -3.30636,1.39527 -0.46533,0.46533 -0.69809,1.02535 -0.69831,1.68017 -0.92975,0.93006 -1.39458,2.04943 -1.39458,3.35828 0,0 0,14.6509 0,14.65112 0,0.11401 0,29.301223 0,29.301223 0,0.65491 0.22391,1.21503 0.67179,1.68045 2.2e-4,1.30876 0.44805,2.42804 1.34359,3.35801 0.46532,0.4481 1.02535,0.67223 1.68016,0.67245 0.93007,0.89531 2.04944,1.34293 3.35829,1.34293 0,0 4.70287,0 4.70315,0 0.0729,0 9.40503,0 9.40503,0 0,0 0,-1.18871 0,-1.18899 0,-0.0366 0,-2.37669 0,-2.37669 0,0 -4.70287,0 -4.70316,0 -0.0729,0 -9.40502,0 -9.40502,0 -0.27589,0 -0.54314,-0.0947 -0.80179,-0.28421 -0.55095,-1.9e-4 -1.08464,-0.18965 -1.60117,-0.56844 -0.24139,-0.20692 -0.3622,-0.44827 -0.36244,-0.72409 -0.48185,-0.41328 -0.72276,-0.89537 -0.72276,-1.44633 0,0 0,-3.66931 0,-3.66953 0,-0.0569 0,-7.338063 0,-7.338063 0,0 7.05422,0 7.05465,0 0.10936,0 14.10736,0 14.10736,0 0,0 0,-1.18869 0,-1.18898 0,-0.0366 0,-2.37668 0,-2.37668 0,0 -7.05422,0 -7.05465,0 -0.10935,0 -14.10736,0 -14.10736,0 0,0 0,-10.12924 0,-10.12986 0,-0.15703 0,-20.25692 0,-20.25692 0,-0.25865 0.12918,-0.49142 0.38757,-0.69838 2.5e-4,-0.51648 0.25862,-0.98129 0.77515,-1.39451 0.25864,-0.20692 0.51726,-0.31047 0.7759,-0.31067 0.51653,-0.41302 1.03301,-0.61952 1.54954,-0.61952 0,0 4.70287,0 4.70315,0 0.0729,0 9.40503,0 9.40503,0 0,0 0,-1.18869 0,-1.18898 0,-0.0366 0,-2.37668 0,-2.37668 0,0 -4.70287,0 -4.70316,0 -0.0729,0 -9.40502,0 -9.40502,0 0,0 0,0 0,0 m 24.08191,0 m 12.04095,0 c -1.27504,0 -2.37771,0.46505 -3.30823,1.39526 -2.54905,2.3e-4 -4.75347,0.93035 -6.61365,2.79053 -0.93043,0.91319 -1.39589,2.01596 -1.39611,3.30812 -1.85996,1.82582 -2.7902,4.03068 -2.7902,6.61426 0,0 0,9.97403 0,9.97464 0,0.15462 0,19.946533 0,19.946533 0,1.29226 0.45663,2.40373 1.3696,3.33424 2.3e-4,2.58349 0.91347,4.80548 2.7392,6.66566 0.93043,0.9132 2.04163,1.36988 3.33381,1.3701 1.86026,1.8255 4.082,2.73818 6.66558,2.73818 1.29226,0 2.39512,-0.45645 3.30841,-1.36943 2.58348,-2.2e-4 4.78825,-0.91312 6.61398,-2.73885 0.93043,-0.93042 1.39572,-2.0418 1.39594,-3.33398 1.85995,-1.86027 2.78985,-4.08235 2.78985,-6.66592 0,0 -1.1887,0 -1.18899,0 -0.0366,0 -2.37668,0 -2.37668,0 0,0.96488 -0.34449,1.80068 -1.03353,2.50718 -1.7e-4,1.92901 -0.68915,3.59989 -2.06706,5.01225 -0.68921,0.68921 -1.51632,1.03387 -2.48115,1.03404 -1.37797,1.37774 -3.0317,2.06655 -4.96077,2.06655 -0.96489,0 -1.7919,-0.34449 -2.48118,-1.03353 -1.92901,-1.7e-4 -3.58232,-0.68915 -4.96023,-2.06706 -0.6892,-0.6892 -1.03386,-1.52494 -1.03403,-2.50698 -1.37774,-1.37798 -2.06655,-3.04893 -2.06655,-5.01245 0,0 0,-9.974023 0,-9.974633 0,-0.15462 0,-19.94654 0,-19.94654 0,-0.96488 0.34449,-1.79207 1.03352,-2.48134 1.7e-4,-1.92901 0.68915,-3.58267 2.06706,-4.96058 0.68921,-0.6892 1.51615,-1.03386 2.48098,-1.03403 1.37797,-1.37774 3.03135,-2.06656 4.96043,-2.06656 0.75831,0 1.38737,0.14642 1.8873,0.43926 1.51539,1.4e-4 2.77275,0.29296 3.77161,0.8785 0.49967,0.29291 0.86168,0.7236 1.08574,1.29212 0.99892,0.58568 1.72223,1.44683 2.17005,2.58361 0.22405,0.5515 0.37056,1.09434 0.43958,1.62862 0.44769,1.10218 0.74039,2.1874 0.87817,3.25515 0.0862,0.5169 0.12923,1.1459 0.12925,1.88673 0.17222,1.03349 0.25832,2.29075 0.25832,3.772 0,0.22417 -0.009,0.54303 -0.0258,0.95668 -1e-5,0.44784 -0.0172,1.08493 -0.0517,1.91137 0,0 0,0.85276 0,0.85297 0,0.0262 0,1.70501 0,1.70501 0,0 1.1887,0 1.18899,0 0.0366,0 2.37668,0 2.37668,0 0,0 0,-3.53994 0,-3.54016 0,-0.0549 0,-7.07935 0,-7.07935 0,-1.27503 -0.46506,-2.37787 -1.39526,-3.30839 -2.3e-4,-2.54905 -0.93035,-4.75382 -2.79053,-6.61399 -0.93043,-0.93044 -2.0332,-1.39572 -3.30815,-1.39595 -1.86026,-1.85995 -4.06511,-2.78984 -6.61424,-2.78984 0,0 0,0 0,0 m 12.29554,0 m 6.1476,0 c 0,0 0,1.16286 0,1.16314 0,0.0358 0,2.32502 0,2.32502 0,0 3.17978,0 3.22966,0 0.0505,0 6.45985,0 6.45985,0 0,0 0,18.1455 0,18.21666 0,0.1419 0,36.432703 0,36.432703 0,0 1.14476,0 1.16293,0 0.0359,0 2.32523,0 2.32523,0 0,0 0,-18.145503 0,-18.216653 0,-0.1419 0,-36.43271 0,-36.43271 0,0 3.18007,0 3.23053,0 0.0998,0 6.45931,0 6.45931,0 0,0 0,-1.14477 0,-1.16294 0,-0.0359 0,-2.32522 0,-2.32522 0,0 -7.56341,0 -7.62296,0 -0.11841,0 -15.24455,0 -15.24455,0 0,0 0,0 0,0 m 18.16771,0 m 9.08403,0 c 0,0 0,19.3037 0,19.37939 0,0.15096 0,38.758133 0,38.758133 0,0 1.1274,0 1.16374,0 0.071,0 2.32494,0 2.32494,0 0,0 0,-5.8199 0,-5.86572 0,-0.0911 0,-11.730623 0,-11.730623 0,0 2.74743,0 2.79103,0 0.0862,0 5.58055,0 5.58055,0 1.89532,0 2.84313,0.93013 2.84359,2.790533 3.78879,4.5e-4 5.68337,1.86104 5.68337,5.5814 0,0 0,3.02743 0,3.07548 0,0.095 0,6.14893 0,6.14893 0,0 1.15201,0 1.1883,0 0.0371,0 2.37754,0 2.37754,0 0,0 0,-3.33271 0,-3.3856 0,-0.10454 0,-6.76934 0,-6.76934 0,-1.18902 -0.54261,-2.22297 -1.62758,-3.102 -6.6e-4,-2.376553 -1.08629,-4.443013 -3.25636,-6.199743 1.06827,-0.72367 1.60293,-1.69709 1.60371,-2.92006 2.13498,-1.44716 3.20272,-3.39382 3.20272,-5.83961 0,0 0,-5.21522 0,-5.29798 0,-0.16359 0,-10.5927 0,-10.5927 0,-1.27503 -0.46501,-2.36919 -1.39476,-3.28265 -6.8e-4,-2.54887 -0.93137,-4.73633 -2.79155,-6.56205 -0.9132,-0.93044 -2.00709,-1.39595 -3.28186,-1.39663 -1.82599,-1.85949 -4.01337,-2.78916 -6.5625,-2.78916 0,0 -3.23095,0 -3.28222,0 -0.10136,0 -6.56266,0 -6.56266,0 0,0 0,0 0,0 m 54.631628,0 m 27.31582,0 c 0,0 0,3.99396 0,4.05734 0,0.12529 0,8.1128 0,8.1128 -0.79249,-1.25765 -1.80017,-2.23966 -3.02321,-2.94622 -1.58485,-2.51464 -3.60007,-4.47835 -6.04601,-5.8908 -1.22319,-0.72357 -2.55838,-1.08547 -4.00546,-1.08573 -2.44602,-1.44663 -5.11604,-2.16988 -8.00982,-2.16988 0,0 0,19.27796 0,19.35356 0,0.15076 0,38.706453 0,38.706453 0,0 1.14476,0 1.16293,0 0.0359,0 2.32522,0 2.32522,0 0,0 0,-18.042553 0,-18.113313 0,-0.14109 0,-36.226 0,-36.226 1.70558,0.36179 3.10983,1.1885 4.21265,2.48026 3.41031,0.72378 6.21797,2.37741 8.42276,4.96114 1.10259,1.27489 1.65405,2.76508 1.65445,4.4705 2.20439,2.54945 3.30649,5.52953 3.30649,8.94006 0,0 0,11.07576 0,11.16296 0,0.1734 0,22.324393 0,22.324393 0,0 1.14476,0 1.16293,0 0.0359,0 2.32523,0 2.32523,0 0,0 0,-19.303693 0,-19.379393 0,-0.15095 0,-38.75813 0,-38.75813 0,0 -1.14477,0 -1.16294,0 -0.0359,0 -2.32522,0 -2.32522,0 0,0 0,0 0,0 m 5.22207,0 m 2.61104,0 c 0,0 0,19.3037 0,19.37939 0,0.15096 0,38.758133 0,38.758133 0,0 1.1702,0 1.18877,0 0.0367,0 2.3769,0 2.3769,0 0,0 0,-19.303693 0,-19.379393 0,-0.15095 0,-38.75813 0,-38.75813 0,0 -1.1702,0 -1.18877,0 -0.0367,0 -2.3769,0 -2.3769,0 0,0 0,0 0,0 m 14.65371,0 m 7.32686,0 c -1.27488,0 -2.37744,0.46494 -3.30789,1.39492 -2.54916,3.4e-4 -4.7537,0.93058 -6.61399,2.79087 -0.93031,0.91308 -1.39577,2.01569 -1.39611,3.30765 -1.85995,1.82598 -2.78985,4.03099 -2.78985,6.61473 0,0 0,9.89627 0,9.97418 0,0.15493 0,19.946993 0,19.946993 0,1.2921 0.45651,2.40346 1.36927,3.3339 3.3e-4,2.5836 0.91334,4.80571 2.73918,6.666 0.93032,0.91309 2.04137,1.36976 3.33334,1.3701 1.86042,1.8255 4.08231,2.73818 6.66605,2.73818 1.29211,0 2.39485,-0.45634 3.30808,-1.3691 2.58359,-3.3e-4 4.78847,-0.91334 6.61431,-2.73918 0.93032,-0.93031 1.39561,-2.04153 1.39595,-3.33351 1.85995,-1.86042 2.78984,-4.08266 2.78984,-6.66639 0,0 -1.15228,0 -1.18942,0 -0.0725,0 -2.37625,0 -2.37625,0 0,0.96488 -0.34432,1.80075 -1.03302,2.50737 -5.1e-4,1.92888 -0.68966,3.5997 -2.06756,5.01206 -0.68921,0.68921 -1.51626,1.03404 -2.48095,1.03454 -1.37811,1.37741 -3.03191,2.06605 -4.96098,2.06605 -0.96489,0 -1.79197,-0.34432 -2.48138,-1.03303 -1.92887,-5e-4 -3.58212,-0.68965 -4.96003,-2.06756 -0.6892,-0.6892 -1.03403,-1.52486 -1.03453,-2.50677 -1.37741,-1.37812 -2.06605,-3.04914 -2.06605,-5.01266 0,0 0,-9.896263 0,-9.974173 0,-0.15493 0,-19.947 0,-19.947 0,-0.96488 0.34432,-1.79213 1.03302,-2.48154 5.1e-4,-1.92887 0.68965,-3.58247 2.06756,-4.96038 0.68921,-0.6892 1.51609,-1.03403 2.48077,-1.03454 1.37812,-1.3774 3.03157,-2.06605 4.96064,-2.06605 0.75794,0 1.38694,0.14627 1.88674,0.43883 1.51563,2.8e-4 2.77324,0.29325 3.77235,0.87893 0.49992,0.29305 0.86206,0.72382 1.0865,1.29235 0.99841,0.5858 1.7214,1.44688 2.16911,2.58338 0.2241,0.55163 0.37071,1.09461 0.43986,1.62903 0.44752,1.10204 0.74013,2.18712 0.87789,3.25474 0.0862,0.5169 0.12926,1.14584 0.12932,1.88657 0.17217,1.03359 0.25825,2.29091 0.25825,3.77216 0,0.22428 -0.009,0.54316 -0.0258,0.95673 -4e-5,0.44801 -0.0173,1.08508 -0.0517,1.91132 0,0 0,0.82664 0,0.85328 0,0.052 0,1.7047 0,1.7047 0,0 1.15229,0 1.18942,0 0.0726,0 2.37626,0 2.37626,0 0,0 0,-3.48517 0,-3.54048 0,-0.10933 0,-7.07903 0,-7.07903 0,-1.27487 -0.46495,-2.3776 -1.39492,-3.30805 -3.4e-4,-2.54916 -0.93058,-4.75404 -2.79087,-6.61433 -0.93032,-0.93032 -2.03293,-1.39561 -3.30768,-1.39595 -1.86042,-1.85995 -4.06543,-2.78984 -6.61471,-2.78984 0,0 0,0 0,0 m 27.8391204,0 m 13.9195696,0 c 0,0 0,1.12723 0,1.16356 0,0.071 0,2.3246 0,2.3246 0,0 3.18007,0 3.23053,0 0.0998,0 6.45931,0 6.45931,0 0,0 0,18.07497 0,18.21728 0,0.28297 0,36.432083 0,36.432083 0,0 1.12724,0 1.16357,0 0.071,0 2.32459,0 2.32459,0 0,0 0,-18.074963 0,-18.217283 0,-0.28296 0,-36.43208 0,-36.43208 0,0 3.17991,0 3.23037,0 0.0998,0 6.45896,0 6.45896,0 0,0 0,-1.12724 0,-1.16357 0,-0.071 0,-2.32459 0,-2.32459 0,0 -7.56324,0 -7.62279,0 -0.1184,0 -15.24454,0 -15.24454,0 0,0 0,0 0,0 m 39.06118,0 m 19.53059,0 c 0,0 0,16.89564 0,17.02867 0,0.2645 0,34.055013 0,34.055013 0,0.65475 0.22381,1.21476 0.67146,1.68011 3.3e-4,1.30887 0.44828,2.42826 1.34392,3.35835 0.46521,0.44799 1.02508,0.67212 1.67968,0.67245 0.93023,0.89531 2.0501,1.34293 3.35912,1.34293 0,0 5.84552,0 5.89155,0 0.0915,0 11.7823,0 11.7823,0 0,0 0,-1.17021 0,-1.18878 0,-0.0367 0,-2.3769 0,-2.3769 0,0 -5.84553,0 -5.89155,0 -0.0915,0 -11.7823,0 -11.7823,0 -0.32762,0 -0.60353,-0.11195 -0.82779,-0.33589 -0.65416,-2.2e-4 -1.20537,-0.22414 -1.65303,-0.6718 -0.22415,-0.22415 -0.33633,-0.49996 -0.33655,-0.82748 -0.44744,-0.44775 -0.67114,-0.99872 -0.67114,-1.65299 0,0 0,-17.028013 0,-17.028273 0,-0.13251 0,-34.05541 0,-34.05541 0,0 -1.1887,0 -1.18899,0 -0.0366,0 -2.37668,0 -2.37668,0 0,0 0,0 0,0 m 24.08191,0 m 12.040952,0 c -0.63768,0 -1.18917,0.23252 -1.65458,0.69762 -1.27433,2.3e-4 -2.37639,0.46529 -3.30636,1.39527 -0.46533,0.46533 -0.69809,1.02535 -0.69831,1.68017 -0.92975,0.93006 -1.39459,2.04943 -1.39459,3.35828 0,0 0,14.6509 0,14.65112 0,0.11401 0,29.301223 0,29.301223 0,0.65491 0.22392,1.21503 0.6718,1.68045 2.2e-4,1.30876 0.44805,2.42804 1.34358,3.35801 0.46533,0.4481 1.02536,0.67223 1.68017,0.67245 0.93007,0.89531 2.04943,1.34293 3.35829,1.34293 0,0 4.70287,0 4.70316,0 0.0729,0 9.40502,0 9.40502,0 0,0 0,-1.18871 0,-1.18899 0,-0.0366 0,-2.37669 0,-2.37669 0,0 -4.70287,0 -4.70315,0 -0.0729,0 -9.40503,0 -9.40503,0 -0.27589,0 -0.54314,-0.0947 -0.8018,-0.28421 -0.55094,-1.9e-4 -1.08463,-0.18965 -1.60116,-0.56844 -0.2414,-0.20692 -0.3622,-0.44827 -0.36244,-0.72409 -0.48185,-0.41328 -0.72276,-0.89537 -0.72276,-1.44633 0,0 0,-3.66931 0,-3.66953 0,-0.0569 0,-7.338063 0,-7.338063 0,0 7.05422,0 7.05465,0 0.10936,0 14.10737,0 14.10737,0 0,0 0,-1.18869 0,-1.18898 0,-0.0366 0,-2.37668 0,-2.37668 0,0 -7.05422,0 -7.05465,0 -0.10936,0 -14.10737,0 -14.10737,0 0,0 0,-10.12924 0,-10.12986 0,-0.15703 0,-20.25692 0,-20.25692 0,-0.25865 0.12918,-0.49142 0.38757,-0.69838 2.5e-4,-0.51648 0.25862,-0.98129 0.77515,-1.39451 0.25864,-0.20692 0.51726,-0.31047 0.7759,-0.31067 0.51653,-0.41302 1.03301,-0.61952 1.54954,-0.61952 0,0 4.70287,0 4.70316,0 0.0729,0 9.40502,0 9.40502,0 0,0 0,-1.18869 0,-1.18898 0,-0.0366 0,-2.37668 0,-2.37668 0,0 -4.70287,0 -4.70315,0 -0.0729,0 -9.40503,0 -9.40503,0 0,0 0,0 0,0 m 24.0819,0 m 12.04096,0 c -1.27504,0 -2.37771,0.46505 -3.30823,1.39526 -2.54905,2.3e-4 -4.75347,0.93035 -6.61365,2.79053 -0.93043,0.91319 -1.39589,2.00717 -1.39611,3.28212 -1.85995,1.82581 -2.79019,4.01344 -2.79019,6.56258 0,0 0,5.5814 0,5.58174 0,0.0865 0,11.16194 0,11.16194 0,0.80982 0.31865,1.32693 0.95601,1.55106 1.6e-4,1.6189 0.63781,2.65217 1.91237,3.09999 0,0 5.52972,1.86041 5.53006,1.86052 0.0857,0.0288 11.05825,3.72053 11.05825,3.72053 0.39658,0.13795 0.73302,0.42229 1.00902,0.85307 0.79189,0.27576 1.4636,0.844033 2.01457,1.704913 0.27561,0.43065 0.41354,0.85266 0.41381,1.2661 0.55096,0.86128 0.82642,1.70527 0.82642,2.53212 0,0.6892 -0.21537,1.26661 -0.64581,1.73199 -3.2e-4,1.37775 -0.43103,2.53191 -1.29223,3.462 -0.43086,0.4481 -0.99086,0.67223 -1.68011,0.67245 -0.86122,0.89532 -1.98094,1.34293 -3.35868,1.34293 0,0 -5.5814,0 -5.58174,0 -0.0865,0 -11.16194,0 -11.16194,0 0,0 0,1.18871 0,1.189 0,0.0366 0,2.37668 0,2.37668 0,0 5.81394,0 5.8143,0 0.0901,0 11.62701,0 11.62701,0 0.87874,0 1.64561,-0.36171 2.30042,-1.08521 1.75677,-1.7e-4 3.28989,-0.7236 4.5989,-2.1704 0.65475,-0.7409 0.98217,-1.55081 0.98233,-2.42951 1.30886,-1.48129 1.96323,-3.10055 1.96323,-4.85739 0,-1.61944 -0.95614,-2.80812 -2.86822,-3.56627 -2.3e-4,-3.238163 -1.9125,-5.614953 -5.73643,-7.130743 0,0 -3.92753,-1.29195 -3.92776,-1.29203 -0.0609,-0.02 -7.85446,-2.5837 -7.85446,-2.5837 -0.74072,-0.25839 -1.11141,-0.55996 -1.11213,-0.90439 -1.48071,-0.51686 -2.221,-1.11976 -2.221,-1.8088 0,0 0,-5.38405 0,-5.42644 0,-0.0843 0,-10.85215 0,-10.85215 0,-0.96489 0.34449,-1.7919 1.03352,-2.48118 1.7e-4,-1.929 0.68915,-3.58266 2.06706,-4.96057 0.68921,-0.68921 1.51615,-1.03386 2.48097,-1.03403 1.37798,-1.37774 3.03136,-2.06655 4.96044,-2.06655 1.15442,0 2.03332,0.37032 2.63651,1.11103 2.30786,1.9e-4 4.06483,0.74084 5.2705,2.22209 0.60306,0.72367 0.90463,1.54219 0.90478,2.45534 1.20552,1.44685 1.80823,3.08334 1.80823,4.90907 0,0 0,4.96109 0,4.96139 0,0.0769 0,9.92142 0,9.92142 0,0 1.16286,0 1.16314,0 0.0358,0 2.32502,0 2.32502,0 0,0 0,-4.97385 0,-5.01301 0,-0.0779 0,-10.025 0,-10.025 0,-1.27503 -0.46506,-2.3691 -1.39526,-3.28239 -2.3e-4,-2.54904 -0.93035,-4.73659 -2.79053,-6.56231 -0.93043,-0.93044 -2.0332,-1.39572 -3.30814,-1.39595 -1.86027,-1.85995 -4.06512,-2.78984 -6.61425,-2.78984 0,0 0,0 0,0 m -161.343122,0.0517 m -80.67156,0.0258 c -1.27503,0 -2.377888,0.45645 -3.308398,1.36943 -2.54905,2.2e-4 -4.75382,0.91312 -6.61399,2.73885 -0.9132,0.91319 -1.36988,2.01596 -1.3701,3.30812 -1.82551,1.82582 -2.73818,4.03068 -2.73818,6.61426 0,0 0,9.97403 0,9.97464 0,0.15462 0,19.946533 0,19.946533 0,1.29226 0.45645,2.40373 1.36942,3.33424 2.3e-4,2.58349 0.91312,4.80548 2.73886,6.66566 0.93042,0.9132 2.04181,1.36988 3.33398,1.3701 1.86026,1.8255 4.08234,2.73818 6.665918,2.73818 1.27503,0 2.3691,-0.45645 3.28239,-1.36943 2.54904,-2.2e-4 4.73624,-0.91312 6.56196,-2.73885 0.93044,-0.93042 1.3959,-2.0418 1.39613,-3.33398 1.85995,-1.86027 2.79019,-4.08235 2.79019,-6.66592 0,0 0,-9.974023 0,-9.974633 0,-0.15462 0,-19.94654 0,-19.94654 0,-1.27503 -0.46524,-2.36927 -1.39544,-3.28256 -2.3e-4,-2.54904 -0.93069,-4.73659 -2.79088,-6.56232 -0.93043,-0.93042 -2.03301,-1.39571 -3.30796,-1.39594 -1.86026,-1.85995 -4.06477,-2.78984 -6.6139,-2.78984 0,0 0,0 0,0 m 100.8324304,2.17041 m 50.4162096,1.0852 c 0.94766,0 1.77467,0.35311 2.48116,1.05937 1.89457,1.7e-4 3.54789,0.70637 4.96025,2.11873 0.70643,0.68922 1.05971,1.51615 1.05988,2.48097 1.41219,1.37798 2.11856,3.03171 2.11856,4.96078 0,0 0,7.62268 0,7.6228 0,0.0593 0,15.24471 0,15.24471 0,0 -7.05422,0 -7.05465,0 -0.10936,0 -14.10771,0 -14.10771,0 0,0 0,-7.62268 0,-7.62279 0,-0.0593 0,-15.24472 0,-15.24472 0,-0.96489 0.34449,-1.79189 1.03353,-2.48117 2.5e-4,-1.92909 0.68966,-3.58284 2.06766,-4.96084 0.68898,-0.70609 1.51585,-1.0591 2.48038,-1.0591 1.37808,-1.41253 3.03163,-2.11874 4.96094,-2.11874 0,0 0,0 0,0 m -126.73507,0.10335 m -63.367528,0.0517 c 0,0 2.11899,0 2.1195,0 0.0652,0 4.2367,0 4.2367,0 0.94766,0 1.76605,0.35309 2.45532,1.05936 1.89457,1.8e-4 3.53066,0.70638 4.90857,2.11873 0.70644,0.68921 1.05971,1.50754 1.05988,2.45514 1.41219,1.37797 2.11857,3.01455 2.11857,4.90934 0,0.0411 0,5.29677 0,5.29677 0,0 0,10.59367 0,10.59367 0,0.94766 -0.31866,1.58537 -0.95602,1.91289 -2.3e-4,1.89451 -0.63796,3.16927 -1.9126,3.82382 -0.63734,0.30999 -1.49849,0.46497 -2.58359,0.46497 -1.27473,0.62013 -2.99721,0.93018 -5.16774,0.93018 -0.0162,0 -2.0928,0 -2.0928,0 0,0 -4.18579,-5e-5 -4.18579,-1.3e-4 0,-0.0435 0,-11.18816 0,-11.18816 0,0 0,-22.37658 0,-22.37658 m 12.95132,0.0258 m 25.902638,0.0517 c 1.92936,0 3.58297,0.70621 4.96111,2.11874 0.96458,4e-5 1.7913,0.35315 2.48029,1.05936 1.37812,1.37812 2.06713,3.01484 2.06718,4.90974 0.68895,0.68902 1.0334,1.5073 1.0334,2.45467 0,0 0,19.94749 0,19.94757 0,0.0388 0,9.973603 0,9.973603 0,1.92936 -0.68898,3.60054 -2.06705,5.01313 -4e-5,0.96458 -0.34453,1.80008 -1.03353,2.5063 -1.34367,1.37812 -2.98003,2.06714 -4.90938,2.06718 -0.67179,0.68897 -1.48991,1.03341 -2.45451,1.03341 -1.963818,0 -3.634998,-0.68898 -5.013138,-2.06706 -0.98188,-1.2e-4 -1.81746,-0.34469 -2.50654,-1.03378 -1.34346,-1.37803 -2.01514,-3.04907 -2.01514,-5.01271 -0.67181,-0.68903 -1.00769,-1.5246 -1.00769,-2.50647 0,0 0,-19.947483 0,-19.947563 0,-0.0389 0,-9.97384 0,-9.97396 9e-5,-1.92916 0.68907,-3.58294 2.06706,-4.96093 0,-0.96465 0.34449,-1.7916 1.03353,-2.48064 1.37812,-1.37811 3.01484,-2.06714 4.90973,-2.06718 0.68901,-0.68895 1.507308,-1.03341 2.454678,-1.03341 0,0 0,0 0,0" />
      <path
         style="font-style:normal;font-variant:normal;font-weight:normal;font-stretch:normal;font-size:77.51683807px;line-height:1.25;font-family:'Monicas Salon NF';-inkscape-font-specification:'Monicas Salon NF, Normal';font-variant-ligatures:normal;font-variant-caps:normal;font-variant-numeric:normal;font-feature-settings:normal;text-align:start;letter-spacing:0px;word-spacing:0px;writing-mode:lr-tb;text-anchor:start;opacity:0.10700001;fill:#000000;fill-opacity:1;stroke:none;stroke-width:0.2;stroke-miterlimit:4;stroke-dasharray:none;filter:url(#filter975)"
         d="m 48.663576,58.213053 c -3.7351,0 -6.92262,1.31963 -9.5621,3.9591 -2.63947,2.63948 -3.9591,5.85189 -3.9591,9.6368 v 42.430597 h 3.3615 V 97.207453 h 20.3941 v 17.032097 h 3.3615 V 71.808953 c 0,-3.6853 -1.34502,-6.87283 -4.0343,-9.5621 -2.68927,-2.68927 -5.87629,-4.0338 -9.5616,-4.0338 z m -321.435106,0.1494 c -1.84266,0 -3.43615,0.67226 -4.7808,2.01691 -1.34464,1.34463 -2.01691,2.96303 -2.01691,4.85549 v 42.356397 c 0,1.89245 0.64738,3.51086 1.94221,4.8555 1.34463,1.29484 2.96304,1.9422 4.8555,1.9422 h 13.59588 v -3.43619 h -13.59588 c -0.79682,0 -1.56869,-0.27389 -2.31572,-0.82171 -0.69721,-0.59762 -1.04578,-1.29478 -1.04578,-2.0916 V 97.431553 h 20.3936 v -3.43621 h -20.3936 v -29.28339 c 0,-0.74702 0.37348,-1.41928 1.12049,-2.0169 0.74703,-0.59762 1.49398,-0.8964 2.24101,-0.8964 h 13.59588 v -3.4362 z m 21.21531,0 v 49.228797 c 0,1.89245 0.64735,3.51086 1.94218,4.8555 1.34463,1.29484 2.96355,1.9422 4.85601,1.9422 h 17.03209 v -3.43619 h -17.03209 c -0.94624,0 -1.74299,-0.32369 -2.3904,-0.9711 -0.64744,-0.64743 -0.97161,-1.44418 -0.97161,-2.39041 V 58.362453 Z m 34.81119,0 c -1.84265,0 -3.43618,0.67226 -4.78081,2.01691 -1.34465,1.34463 -2.0169,2.96303 -2.0169,4.85549 v 42.356397 c 0,1.89245 0.64737,3.51086 1.9422,4.8555 1.34464,1.29484 2.96305,1.9422 4.85551,1.9422 h 13.59589 v -3.43619 h -13.59589 c -0.79683,0 -1.56869,-0.27389 -2.31571,-0.82171 -0.69721,-0.59762 -1.04579,-1.29478 -1.04579,-2.0916 V 97.431553 h 20.39358 v -3.43621 h -20.39358 v -29.28339 c 0,-0.74702 0.37347,-1.41928 1.1205,-2.0169 0.747,-0.59762 1.49397,-0.8964 2.241,-0.8964 h 13.59589 v -3.4362 z m 34.8112,0 c -3.68531,0 -6.87233,1.34453 -9.56161,4.0338 -2.68927,2.63947 -4.0343,5.82699 -4.0343,9.5621 v 28.834707 c 0,3.73509 1.32012,6.94751 3.95961,9.63678 2.68927,2.63949 5.90118,3.95911 9.6363,3.95911 3.7351,0 6.92262,-1.31962 9.56209,-3.95911 2.68927,-2.68927 4.0338,-5.90169 4.0338,-9.63678 h -3.43619 c 0,2.78887 -0.99595,5.20453 -2.98801,7.24639 -1.99205,1.99205 -4.38282,2.988 -7.17169,2.988 -2.7889,0 -5.17915,-0.99595 -7.17121,-2.988 -1.99205,-1.99205 -2.98799,-4.40771 -2.98799,-7.24639 V 71.958353 c 0,-2.78888 0.99594,-5.17964 2.98799,-7.1717 1.99206,-1.99205 4.38231,-2.988 7.17121,-2.988 2.19126,0 4.00935,0.42328 5.45358,1.2699 1.44425,0.84662 2.48999,2.09155 3.13741,3.735 0.64741,1.59364 1.0707,3.16275 1.2699,4.7066 0.249,1.49404 0.3735,3.31164 0.3735,5.4531 0,0.64742 -0.0249,1.56866 -0.0747,2.7639 v 2.4651 h 3.43619 v -10.2339 c 0,-3.68531 -1.34453,-6.87283 -4.0338,-9.5621 -2.68928,-2.68927 -5.8768,-4.0338 -9.56209,-4.0338 z m 17.77361,0 v 3.3615 h 9.3375 v 52.664997 h 3.36151 V 61.723953 h 9.33799 v -3.3615 z m 26.26204,0 v 56.026497 h 3.36199 V 97.431553 h 8.06761 c 5.47815,0 8.2175,2.689537 8.2175,8.068097 v 8.8893 h 3.43619 v -9.78621 c 0,-3.43628 -1.5691,-6.424117 -4.70659,-8.963987 3.08768,-2.09166 4.63189,-4.9057 4.63189,-8.4416 v -15.3135 c 0,-3.68531 -1.34502,-6.84793 -4.0343,-9.4874 -2.63947,-2.68927 -5.80158,-4.0338 -9.48689,-4.0338 z m 78.971836,0 v 11.7284 c -2.29087,-3.63551 -5.204,-6.47444 -8.7399,-8.5163 -3.5359,-2.09166 -7.39568,-3.13739 -11.579,-3.13739 v 55.951787 h 3.3615 V 62.022753 c 4.93034,1.04582 8.98931,3.4361 12.1766,7.1712 3.18729,3.6853 4.7808,7.99326 4.7808,12.9236 v 32.271397 h 3.3615 V 58.362453 Z m 7.54868,0 v 56.026497 h 3.4362 V 58.362453 Z m 21.18243,0 c -3.6853,0 -6.87232,1.34453 -9.5616,4.0338 -2.68927,2.63947 -4.03379,5.82699 -4.03379,9.5621 v 28.834707 c 0,3.73509 1.31962,6.94751 3.9591,9.63678 2.68927,2.63949 5.90119,3.95911 9.63629,3.95911 3.73511,0 6.92263,-1.31962 9.56211,-3.95911 2.68927,-2.68927 4.0338,-5.90169 4.0338,-9.63678 h -3.43621 c 10e-6,2.78887 -0.99594,5.20453 -2.98799,7.24639 -1.99206,1.99205 -4.38283,2.988 -7.17171,2.988 -2.78887,0 -5.17914,-0.99595 -7.1712,-2.988 -1.99205,-1.99205 -2.988,-4.40771 -2.988,-7.24639 V 71.958353 c 0,-2.78888 0.99595,-5.17964 2.988,-7.1717 1.99206,-1.99205 4.38233,-2.988 7.1712,-2.988 2.19127,0 4.00936,0.42328 5.4536,1.2699 1.44425,0.84662 2.48999,2.09155 3.1374,3.735 0.64742,1.59364 1.0707,3.16275 1.26991,4.7066 0.249,1.49404 0.37349,3.31164 0.37349,5.4531 0,0.64742 -0.0249,1.56866 -0.0747,2.7639 v 2.4651 h 3.43621 v -10.2339 c 0,-3.68531 -1.34453,-6.87283 -4.0338,-9.5621 -2.68928,-2.68927 -5.8768,-4.0338 -9.5621,-4.0338 z m 40.24239,0 v 3.3615 h 9.338 v 52.664997 h 3.3615 V 61.723953 h 9.3375 v -3.3615 z m 56.46425,0 v 49.228797 c 0,1.89245 0.64736,3.51086 1.94219,4.8555 1.34464,1.29484 2.96355,1.9422 4.856,1.9422 h 17.0321 v -3.43619 h -17.0321 c -0.94622,0 -1.74348,-0.32369 -2.3909,-0.9711 -0.64741,-0.64743 -0.9711,-1.44418 -0.9711,-2.39041 V 58.362453 Z m 34.811194,0 c -1.842654,0 -3.436164,0.67226 -4.780804,2.01691 -1.34464,1.34463 -2.0169,2.96303 -2.0169,4.85549 v 42.356397 c 0,1.89245 0.64737,3.51086 1.9422,4.8555 1.34465,1.29484 2.96304,1.9422 4.855504,1.9422 h 13.5959 v -3.43619 h -13.5959 c -0.79682,0 -1.568674,-0.27389 -2.315704,-0.82171 -0.69722,-0.59762 -1.04579,-1.29478 -1.04579,-2.0916 V 97.431553 h 20.393604 v -3.43621 H 97.961106 v -29.28339 c 0,-0.74702 0.37347,-1.41928 1.12049,-2.0169 0.74702,-0.59762 1.493994,-0.8964 2.241004,-0.8964 h 13.5959 v -3.4362 z m 34.81121,0 c -3.68531,0 -6.87232,1.34453 -9.5616,4.0338 -2.68927,2.63947 -4.03429,5.80209 -4.03429,9.4874 v 16.1357 c 0,2.34066 0.92174,3.83458 2.76438,4.482 l 15.98581,5.3784 c 1.14543,0.39841 2.11698,1.22007 2.9138,2.465097 0.79681,1.24504 1.19519,2.46507 1.19519,3.66031 0,1.99205 -0.62246,3.66075 -1.86749,5.00539 -1.24503,1.29483 -2.86395,1.94221 -4.856,1.94221 h -16.13569 v 3.43619 h 16.80799 c 2.53987,0 4.75635,-1.04573 6.6488,-3.13739 1.89245,-2.14146 2.83859,-4.48244 2.83859,-7.02231 0,-4.681327 -2.76424,-8.117337 -8.2922,-10.308597 l -11.35439,-3.735 c -2.14146,-0.74702 -3.2121,-1.61848 -3.2121,-2.61451 v -15.68749 c 0,-2.78888 0.99595,-5.17964 2.988,-7.1717 1.99204,-1.99206 4.38231,-2.988 7.1712,-2.988 3.33668,0 5.87685,1.07065 7.61989,3.2121 1.74306,2.09167 2.61451,4.45752 2.61451,7.097 v 14.3424 h 3.36149 v -14.4918 c 0,-3.68531 -1.34452,-6.84793 -4.0338,-9.4874 -2.68928,-2.68927 -5.87679,-4.0338 -9.56209,-4.0338 z m -233.226874,0.0747 c -3.685296,0 -6.872816,1.31963 -9.562086,3.95909 -2.63949,2.63948 -3.9591,5.82699 -3.9591,9.56211 v 28.834707 c 0,3.7351 1.31961,6.94751 3.9591,9.63678 2.68927,2.63949 5.90169,3.95911 9.636786,3.95911 3.6853,0 6.84742,-1.31962 9.4869,-3.95911 2.68928,-2.68927 4.0343,-5.90168 4.0343,-9.63678 V 71.958353 c 0,-3.68531 -1.34502,-6.84792 -4.0343,-9.4874 -2.68928,-2.68927 -5.8763,-4.03379 -9.5616,-4.03379 z m 145.75664,3.13739 c 2.73908,0 5.12934,1.02085 7.1712,3.0627 2.04186,1.99206 3.0632,4.38283 3.0632,7.17171 v 22.03699 h -20.3941 v -22.03699 c 0,-2.78887 0.99644,-5.17964 2.9885,-7.1717 1.99206,-2.04186 4.38232,-3.0627 7.1712,-3.0627 z m -183.199766,0.1494 h 6.12541 c 2.73908,0 5.10445,1.02085 7.0965,3.0627 2.04185,1.99206 3.0632,4.35793 3.0632,7.097 v 15.3135 c 0,2.73908 -0.92176,4.58207 -2.76441,5.5283 -1.84266,0.89643 -4.33251,1.34461 -7.47,1.34461 h -6.0507 z m 37.443126,0.0747 c 2.78888,0 5.17914,1.02084 7.1712,3.0627 1.99205,1.99205 2.988,4.35792 2.988,7.097 v 28.834707 c 0,2.78887 -0.99595,5.20453 -2.988,7.24638 -1.94226,1.99206 -4.30762,2.98801 -7.0965,2.98801 -2.83868,0 -5.254336,-0.99595 -7.246396,-2.98801 -1.94225,-1.99205 -2.9133,-4.40771 -2.9133,-7.24638 V 71.958353 c 0,-2.78888 0.99596,-5.17964 2.988,-7.1717 1.99206,-1.99205 4.357926,-2.988 7.096996,-2.988 z"
         id="path2011"
         inkscape:connector-curvature="0" />
      <path
         inkscape:connector-curvature="0"
         id="path881"
         d="m 52.943331,57.15472 c -3.87584,0 -7.18346,1.36935 -9.92239,4.10828 -2.73893,2.73893 -4.10827,6.07239 -4.10827,9.99991 v 44.02935 h 3.48816 V 97.618397 h 21.16253 v 17.673863 h 3.48816 V 71.26291 c 0,-3.82416 -1.39571,-7.13179 -4.18631,-9.92239 -2.79061,-2.79061 -6.09771,-4.1858 -9.92188,-4.1858 z m -333.546561,0.15503 c -1.91209,0 -3.56563,0.69759 -4.96094,2.0929 -1.39531,1.3953 -2.09291,3.07469 -2.09291,5.03845 v 43.95236 c 0,1.96376 0.67178,3.64315 2.01539,5.03845 1.3953,1.34363 3.07469,2.01538 5.03846,2.01538 h 14.10816 v -3.56567 h -14.10816 c -0.82685,0 -1.6278,-0.28421 -2.40297,-0.85267 -0.72348,-0.62013 -1.08519,-1.34356 -1.08519,-2.17041 V 97.850947 h 21.16201 v -3.56568 h -21.16201 V 63.8985 c 0,-0.77517 0.38756,-1.47276 1.16271,-2.0929 0.77517,-0.62013 1.55027,-0.93017 2.32545,-0.93017 h 14.10816 v -3.56568 z m 22.01468,0 v 51.08371 c 0,1.96376 0.67175,3.64315 2.01536,5.03845 1.3953,1.34363 3.07522,2.01538 5.03898,2.01538 h 17.67386 v -3.56567 h -17.67386 c -0.98188,0 -1.80866,-0.33588 -2.48046,-1.00769 -0.67183,-0.67182 -1.00822,-1.49859 -1.00822,-2.48047 V 57.30975 Z m 36.12285,0 c -1.91208,0 -3.56564,0.69759 -4.96094,2.0929 -1.39531,1.3953 -2.09289,3.07469 -2.09289,5.03845 v 43.95236 c 0,1.96376 0.67175,3.64315 2.01538,5.03845 1.3953,1.34363 3.07469,2.01538 5.03845,2.01538 h 14.10818 v -3.56567 h -14.10818 c -0.82685,0 -1.62779,-0.28421 -2.40296,-0.85267 -0.72348,-0.62013 -1.0852,-1.34356 -1.0852,-2.17041 V 97.850947 h 21.16201 v -3.56568 h -21.16201 V 63.8985 c 0,-0.77517 0.38755,-1.47276 1.16272,-2.0929 0.77516,-0.62013 1.55027,-0.93017 2.32544,-0.93017 h 14.10818 v -3.56568 z m 36.12286,0 c -3.82417,0 -7.13127,1.39519 -9.92188,4.18579 -2.7906,2.73893 -4.18631,6.04655 -4.18631,9.9224 v 29.92118 c 0,3.87583 1.36987,7.20929 4.1088,9.99989 2.7906,2.73893 6.12354,4.10828 9.99939,4.10828 3.87584,0 7.18346,-1.36935 9.92239,-4.10828 2.7906,-2.7906 4.18579,-6.12406 4.18579,-9.99989 h -3.56567 c 0,2.89395 -1.03347,5.40063 -3.10059,7.51942 -2.06711,2.06712 -4.54796,3.10059 -7.44192,3.10059 -2.89397,0 -5.37429,-1.03347 -7.44141,-3.10059 -2.06711,-2.06711 -3.10058,-4.57379 -3.10058,-7.51942 V 71.41794 c 0,-2.89397 1.03347,-5.37481 3.10058,-7.44193 2.06712,-2.06711 4.54744,-3.10058 7.44141,-3.10058 2.27383,0 4.16042,0.43923 5.65908,1.31775 1.49866,0.87852 2.58381,2.17036 3.25562,3.87573 0.67181,1.65369 1.11104,3.28192 1.31775,4.88394 0.25838,1.55033 0.38757,3.43642 0.38757,5.65857 0,0.67181 -0.0259,1.62777 -0.0775,2.86804 v 2.55798 h 3.56567 v -10.6195 c 0,-3.82417 -1.39519,-7.13179 -4.18579,-9.9224 -2.79061,-2.7906 -6.09823,-4.18579 -9.92239,-4.18579 z m 18.44332,0 v 3.48816 h 9.68933 v 54.64938 h 3.48816 V 60.79791 h 9.68984 v -3.48816 z m 27.25156,0 v 58.13754 h 3.48868 V 97.850947 h 8.37158 c 5.68457,0 8.52713,2.790893 8.52713,8.372103 v 9.22424 h 3.56567 v -10.15494 c 0,-3.56577 -1.62823,-6.666183 -4.88394,-9.301753 3.20403,-2.17047 4.80643,-5.09054 4.80643,-8.75968 V 71.34042 c 0,-3.82417 -1.3957,-7.10595 -4.18631,-9.84488 -2.73893,-2.7906 -6.02019,-4.18579 -9.84436,-4.18579 z m 81.947461,0 v 12.17032 c -2.37718,-3.77249 -5.40008,-6.71839 -9.06921,-8.83719 -3.66913,-2.17047 -7.67435,-3.25561 -12.01529,-3.25561 v 58.06002 h 3.48816 V 61.10797 c 5.11611,1.08523 9.32802,3.56557 12.63541,7.44141 3.30738,3.82416 4.96093,8.29444 4.96093,13.41055 v 33.48736 h 3.48816 V 57.30975 Z m 7.83312,0 v 58.13754 h 3.56567 V 57.30975 Z m 21.98057,0 c -3.82417,0 -7.13127,1.39519 -9.92188,4.18579 -2.7906,2.73893 -4.18579,6.04655 -4.18579,9.9224 v 29.92118 c 0,3.87583 1.36935,7.20929 4.10828,9.99989 2.79061,2.73893 6.12355,4.10828 9.99939,4.10828 3.87584,0 7.18346,-1.36935 9.92239,-4.10828 2.7906,-2.7906 4.18579,-6.12406 4.18579,-9.99989 h -3.56568 c 10e-6,2.89395 -1.03347,5.40063 -3.10058,7.51942 -2.06712,2.06712 -4.54796,3.10059 -7.44192,3.10059 -2.89397,0 -5.37429,-1.03347 -7.44141,-3.10059 -2.06711,-2.06711 -3.10059,-4.57379 -3.10059,-7.51942 V 71.41794 c 0,-2.89397 1.03348,-5.37481 3.10059,-7.44193 2.06712,-2.06711 4.54744,-3.10058 7.44141,-3.10058 2.27382,0 4.16042,0.43923 5.65908,1.31775 1.49866,0.87852 2.58381,2.17036 3.25562,3.87573 0.67181,1.65369 1.11104,3.28192 1.31775,4.88394 0.25839,1.55033 0.38757,3.43642 0.38757,5.65857 0,0.67181 -0.0258,1.62777 -0.0775,2.86804 v 2.55798 h 3.56567 v -10.6195 c 0,-3.82417 -1.39518,-7.13179 -4.18579,-9.9224 -2.7906,-2.7906 -6.09822,-4.18579 -9.92239,-4.18579 z m 41.75869,0 v 3.48816 h 9.68985 v 54.64938 h 3.48816 V 60.79791 h 9.68933 v -3.48816 z m 58.59177,0 v 51.08371 c 0,1.96376 0.67175,3.64315 2.01538,5.03845 1.3953,1.34363 3.07521,2.01538 5.03897,2.01538 h 17.67385 v -3.56567 h -17.67385 c -0.98188,0 -1.80917,-0.33588 -2.48099,-1.00769 -0.67181,-0.67182 -1.00769,-1.49859 -1.00769,-2.48047 V 57.30975 Z m 36.122849,0 c -1.91208,0 -3.56563,0.69759 -4.96093,2.0929 -1.39531,1.3953 -2.0929,3.07469 -2.0929,5.03845 v 43.95236 c 0,1.96376 0.67176,3.64315 2.01538,5.03845 1.39531,1.34363 3.07469,2.01538 5.03845,2.01538 h 14.10819 v -3.56567 H 107.5865 c -0.82684,0 -1.62778,-0.28421 -2.40295,-0.85267 -0.72349,-0.62013 -1.0852,-1.34356 -1.0852,-2.17041 V 97.850947 h 21.16202 v -3.56568 H 104.09835 V 63.8985 c 0,-0.77517 0.38755,-1.47276 1.16271,-2.0929 0.77517,-0.62013 1.55028,-0.93017 2.32544,-0.93017 h 14.10819 v -3.56568 z m 36.12286,0 c -3.82417,0 -7.13127,1.39519 -9.92188,4.18579 -2.7906,2.73893 -4.1863,6.02071 -4.1863,9.84488 v 16.743677 c 0,2.42886 0.95648,3.97907 2.86855,4.65088 l 16.58814,5.58106 c 1.18859,0.41342 2.19674,1.26603 3.02359,2.557993 0.82684,1.29194 1.24023,2.55794 1.24023,3.79821 0,2.06711 -0.64592,3.79869 -1.93786,5.19399 -1.29195,1.34363 -2.97186,2.01539 -5.03897,2.01539 h -16.74368 v 3.56567 h 17.44131 c 2.63557,0 4.93556,-1.08514 6.89932,-3.25561 1.96376,-2.22215 2.94555,-4.65133 2.94555,-7.2869 0,-4.85771 -2.86839,-8.423193 -8.60464,-10.697023 l -11.78222,-3.87573 c -2.22215,-0.77517 -3.33313,-1.67946 -3.33313,-2.71302 V 71.34042 c 0,-2.89396 1.03347,-5.3748 3.10058,-7.44192 2.06711,-2.06712 4.54744,-3.10059 7.44141,-3.10059 3.46241,0 6.09828,1.11099 7.90701,3.33313 1.80873,2.17048 2.71301,4.62548 2.71301,7.36441 v 14.882807 h 3.48816 V 71.34042 c 0,-3.82417 -1.39518,-7.10595 -4.18579,-9.84488 -2.79061,-2.7906 -6.09823,-4.18579 -9.92239,-4.18579 z m -242.014669,0.0775 c -3.824161,0 -7.131791,1.36935 -9.922391,4.10827 -2.73895,2.73893 -4.10829,6.04655 -4.10829,9.9224 v 29.92118 c 0,3.87583 1.36934,7.20929 4.10829,9.99989 2.7906,2.73893 6.12406,4.10828 9.999901,4.10828 3.82416,0 7.10543,-1.36935 9.84436,-4.10828 2.79061,-2.7906 4.18631,-6.12406 4.18631,-9.99989 V 71.41792 c 0,-3.82417 -1.3957,-7.10595 -4.18631,-9.84488 -2.79061,-2.79061 -6.09771,-4.18579 -9.92187,-4.18579 z m 151.24864,3.25561 c 2.84229,0 5.32262,1.05931 7.44141,3.1781 2.11879,2.06712 3.17862,4.54797 3.17862,7.44193 V 94.130217 H 42.400831 V 71.26289 c 0,-2.89396 1.03398,-5.37481 3.1011,-7.44193 2.06711,-2.11879 4.54744,-3.1781 7.4414,-3.1781 z m -190.102611,0.15503 h 6.3562 c 2.84229,0 5.29678,1.05931 7.36389,3.1781 2.11879,2.06712 3.17862,4.52213 3.17862,7.36441 v 15.890497 c 0,2.84229 -0.95648,4.75472 -2.86856,5.7366 -1.91209,0.93021 -4.49576,1.39527 -7.75147,1.39527 h -6.27868 z m 38.853971,0.0775 c 2.89396,0 5.37428,1.0593 7.4414,3.1781 2.06711,2.06711 3.10058,4.52212 3.10058,7.36441 v 29.92118 c 0,2.89395 -1.03347,5.40063 -3.10058,7.51942 -2.01544,2.06712 -4.46993,3.10059 -7.36389,3.10059 -2.945641,0 -5.452321,-1.03347 -7.519441,-3.10059 -2.01544,-2.06711 -3.02307,-4.57379 -3.02307,-7.51942 V 71.4179 c 0,-2.89397 1.03348,-5.37481 3.10059,-7.44193 2.06712,-2.06711 4.52213,-3.10058 7.364411,-3.10058 z"
         style="font-style:normal;font-variant:normal;font-weight:normal;font-stretch:normal;font-size:77.51683807px;line-height:1.25;font-family:'Monicas Salon NF';-inkscape-font-specification:'Monicas Salon NF, Normal';font-variant-ligatures:normal;font-variant-caps:normal;font-variant-numeric:normal;font-feature-settings:normal;text-align:start;letter-spacing:0px;word-spacing:0px;writing-mode:lr-tb;text-anchor:start;opacity:1;fill:#ffffff;fill-opacity:1;stroke:none;stroke-width:10.58333302;stroke-miterlimit:4;stroke-dasharray:none" />
    </g>
  </g>
</svg>
