<?xml version="1.0" encoding="utf-8"?>
<!-- Generator: Adobe Illustrator 23.0.2, SVG Export Plug-In . SVG Version: 6.00 Build 0)  -->
<svg version="1.1"
	 id="svg8" xmlns:cc="http://creativecommons.org/ns#" xmlns:dc="http://purl.org/dc/elements/1.1/" xmlns:inkscape="http://www.inkscape.org/namespaces/inkscape" xmlns:osb="http://www.openswatchbook.org/uri/2009/osb" xmlns:rdf="http://www.w3.org/1999/02/22-rdf-syntax-ns#" xmlns:sodipodi="http://sodipodi.sourceforge.net/DTD/sodipodi-0.dtd" xmlns:svg="http://www.w3.org/2000/svg"
	 xmlns="http://www.w3.org/2000/svg" xmlns:xlink="http://www.w3.org/1999/xlink" x="0px" y="0px" viewBox="0 0 266.6 2000"
	 style="enable-background:new 0 0 266.6 2000;" xml:space="preserve">
<style type="text/css">
	.st0{fill:url(#SVGID_1_);stroke:#000000;stroke-width:0.2646;stroke-linecap:round;stroke-linejoin:round;}
	.st1{fill:url(#SVGID_2_);stroke:#000000;stroke-width:0.2646;stroke-linecap:round;stroke-linejoin:round;}
	.st2{fill:none;}
	.st3{stroke:#000000;stroke-width:0.1;stroke-linecap:round;stroke-linejoin:round;}
	.st4{stroke:#000000;stroke-width:0.1202;stroke-linecap:round;stroke-linejoin:round;}
	.st5{stroke:#000000;stroke-width:8.219299e-02;stroke-linecap:round;stroke-linejoin:round;}
	.st6{stroke:#000000;stroke-width:0.1208;stroke-linecap:round;stroke-linejoin:round;}
	.st7{stroke:#000000;stroke-width:0.2;stroke-linecap:round;stroke-linejoin:round;}
	.st8{stroke:#000000;stroke-width:9.865432e-02;stroke-linecap:round;stroke-linejoin:round;}
	.st9{stroke:#000000;stroke-width:6.500000e-02;stroke-linecap:round;stroke-linejoin:round;}
</style>
<defs>
	
	
		<inkscape:path-effect  effect="simplify" helper_size="0" id="path-effect7232" is_visible="true" simplifyJustCoalesce="false" simplify_individual_paths="false" simplify_just_coalesce="false" simplifyindividualpaths="false" smooth_angles="360" steps="1" threshold="0.0265217">
		</inkscape:path-effect>
</defs>
<sodipodi:namedview  bordercolor="#666666" borderopacity="1.0" id="base" inkscape:current-layer="layer2" inkscape:cx="-611.86056" inkscape:cy="934.42424" inkscape:document-units="mm" inkscape:pageopacity="0.0" inkscape:pageshadow="2" inkscape:snap-global="false" inkscape:window-height="705" inkscape:window-maximized="1" inkscape:window-width="1366" inkscape:window-x="-8" inkscape:window-y="-8" inkscape:zoom="0.25" pagecolor="#ffffff" showgrid="false" showguides="true" units="px">
	<inkscape:grid  id="grid7539" type="xygrid"></inkscape:grid>
</sodipodi:namedview>
<g id="layer1" transform="translate(0,232.16668)" inkscape:groupmode="layer" inkscape:label="Calque 1">
</g>
<g id="layer2" transform="translate(0,264.58333)" inkscape:groupmode="layer" inkscape:label="Calque 2">
	
		<linearGradient id="SVGID_1_" gradientUnits="userSpaceOnUse" x1="20.5601" y1="-507.8292" x2="19.8351" y2="23.9697" gradientTransform="matrix(3.7795 0 0 3.7795 208.4633 1808.4476)">
		<stop  offset="0" style="stop-color:#000000"/>
		<stop  offset="0" style="stop-color:#000101;stop-opacity:0.9961"/>
		<stop  offset="0.2402" style="stop-color:#090D0F;stop-opacity:0.9843"/>
		<stop  offset="0.6651" style="stop-color:#182828;stop-opacity:0.9686"/>
		<stop  offset="1" style="stop-color:#365F5B;stop-opacity:0.9412"/>
	</linearGradient>
	<path class="st0" d="M265.8,1701l35.8,0.1l-0.8-1898c-3.9,0.2-7.8-0.1-11.6-0.3c-6.6-0.4-13.2,0.6-19.7,0"/>
	
		<linearGradient id="SVGID_2_" gradientUnits="userSpaceOnUse" x1="-19.5262" y1="-523.3407" x2="-20.2745" y2="25.5942" gradientTransform="matrix(3.7795 0 0 3.7795 208.4633 1808.4476)">
		<stop  offset="0" style="stop-color:#000000"/>
		<stop  offset="0" style="stop-color:#000101;stop-opacity:0.9961"/>
		<stop  offset="0.2402" style="stop-color:#090D0F;stop-opacity:0.9843"/>
		<stop  offset="0.6651" style="stop-color:#182828;stop-opacity:0.9686"/>
		<stop  offset="1" style="stop-color:#365F5B;stop-opacity:0.9412"/>
	</linearGradient>
	<path class="st1" d="M269.4-197.2c-1-0.1-1.8-0.4-2.5-0.9c-0.2,0-0.5-0.1-0.7-0.2c0,0.1,0,0.1,0,0.2c-5.4-1.5-10.8-2.6-16.7,0.1
		c-1.8-6-0.4-12.6,0-19l5.6,1.3c-10.7-13.3-20.8-26.8-26.3-42.9c-6.5,10.7-12.5,21.9-21.2,30.8l1-5.6c-8.7-1.1-17.6-1.3-26.8,0.5
		c0.4,8.6,2.1,17.4-0.1,25.5c-2.4-2.7-4.2-7.3-7-11.4c-5,10.2-10.4,19.9-18.2,26.3c-1.4-4.5-0.6-9.1,0.4-13.6h1.8
		c1-1.8,1.5-3.6,0.2-5.4h-2.3c-0.9-1.6-0.5-2.8,0-4.4c4,0.2,5.3,0.8,4.5,0.2c-10-8-16.4-18.5-24.2-30.8
		c-7.4,11.5-15.1,22.8-25.8,32.8h3l-0.5,5.8c-1.7,2.2-4,2.2-6.1,2.6c-3.1-10.4-2.2-14.1-1.9-18.5h1.9l0.5-2.7l-2.5-0.3l-0.4-2.7
		c-9.9-1.4-19.8-2.7-31.1,0.1l-0.1,2.5l-2.1,0.4v2.7l2.1,0.4c2.2,6.8,0.5,14.7-0.3,19.4c-4-2.2-4.8-8.1-6.5-12.2
		c-3.4,9.4-9.4,19.8-14.6,27.3l4.5,0.5c-1,2.3-1.6,4.5-0.2,6.4c-5.7,0.1-9,0.3-14.3,0c1.3-1.2,0.5-3,0-4.6h3.9v-2.8
		c-5.9-4.2-11.8-10.7-17.7-17.7c-6.4,7.6-13.5,15.1-21.6,21.7c-2.4,2-4.1-3.2-7.1-9.1l-1.8,1894.9l267.5,0.6"/>
	
		<path id="path7230" inkscape:connector-curvature="0" inkscape:original-d="m 38.766183,-212.28088 c 0.157353,-0.13455 0.327885,-0.23339 0.448847,-0.35435 0.03032,-0.0303 0.07178,-0.0482 0.09449,-0.0709 0.01114,-0.0111 0.06299,0 0.04725,0 -0.01574,0 -0.0315,0 -0.04725,0" inkscape:path-effect="#path-effect7232" class="st2" d="
		M146.5-229.9c0.6-0.5,1.3-0.8,1.8-1.4c0.1-0.1,0.5-0.2,0.4-0.2h-0.1"/>
	<ellipse id="path7347" class="st3" cx="228.7" cy="-258.5" rx="1.2" ry="1.1"/>
	<ellipse id="path7349" class="st3" cx="228.7" cy="-260.6" rx="0.8" ry="0.8"/>
	<ellipse id="path7351" class="st3" cx="228.7" cy="-261.6" rx="0.1" ry="2"/>
	<path id="path7377" inkscape:connector-curvature="0" class="st3" d="M201-238l-0.3,6.1l2.2,0.1l0.1-6.2L201-238z"/>
	<path id="path7379" inkscape:connector-curvature="0" class="st3" d="M204.4-238l-0.4,6.1l2.2-0.1l0.1-6.1L204.4-238z"/>
	<path id="path7381" inkscape:connector-curvature="0" class="st3" d="M199.8-238v5.7l-2-0.3l0.3-5.7L199.8-238z"/>
	<g id="g7552" transform="matrix(1.8133411,0,0,1.8133411,-1.883319,129.80192)">
		<path id="path7383" inkscape:connector-curvature="0" class="st4" d="M5.9-181.9c0,0-1.8,2.3-1.6,2.2c0.2-0.2,4.2-1,4.2-1
			L5.9-181.9z"/>
		<path id="path7385" inkscape:connector-curvature="0" class="st3" d="M5.9-179.6l-0.1,2.5l1.3-0.1L7-179.6H5.9z"/>
		<path id="path7387" inkscape:connector-curvature="0" class="st5" d="M6.3-176.8l0.9-0.7l-1.3,0.8l1.5,1.7l1.1-1.2l-1.3-1.2
			l-0.5,0.3"/>
		<path id="path7389" inkscape:connector-curvature="0" class="st3" d="M7.3-179.4c0.6-0.4,0.7-1.5,0.7-1.5v0.2"/>
		<path id="path7391" inkscape:connector-curvature="0" class="st3" d="M5.5-180.3L5.1-180l0.1,0.5l0.5,0.3"/>
	</g>
	<path class="st3" d="M263.1-203.8v-2l-2.5-0.2l-0.4,14.5l2.6,0.5l0.2-11.2C263-202.8,263-203.3,263.1-203.8z"/>
	<g id="g7533" transform="matrix(-0.76825121,0,0,1.002493,101.44619,-46.472236)">
		<path id="path7399" inkscape:connector-curvature="0" class="st6" d="M-37.7-193.9l19-6.6l-0.4,0.3"/>
		<g id="g7520">
			<path class="st7" d="M-35.6-186.5l-0.2-11l0.3,11.2C-35.6-186.4-35.6-186.4-35.6-186.5z"/>
			<g id="g7474" transform="matrix(1.2583863,-0.19436381,0.33336973,0.82346751,61.70486,-30.112716)">
				<path id="path7401" inkscape:connector-curvature="0" class="st8" d="M-10-210.4l1.1,4.4l-0.1,0.1"/>
				<path id="path7403" inkscape:connector-curvature="0" class="st8" d="M-12.2-209.7l1.2,4.5"/>
				<path id="path7403-7" inkscape:connector-curvature="0" class="st8" d="M-14.9-209l1.2,4.5"/>
				<path id="path7401-8" inkscape:connector-curvature="0" class="st8" d="M-17.4-208.1l1.1,4.4l-0.1,0.1"/>
				<path id="path7403-4" inkscape:connector-curvature="0" class="st8" d="M-19.7-207.4l1.2,4.5"/>
				<path id="path7403-7-5" inkscape:connector-curvature="0" class="st8" d="M-22.4-206.7l1.2,4.5"/>
				<path id="path7403-1" inkscape:connector-curvature="0" class="st8" d="M-24.4-206l1.2,4.5"/>
			</g>
		</g>
	</g>
	<path id="path7537" inkscape:connector-curvature="0" sodipodi:nodetypes="cc" class="st9" d="M36.3-212v0.9"/>
</g>
</svg>
